<mxfile host="app.diagrams.net" agent="Mozilla/5.0 (Macintosh; Intel Mac OS X 10_15_7) AppleWebKit/537.36 (KHTML, like Gecko) Chrome/130.0.0.0 Safari/537.36" version="24.8.3">
  <diagram name="第 1 页" id="DtUUDmLyzxmyt47omVW5">
    <mxGraphModel dx="1758" dy="1170" grid="1" gridSize="10" guides="1" tooltips="1" connect="1" arrows="1" fold="1" page="1" pageScale="1" pageWidth="2339" pageHeight="3300" math="0" shadow="0">
      <root>
        <mxCell id="0" />
        <mxCell id="1" parent="0" />
        <mxCell id="xxtaCmlp9K6OBuRcwh9v-1" value="" style="rounded=1;whiteSpace=wrap;html=1;dashed=1;strokeColor=#3333FF;" vertex="1" parent="1">
          <mxGeometry x="280" y="520" width="1280" height="200" as="geometry" />
        </mxCell>
        <mxCell id="xxtaCmlp9K6OBuRcwh9v-2" value="" style="rounded=1;whiteSpace=wrap;html=1;dashed=1;strokeColor=#3333FF;align=center;" vertex="1" parent="1">
          <mxGeometry x="280" y="1200" width="1280" height="200" as="geometry" />
        </mxCell>
        <mxCell id="xxtaCmlp9K6OBuRcwh9v-4" value="" style="rounded=1;whiteSpace=wrap;html=1;dashed=1;strokeColor=#3333FF;" vertex="1" parent="1">
          <mxGeometry x="350" y="2320" width="1280" height="200" as="geometry" />
        </mxCell>
        <mxCell id="xxtaCmlp9K6OBuRcwh9v-6" value="" style="shape=image;verticalLabelPosition=bottom;labelBackgroundColor=default;verticalAlign=top;aspect=fixed;imageAspect=0;image=data:image/png,iVBORw0KGgoAAAANSUhEUgAABLAAAAB+CAYAAAA0jOgYAAAAAXNSR0IArs4c6QAAIABJREFUeF7svWmUZFd1Jvrde2OOnKfKyqrSXBpAEkggAWKUGmPM2LRHsI3b2Nju5e731ur3fnS37YcNxtiY5Wm95+dlu92AH2Y1BjcgM6kEsgCBBiShuaSSap4zq3KM+Q7P37nxRZ66yqyMrMqsqixu5IoVkRHnDnHOPmfv/e1v7+MgfaQ9kPZA2gNpD6Q9kPZA2gMXYA80m82bPc97+AK8Nfz37x7Bvc/N4tMfuPZCvD1zT44TwXEWby+K+Bn/d/ltN/f9Rsdxvt1Nw7RN2gNpD6Q9kPZA2gNpD6Q9sN490JX1st43kZ4/7YG0B9IeSHsg7YG0B9IeSPZACmCdnUykANbZ9V96dNoDaQ+kPZD2QNoDaQ9cWD2QAlgX1nikd5P2QNoDaQ+kPZD2QNoD7R5IAayzE4UUwDq7/kuPTnsg7YG0B9IeSHsg7YELqwdSAOvCGo/0btIeSHsg7YG0B9IeSHtgAwBYG2GQUgBrI4xSeo9pD6Q9kPZA2gNpD6Q90G0POFEU/W/dNk7bnV0POI7zF2d3hvTotAcu7h6Ioqin1Wp94OL+lev767LZ7H93HKeyvlc5f2ePoujdYRheev7uAAiCAJ4HuCwj9KJH9nze2vm49rcdx/nhel34QmZgrddvXsvzngpguYhrYK0qdnnB1MDyff8DYRj2rGX/bJRzPXmogsmFFm6/ZuCCvWWuiS9+LPnhuv8G13WnHcf5+7W6UBRFr261Wreu1fk24nk4vkEQGt23+KAS9No68fyMdRRFezKZzJ0bsU/Te057IO2BM+sBAljRmR2aHrXaHnBWaTWu9vxp+7QHNnoPVKvVbdlsdv+F9Du68/VW5RCu68/zPG+L4ziH1/Ui5/HkYRh+PYqiHz+Pt4AoohG/3JifHyP+PPbHf3Yc50/X6/opgHV2PXuRAViHAEycXY9szKMJYB2da+LN1w1ecD+AbgT15Km6UuvjedONz3med81adVar1foIgN9eq/NtxPO4rmN036njHG8GEcvA+Rlrx3HudF33XRuxT9N7Tnsg7YEz64EUwDqzfjujoy4WACsFPbse/l93HOevu26dNsTGBLDOj9G2nLikANb6T6QUwDqljzcUgEVHq1aroVAoIJPJoNlsmmc2mzXPMAyNM+a1aQZ8zydZd3zy4bqu+V7xPx7HB/+3j6dDp+P5Pf+Xk6e26kl+zvN26wTa5z2dxKcA1vqvB+fiCk8fruLgTANveUkKYHXZ3ymA1WVHddssBbC67am03UXYA+4dd9wRZFwHTgQ0nCwcJ0Tej22C0AkQuQxenuoPLInpRi+m7kcIESVdCUMv6ta/aHORXnRBHr94jpiyFMD8CH0cOXDNxQlC+4iiIuJL87eFuHvH3d3exDkd9hTAOofdnQJY57CzL4xLpQDWKschCWDRoeNzrR9y/uhs2o6l7Vx2S07t1uHUdeTo2g6v7oOO8Br83pSBtdYCkzhfCmCd0iEbBsASEMW75zzzfRprMVglQInzmcBWq9XC1NQUDh48iCNHjpj31WoV+XweY2Nj2LJli3mOjIwY4EtgFeeyDUaJmaA1R+uKDVbpMx3XjfimAFY3vXTxtHnmSBUHTtbxlpcOXXA/KmVgXXBDsi43lAJY69Kt6Uk3Rg+4d9xxuwGwCPREKCDKlBB5c7QmgLAUAz7x18s84i+IHRmwKLKbRnB4HhuwiuifJE6WOKZzIVMbIDzl8CVvhUzJTuKdC4fsSQQIzE1FiHiOMA8PrX8lnPrmnnbsuCcFsDaGjK7fXaYA1vr17QV65hTAWuXArDeAJaDIvq0kACXHcA2ApBf9+qVYFzawZTM0Vtl1dvMUwDqLzuvm0BTA2rgAlgAm/gIyr/ggKMXPxbIiQ+vw4cN44okn8Mgjj2D37t2YnZ0135fLZQNajY+P45prrjFPAlp8lkqlDgDNua41RK9iZ9lz/kznfwpgdTNTL542zx2rYvdkHW+9PgWwuhzVlIHVZUd12ywFsLrtqbTdRdgDbQZWBqRKRVnALYzDz1cQkWkd9sALMgZAivEhMrcNLTtmalsQkBsShYqBKUJhak8o6dRHALh1wABZ8cP4EIv/LDaPyAzzzL3pQTIWbdX4ngiQOQijEC7qBrZClDHpwCF8hPxB/NSN4AY5ZFCDg6YBu1IA6yKU5tX+pBTAWm2Pbfj2KYC1yiFcbwCLjAubIbEUC8JOA1rp9snc6AboWgo4sxWSFBPPtxpG1zL3lwJYKw3cWX6fAlindOCGYWDxrjkXCVzlcrlT0v0477k+HD16FM899xwef/xx/PCHP8Szzz6LEydOGAOQxyh9kKwrglhXX301rrvuOtx444249NJLMTAwYNqJ2ZVMDRTbimCY3ne7jti9/qMIYAVB8KIaWDZTdqlghN1ny32/3Jq7FAtXbfV6urVd17ZBU631PF6AJhl/S40tZU3H+iHQ8AOUc7HO0b3ple3EWBYbkCxCntv+fZJzXm85fXMm/bh0/auzXGjP7vAUwDq7/nvR0SmAtcYdmp5uI/WAe8ftdwR5OPDCCDObxvGKoRvwxqEZVEIP9zW2ol4qw/db7bIBQBCGyHiuAascvhokyUGr5bd/t4NcNoOFBYJgiyDXot4hGEV2eAeSshhZNr8qNCCX6zRMEE06JgwCMKsx3njBRRiwPALgOi6CwEWryaAdUCw6yLo+TLkBF6jN1VGb2ougOQ+/cQJ3370jZWBtJEldj3tNAaz16NUL+pwpgLXK4VlvAMt2Gu10naSBbzMlTvcTVgM2qa0NeCXBsjVKmUwBrFXK3WqbpwDWxgWwuAYwFbBYLHZqTnG+z8zM4NixY3jwwQdx3333YdeuXSaNUAAAQa+FhQXz5DnI2iIAwFpaTCUkiHX99dfj2muvxSWXXIL+/v5TgCyeh9dZioUlIH0168mPIoAVhuEFB2Atl2qeXNuVSiqWreqpSQ/ZNdbYlvLCp93OBs8kS0lATeCVnBjJlu7Hbt8N4/d0IJ5WgWSb1cjxSmvv6QDK5LGJ+0gBrJU6d5XfpwDWKjssbX4x9YABsLKOZ1L/wt5BbNp0NcY3n0Ar9NDK3YCBgTEETMjzWS/TR+QHKBQLaDSayBcKKBVLBkA6Mc20wxiAKpV7sHPnM2j5EfyIgYx2zSpDn2L3vRg7ijlY5FO1QayoiSgKkIt8jI6OWgGOCH7QgpfxUCyW4xIIhTzCKIDvRzh+bBpRGKF/sIhcJr5OoaeMqcPHsHB0F8LmAkICWDtSAOtiEuQz+i0pgHVG3baRD0oBrFWO3noDWLaBu5zjsZpbXs057PpatuEvJ0IpR2tg/KcA1moG8QzapgDWxgawCEzZoFGlUsFDDz2Ee++917yy3hWBKQJUBBFU0J3HNRoNYwjW63UDcAlsIPNq27ZtBsB6yUtegu3btxtgi0CWCsYLpOAcT7KubAZNNyKZAlhxL51vBtbpACzKiuRD46Wxp+zwIRYU2X82oCT5sBletm4QgCXZtPvCBq2MC2RtJiA9w8+7YQ+nAFYsZ+kuhJSXdBfCbtbmtM1F2QOmBpap004AKTuKTN8o3IJvWFWeX4Dregi4UYvrwTUlqZggGLNrPYfMWZOkBz/04bgxA5drc6PVjFP/9OzUwuKmL4vpg2YdN7hWG8Bi2l/UQuDPIAwbyEShKW8gypbjumj6ATJeFlHkgHaO6zkYGOg3TLHZ6RkDrOWyWbRYDxRk+fqoVatAcx6R30Lo11MG1kUpzqv8USmAtcoO2/jNUwBrlWO43gCWzX6wUzCWiiB3Y9x36wToukkGhtKRdK1uIuJddGkKYHXRSWfTJAWwNi6AxblONhWBKc47glVMFfzKV75imFf8v6+vDxMTE51dCcXcVOoWwQcag3Nzc+ZVhijp+zQgmUpIIOulL30pLrvsMmzatMmcU6wte57z3GLhrGb+pwDWhQFgLZdCyPERSCX2leRH+sAGUdnWBqgon9JLSzFzdU7NRJthZacGEhiz9VSS+bXUOmiztFIAKwWwJCMpgHU2VkN67AbvgRjAyoSm6Dkyw8gWhuC6DES4cMMsQgK8BqVymT9odvaL0C4nQOjK1KOKEJljTGQhrpHl8GPyqZhuyM+0cRXBsEUAy+gPBm1MwXUHTkAAqwk/iAEsz4lwybZLFvWG56HeCJDL5s1n09PTyGQ8bNo0hmazgWNHj6Jc7kE+n0OjGQfjFmoNVCrzcII6oqBlnjtSBtbpRTfp4MnR4ysVO6OdpO6zuCqNTxmMrDXR29tropwsrira9RqwGNZ8rqUA1pp36YV+whTAWuUIrTeApV3H7PTB5SLo3awhdkri6X7qcjuOxTrMLrrIiMtZp5unANYq5W61zVMAa+MCWLxzAVhcD1ik/XOf+xy+/e1vm90GCTQJcFJtIjn9AhL4P9k1rI3FJ+0S2ikEDmiHsKD71q1bDZBFFtbll19u2Fmk9w8NDRlGFue5GFm8Dm2Z1cz9FMC68AEsgVvJdD/KDmutMWWVsnPo0CHD6mPqKVNbWVuNMkFZpH0rQEryKLaWzb6ymbw2QGa/FyhmA2OnA7CWWxeTcpqmEK5Wg2zM9imAtTHHLb3rs++BD33oQ+53vvOdwGGddETIer3Ien1wM4ZWBZ+MKrjIRoFhWRHIcky6YcjS6QgDHz5rTzluexfCOAmQ+FScLRgidIAg8uC2fQAvCu2a7OZHMAXRsLzaRdtdkMXVjIGxKN5BmfcX+xakixEM4z0EJrXRhYdszjNphLJZ4vPGfkcQtBAELBzP1wCR76cphBIfKlMqb3YclTA7iO+5ww8BKr7nkwamXqngiRxS4R8/fhzz8/PmWCpvKncaioxyUukTyKKR2NNDVDFvjEIVXj17ET67M6QA1tn137k8WgaZnfZlf2Y7D3bNCdugBJACWKsctPUGsOxouSLWXIPkYOh2u61F1W0KoUB3nddmXtnR8tUwME7TtSmAtUq5W23ztQawbDZgbEzEO9dQTiSfYlyweLjaJ9ab1f6MtWq/YYq4s9/k/HNOkm31jW98A5/61Kewf/9+0x8EmoaHhzsphkrlsnUB1wuOC+0SghC0SWinsA1ZWLRD9KQtQhBLYJZsFYITHEseIzZYt+uOLSMrDaIpzNrBxFn8+1TQfKXjAbzRcZxvd9Fu3ZtspBpY7AylEIphS9kjUMWNAe6//34jf3yw/hrbDg4OGpkgiEX7lTJDe5YyyP8pRwRI+T/b2aCngiSynXktAaNaJ+z0QV53OZaxDVClDKxYrNMUwjSFcN0XuPQCF2wPCMDKImPAI+SzCPL9GOoZhudGCJtzyMHFlaN9GOrrQ2lgAL3DY2jMT6NRr2Lf4cPYeXQaM74HL2yZQurFbB5gnSxuDpPNYQFZVKMC3EzB1L/KcHdApg2aXpESJxRl8Kr42fmmA1st9iELtrNel+MjcAh0ZeF4fSZ90RzMHQ1DFnaP4PoVOKEPNE4CzROIwjqCMEDYaqYAlnqUTKqDBw+aSCeVNkErGoGk8HOrakUypYQV+ZTBRlBLTqgMS9WpoIJn5PQVr3gFbrjhBmOI8v/Nmzd3Ip7nc3akANb57P3VXVvghn2UnX7G9zQOtQ27dp2iUWk9UgBrdd1O435bNpuNPcm2gd1tKl83l6JRrzo2TP2h40mHQqC6fd3VsCFWurYAMoER/E1kYdCJpaPLV/6/WhbGMtdNAayVBuQsvz8dgBVF8Q5hYgmLZcO1Qk/qQT0lf/yO8qmdMgVY2SlAlA86sHqQzUOnlo4v9d95emwYAIt9SRuDgS8GxB599FF87Wtfwz333GM+55jRXqDdILaKnd6nsRQQwBRCghACsPg95zaPJQjBsSKgxVfOcTKzyMbizoWskcWgGwEuXkOAQ3JHOntMk8BCNwB6CmAt9uByzKHl1vrTgTcr6Qceyzlts52oZxisJXj13e9+18gN7VeuBZQdyor0Hee6DWBRnigz2uWS+kIbEUhX8pVyLH1Ge4TnlF2iwK/u3Qa2bDnTPSzH8ksZWOdppT3Pl00ZWOd5ANLLn88ecO+4444gwyJYjALlXYSFAVzaP2GKpxem9+Ly0QHcfP3V2LZtC/r6B4FsHgf278fcyUlMT5/AD/YexzPTNcy15g3LKg8PTgvIenlE2RKC/q2oYBButmjYWUwVNGyu9jaEbZJUOwhFbpWDKGSKYbzDoQGpXC9mYLUxKscUhvfheyFQ3oTi4EuRjypAWAPCBuAU0IhyaM0cQOTXgJnn4VT3AUE1Dp76Ldy9466zTgtZj4Fzom4soC6vLGUnZ41KlAAVKfYHDhzAvn37jLFHwIrgFZU3nUga8CdPnjSvScq1nACbui/D3nY2BWZRUdMgZJRTzKwrr7wSV1xxhalpQUPSTufp8qetSbMUwFqTbjwnJ5EDKnlU7Qpe3GZLTE5OGlmmTBM0JRhhPVIAa5WjdTYAltaf5RwLGu9cc7jWcB2iA8tXOhRcewRGigW1koNiy8JKP5Pyo3Ro1bwh4EAAguuSwHY6J1y/xLLhMVqvknVTTnPNFMBaaUDO8nsBWLQrpO/EKG42fSNLAqPonKpeEgEPrheUOb5SFvkUA5k6k+11LgGeYmBQNigzAjoJXt1666248cYbO+lH54GVtWEALK3r7CMyp5g6eOedd+Lw4cMdphvnI+tYrcRO4dhwPKkDOH42WMG1g3OYc5yAlIAE6geyuwhcMV2MYBZtFQJbHFuOq8bPDpjYtZJs0e3GfEsBrLMDsJJsbJ0tyc5eCtThXOaDQZM9e/bgySefNDrniSeeMHIj9i2/p4xQPjjWAqAohwSglJlw1VVXmfnP4ygrlCHqDjH4uJbQzqY80/YmGEvQy2b7Uc4Ifgn0shnk+g02E3g5GbNTFpM2uS2j3ejR0y3Hp7t+8rhE23QXwrPUc8nDUwBrjTs0Pd1G6oEYwPKYlhcZxlSYG0JPoQw3aGDz/GHcdMkm9I0MoqevjK2bN2N6dh5VP0TRDeE0K3hhuoZ7nj2IqWql/bsJT2UQOiz+nkFh6ErUnUHksxnDrGo4blwCnmmIDlAoZE0qYhjEfqjnevADv5NlZoLzzYg7g7QJW3G59yyLyTsN+INXoLjp5XAOfhPVqReQC6tAdgK5bW9CrXYSUWsB4YnHkanuBfwagiBE4PvY8aMAYAmIknH+1FNPGSeRzj2VNdP/RN+XUldNKypbGoC2UcA2tgOXVIq2YWFHkmhYErAigMVIKo1DPhnN4uf8TDUozuXsSQGsc9nbZ3ctOTq2jNnFT/k5jUzWT3n66aeNwfibv/mbxjFJAawz7/szBbBs8Nw2rHUnXFvobNK4f+GFF0y6EEF1rk1ag1RwV2B5ci1K/qrk90lD23YG+J3ACJ5H39E5ESuDjizXJ76SUcP7ECtDqWQ8D52VFZyCFMA6cxHsHGmvAXrPMYyBKRa8jOszch2gDM3OsqD3AhYWqkbW+KR8UR/ySRBL7Ag5qGJkKV3eZmAp3V46kzLAAAydUsqM5I2ywiDNy1/+crP7Hb9XoGYNuqGbU2wYAEtzj323d+9efPKTnzQMLI6N+pP9R5DAduLtQIadDiYAi2Ck7BcdpzQvpQtz3hLQImtGQCQBSM55AhN8z3Qx1TySzOmeeT7pHYId+n+lAUoBrMUeOhMG1ukALHuNEBDEzwRCEazi3GaNq29961t4+OGHzXrB9YDtlKpK21n107TWc4w5j3lesTUpH/yM8sjPuA4w44BgFmWQMk1bmtelPHJtoFzxXDyGskVAizKu+yRoRpkUSK7esllYSzGyxEy054aOtQGtFMBaaYZunO9TAGvjjFV6p2veAwbAirGGCJk2gFXKl+AGTWypHsUtl4yjf7gP+UIGE+ObUGsGmK3UkYl89JfzeHjvMdy76yBmG812MXbWvDUIFYIoi+zwNah7Q8h5BLAitNwszNVCH54LTGwaNiDWyelZZLM5DA0NYmrqhFnnqRdOzkxj374jiNyMBWBFyASEwZoIBy9Feewq5A58CVt7fGwdKmH3YR8Hc7eiFvoImwsITvwQmcpeOH4N/sUOYFF5UWEyJZApgHwSqKLhzigT2Vd2wXXl9lMIVEeCr4wc0YiUgyAFKGNQ0Ug5bzqnjAb9T0VNcIq7/9i1sCgijELR0OfuQIxc0Yg8l48UwDqXvb3ytU4XvaY82XR7ypnSV/mecsrt1j//+c8bo5GLx8c+9jETUbcMtpSBtfIwnNLiTAEsrQ/JqDgNb44bDXqCVwQcGQUn+0LFlyUHMuhtY32520+uS0u1SwJYYurYzA6BEoy0E/wkk4ZPOrVkY8l5tY/RfZ7GMUgBrFXKXbI5+5jzn04gnUs+6TDSSaTcnDx5wgBU1H1zc2Tw1Yz+qtcbHR2mner4OZ88l0BMpcpLJvQqoFMyqTQ26UXVwaEOo9OqNUnOKWXnVa96FV72spcZEOYcPTYcgMWxffzxx/HpT38a//Iv/2LGRmwYzkN77rEPkwCW5IOMTsoD7R0bwOIxArDk6GvNUF0i2kIEFBhQU5F3znulhNJesUE02ToqvJoCWLF023p8OYBK82C1AJY9f+xjJQ+SDYFO2iSEY0ObmLJFGaFdzCAuA118KL1U+ok2M8eVNqnY3gpWaJwpN3RU+L/kjm0oL/xODF9+xrWJn1G++OR3XINoG6ukhjYgocwR+BaIxXWFa4cYhNI36mvb9rZ13HJph2cDYEnmk+MsvbjUum19ljKw1lgBpADW0h0aRdF/BPCfX/yt2TNuTUaBbO/lfBaHu94lNgRSUNf+3LYvVE5DN2cHRpPsY/tcYgN3EUhdlsWc6JD/w3Gc/7UmnbS+J2kDWHFfZ7J5BLkhU8fKC5oYrU3i5q1jePn2rci6AXp6yyj29sP1Csg4wMz8PP7xvofx6NFZ1CLf7DiYDVxc2ZdDf6uCySZwZPB6zGYGUSoWkfFc9AyMwm/6qC7MGEDrqsvGDYi158BhFIpFlEpFY5NuHt+M4ZEhzFYW8K17vo8wyrYrw7MwvA/X74EHH+7gBAr9vXh59CDuuP4yXDZSxPee3YN/3LcNc60SwmYVwdRjhoHltJhCGPvBFyUDiwqQivSxxx4zO/iwngSZDVSeYk7JkKPiVC6+dvChwuZkoKKk8Sej3i58qYkkA1+Kmv/zPZU5O5jHsC2jSYxKXXfddQaw4mdqx+vyPRX2K1/5SgNm8drLpQqs9VxIAay17tGzO9/pACw7+m0v3kp7Zc0Upp8wLYCyS1n627/9W0Pntx4pgLXKITpTAEvGuOay0vQ4dox2P/fcc6bOHtcqAlmqWWMb57pVget2Co/tANlG+1Jtkm3VXveoNVHOD7+n00DnhdFxgg+MqrNODoHRJGCVAljh16Mo+vFVitZpm3MOiymsYIqAJ815gVliUhHQSm5IovpVvJj0I/UhATDqO605djt7fUk6ajIWBZjwf+o3AlUEs3gPYmrxlY4n9dtrX/tavPGNbzQydQ5SCjcUgMU+5rh95zvfwWc/+1kTiOBY0Rbgk2AybQcZ/pyfmudiZ3I8OJ4qkWAzsDSGSvMSMCbngd/zOtoxmcABr8mAG9mXBLP05H1wnJMggA3UrzQPUgbWYg+tFsBayUaQnSCdofaUJzJ9v/jFLxpdw3nKtZ1rAeVGqaRcSyiLXHv4FHOKQBe/43ymnKgOHu1oyiJ1Gu1l/q9ALNcnyid1CdvwO+oPyhqP5/n4PWWNMsXPKL/8n/LGe+c9kBX26le/usPesjdB0jrEfpRc2/pwKVlcCsA6Xb8m9afaJo/p4rwpgLXS4rDK71MAa+kOC4Lgd1zX/fCLv109gNUud9TWP3G5pfjBupraXe7UK8UA1qk7WMuu4KutLwRccU2STcLvVXtRARfZ0vY80xzUOmODWEvNRzsAcxpRe7/jOH+/SlE8581VxN0jFaoNYIX5IZRyRXhBC5nKUQxlgJ99/c0YLmRQKuTgZnLIc0OOXB5P7d2Pu57Zh721AJXKSWYFItuK8LqtA3jbq67DY7sn8U97s5jKDSOT5U6EBMl6DP7ZajXgRBH6+8roKRdRq7Xgei6KxQIWFirIZjLm/1wuj737DiGiPLSZXSaJMMwDTgNR3wR6+zfj5y8/iNuu3ALHr+OgA/w/3weOTJGBVUF04jF4bQDromVgUfCpZB944AGjpJ9//vlOEdTOdGunWUmxStg5gWT8y5lTjr5y/eWk2VEdGgW2oWADWLwGlTKjSzQCWceChqFYXgLKpHSptJlyQeCBCvt0hVPXaqakANZa9eTqzpNcwO2jtSDbDB5FQNlOn1O+mHJG4Ippsffee69h8fB4ys7rX/96fOQjHzFOiPVIAazVDdUZF3EXOKRotSLkGrcHH3wQ3//+941TQSeCTgPb2M5lkiFlR3/tn5EEsJb7iUn2hM5vlF87DdAGwHgvjLATuCIAQSeC65jOY9fG0X0vc+2UgbUKueMYMN2djBxuMEIwQmmlSg8UUKXxsp0pjU9SXqjjVOOKMqcaa7y1lQw7yZgCQRxvyThl5OabbzaOKoExPpR6yOPotBIEfec732mYyAwcrfNjQwJYrH31hS98wYy9ACw6/bQHBAponLSeyLgXgEUgQUXcleop2VDBfdUrk22jQu8cUz7FyKL9wrGVDXPNNdcYMFIpoaqLZwPY3QEB6S6Ekv8zBbCWAk9sYEXOothJvB7XkrvvvtuATbQVyJrk9SkHtE1p8/I95YHzmGsE23GdYCCYgBNlR8FdvmoDB7anvNmAKtcbsfp4PwJQeU2xSbkWEBQTEEUAi/LOchu8d7IJeV9kcfJzBoLJ4Eqyku01b6m1xe7nLoCmJZcnXWOjAFjUEX/+F//3GS+1pmhzl2yd1bQ94xtKHLg4jklGUbu+Mz9OlHrmffLR7e9K3itl8T/8xq+t+BMcx7nTdd13rdhwnRoQwPrXStodAOvUvloswt3N5RcBqxiQstcem/lp26EEFuPH4gAkbRQLFbx/AAAgAElEQVStUSpXoFqbuicFy2wAK0nusPWgAj428JX8fUvN/WSbMAzfn8lkNhCAxSLpjgGNkB9GkSmEYRP5xiTy8HHTtnFsHx9Fb8bDcE8ZfsZBreVjz4GD2DXXQLT1Opw8ui9e82dmcMNlmxHMHcXUQoSD3hWYzY0g204hDLG4KdjiboOLJUgMPGqKuOszFwQzQ60jZjfreAaGDuD2jqF309V42+hOvHZbEfkoxDNBPz73dC+OH5lupxA+Dqe6Bw7rYZndlsnA2nHxFHHnRKAz/81vfhNf+cpXDLuBk0FRRSlMgVRc2FXU1jbMpbz5GSn7VL5LOQZJBSZAggpaFGwOERc7glesJ6GCqLZxL4UudgYVNCPZZGOdi3TCFMDqZvle+zbLRSJ4JU5QGndMAyQgSwORxhyBKMolDTzKKbe9/tKXvmR2D6Is09Cj7N1xxx2Gfk+2Ax2OhLOYAlirHM4zZWDZAKQuqUg1U5mZysH6I3QQbPaLlLbkQA6IzXyR/Oi8NiCq9Ww5R1Lf2+ATz6OiuzqnjHUxbG655RYjW9wYQPX67HtNAay1Y2BxPn/qU58yjBztRKcx5rjYO8/ZRqOMBtvIs7/nuZgaxKeKfNtGYjdTQwAWj1MwhuwNgpvUt9Sx/E6sZZ6TssEU+Te/+c3mqXS4bq53hm02JID1mc98xhRwJ4tW6eJc/+ngq/ZQcn4n7ReCnQSwCDbwoeAH5Ye6QLUpBFwIjBBzTmmGWh8IYvHaPI7gNUGP66+/3tg01EmURR6r4vApgLW+KYS27ZkEMW19oGwCzVOOM5lXtCnoqDCFkPJg2wf2GiPZ0TmVtkwQjPWzVFeW465r8D3TEgl86Vw8P+9TKc/aDVNgKXUJ1w1+r+AbGZ2UOc4BsUUJnHIevP3tbzdBXtrmesjuXnSa4jGwZXGpNdFeW5Ltl1p3bB1sXDCbmpJIl7LHwjrXOWVgzc7N4Zprrj/DJdRyShO/c6kTJoGNM77oGRy4mmuvZB+tdHmmxz76yAMrNaOtfl4BrFar9TtRFH3YBmxiZnS9U4ag1eKOpPFPYf3MWJ6JC8QfLoLgMeigOWQHOTUHNAc5n1kHqVAodlhWyaCLPRd5PNcmsa9U19def5IAlv2bbF+K59V6Yq8F9mBdjACW67GeFAEsD05+GKUi0/NaKDePIxcGGO/rwVXjmzCcy+Ky4QHMRU3M1Zo4fGA/jgVAcOnNaFWnMTszg2NHD+Paq67AM08/iXrgwR+8GpXsKHJuXAMrdHOIoqBdJwvIgMwsB5Hblhky/X3fpAvyc5iKWZKxWI6MLCGE72SQ6RlCcfN2vK53F1434WCk6OL7MyV8Ze8I5o5PI2pW0DrxJJzqbjiteYRBgCAMLh4Ai4qakWoa+/fdd59hXtF4pqCqsCgnXFwbZK6zo5IdIbaNQE4ITQRNBm35a09qezJrsomNpegpDTwqXtKh2d5mV9jGghYBXof1J+gs8jg70rTiinkGDVIA6ww6bQ0OETihcdcCzf9pZLJWxVe/+lWTWkbnkA7DbbfdZuSaDEPK8fe+9z3D3qHDwjlAw/Ctb30rfumXfsnIm3b1SWwOkAJYqxy/MwWwbINYzCqxRLldOQvoEmi3jX1buQqk0O3abKkk68aWo+UMtCTQIcaV1jsZIHqVTPL6jLrTcf2xH/sxw+wjW1QOLtvZzLFlujdlYK1C7mjM/d7v/Z6Z65z/0itJQ1BzXLIhh9aWFRmEApUEYHGdEYM4mW6UvFXbUbMjrqqfRUCKDD2l3vN82sFX90zWDkH1d73rXeeiFtaGBLD+6q/+CnfddZcBGVRXikEw9i+BAPWl5pxtpHNceAxTruxaegIXOIZiVGnXNzGo6ECoqL+CaZIJvlLOCBjwleACGZkMslEviT0jADwFsNYXwFpKHwhY0VyPHdVGh03Fua7NG/he9qr0iA1a2swm6Qa2V9qgxpfXIkjK9YTnpAxxrSLDUwAsj6NMkr0lQI1yJN0ix5XnpmzxPghcUU55/yrFwXbUOZTbm266ybA5qY/YTjIs9oX6Qra6+svWZ0stxT8qAJY9P+NizUsTGeSfrEJtnXHTs73WagGsbtao5X7M1i1b8MgGALAajYZJIeRvVaCJQfH773+gvdv1pJm3WjPYLvBjcED9Yx8rcCsMA+uYzuwygAbn3vDwEG655Va87nWvNesBfWCB1bIdkiwqlUIQgUR6zQ6KitmZPFZjr3OrpvUZC2NMIthQDCzXIyuKeIcHJzfUAbCyzSkQ3NpU7oF/8iSuHOzDtaNDqIVN1H0fM3OzqPT2ozZ2JbL5PKZPTmPnM0+jr7dswKpKrYVGcTMWMqPIux6YqJjvGYBHBld1HmTZXbJlHOVyEX4rrtkZhCFq1Spy3BymUIAftBCFZN/GKYQLc1VMHp/HdKWB0I2Qy0RwmtN4043j+LevvQnZuTk8cHAen/72E4gygwbtChaOwFk4aIq4Uz7DoHVxAFhUcjT2SLvfsWOHYWFRwFXLQQpUdGiCWHZkeKmFTIpOxdepWOnA2UivFlwZeTIIxL7iokDDk/WHCCYQlLIftjKVEaEJqmg1FTVrFCxVb+JsJmfiPi5IGt5qf190NhpptRdbg/Zy/KQgBC7QICQoxQj6zp07jaFHo41POoA0Fsm4YjsaiUwdpExTVsm2es973oPbb7+9k4JKmaLsWo8UwFrl+K0lgEUGDAF2pnGQgaX0DImvgAeBV0mwQClb+ny59SsJVskgkAPM/wVA2UC6DA2BWJQfOQhcyyhbb3nLW8zuqfzcBv5TBtbaMbAIYH30ox81tZC0+5wMTYEXdhR0KcApGZTh/zQUKXNcNwicKnVspajkUnJmg6bUdWRgUV64NlH/8lpiD/L8LET+pje9Ce9+97tTAGuJNYhj/olPfMIA2wQblI5F8IpPBSI0h5Njwr5mn3NcCWCJ0cL2Wk84LgKvOGZ8r+Ac1yY6NAIObBBUKYU8F9/TniGIwLQusn0JatnryUpL7MVcA0t24lJrcBJU0bps99epAMOLzbOkHapj6fxxDCk3BCMpB6pLxc+1btiMSwVqZSfLLuWr1n3pGtoRNkip9UfpqGIM8rq0YbRbLWWPuyLTTtExtGMoZ3wKhKL8q394fekTvpL9R3nle/5OOsXMVKCzyt9Auad+IlOdAJjuVUEazRk5v8utdyuBWEkZX2ms7N/THqfzxsDq/GYGnALf3I6ky65pFNctOnUGR5G72FZf8aBEQ/sw0zdOnLD3opLhy3kdaugsgsBK+TPn0Y3quu3/WV5HAEs8p+KbZE0f+x51L+Z7MY+YfEW2SCauIxSve+0vmQbnuOCvd4LA1PHZunUCjzx8/0pL3HlnYAnAkq9B1uRf/uVfGgCLG7xwHvl+2BlXP/Dht3zwVSlg/DIIoo68hBHTtwRwxX3EvrLXPM45zte3ve2tZjOHX/7lXzb+iG17JuefACzZDFoXbTD6dACWxo33IQBrJZvmdAO48QCsjEkhzGUzMYBV6oUXNhHUjqM8vAnZECi1GtiWdzGOJnJZz+wgWBzbjO8fnkYwvAmN0EW1UsHhQwcQtJrIuC76BgZRyw5jJuwzuxByhri5MuBECP26mVr9fSVkPAceCnCZKhihDWDlkM1kEUZxWrmAxlqtjspCHdWQEFkDbmMG2bld2Doxire+7vWYyBbx3PEpfO7uO9EsX4LIK8ALWwgWjgN+xcgiAay7d9x9QWIXTrdgBCcgASs6gt/4xjdMShUngKI5fKWC1NbhVKCazLbwSllSOak4JCeCnH8BSEkHQsfZSkrKlIsgDXbS7KlUFT21o1vLTSABcIxyEsRi6kUChFhx8ey2QcrA6ran1radouVirlC2qGDosBKQpbwQJGD6KRdkOp1k7fBJmZezQqOPddNovP3kT/6kiUpqowAZkDZ7EEAKYK1yKNcCwNJ6wrWIOw5+/etfN4xROoxS/pQBrl98KhJlrzm2s2Mb2raitg315HsblJLC5/lVB0frGdcarnlqz//Zjk7r6173OsPyo5zZKRz6facxGlIG1irkjnrrj//4j816oKL5GjMZAkkAS0DkUsCG5IXHcC3hGiMmRrdOmG5f19c5BYqQkUO5IXDCNtqNUDJB+SF7j+sUDdp1fmw4Bhb77cMf/rDZfIbvxY4jgMlItoCCJICl8dBcJmhBAItAovSLHSgRK51yxTnM/+Xws50K6iqt2S6roDWIYBqdE4IIXBOog5Ti2E0s6WICsIIgOARgYtGvjx06G8Cy10U7KGE7deo3Gxi213zZmfbar3MpjVPlBcjgpq6hDMSOqt9Zr+1r2gGu5D3LbtA1tLmQMgl0H/yf75V1wPZkhfMz2iIEzxh047qjOo+UT+k52bZkbmmNE7Cma9GWZjYCHzw3j2GGggq/0w6irU1GINcWfq8AtM5hM4uXWnsE8Nn9LwBe7XkOW76Ta2dy7DRmFmvknAJYlIFrrr3B3D5rPtHBzGQzmJo8bpgNa7MXXUcztFGhDixG2Kd97bjN4jfWlS3QanmdsCQMtoiMtYtDLx6/Ot+Wa9fo2AhCprMFQK1GJzkwaVFuJouM6yGsLphfsGXrZjzy8IWfQkgAy3Ecw8DiXGPGxkc/+gc4cWI6TuNiHe2QAFbcV2S2cIc3BS4oHSzSTWAELLqNKAa3DCrYfrR3IeSx3O2Y7CzWOyLb5pprtpu5+PGPf9zYi5wDWksEBOs0NoBl27zdAlj23OWaYAd7zsTO2LgAFhlYwyiXekwNrGDhGFqZEuBkMJgFbrl8Ey4vAgPFPIpZF4ebOfzDQ8+j5lDvx8AkwSEnolxEyBdKQP82TAc9yHtZMEswcLLgG35vJmAYS0hk4C0B1vxssQba4hSP5SluG8KNmnCCOtzGHJDNYKRUwOXDwzgRAM/v34soUwZcz+w+6FeOIgpnTf2ryG/hmzu+ubpJfiaCcAbHdAVgsaOpBFnz6pOf/KSJKNusBEVeBGBR6dkpDbovThAKvApNqk4VJwQXf0WVBDgoQiXDQgrNVlwCDghcUanScLejXlJqy/WNzknDg8e/4x3vMBHrJHXyDPr2RYekANZa9OLqz0F5UgqrjM0f/OAHRuYIXDKCQQdBxiFlgTvWUdYZ3eQiT3mmwfbbv/3bhl5Pg05yKWUhMNS6wxTAWuVwnSmApUiVlDX/p5HO+ldf+9rXTAH3aq1mTIOAjmOrhWYj3kUuaDYRmUhYW0kYQ+LUnVtMdJO0bRNObEdIXUaus3BZi49RbJO2HKcuZ8wzYz5zXNc4FrV6DZVazUTkaLxlcnkUS6U4ip3Pm2NMfnsUmm1xX/Oa1xgGFgtxc62U8yy5SwGsVQrXMs0pA3/yJ39iACzt8sW+VXoXD7MdYemUpZwrGyBlOzqSBMvp7GqdWMrxWumXCECjrqW8cJdK6lE5qfZuQjw/WTpveMMbUgBriY5l/3A8fuu3fssEKagb+Bn7VjsQClCwASwbdBAAbtfA4hhpYxnNTekUe67SBiLLiyCBmJVy3rlO8N5UI0tBPh5DG4esOq4JHF9+9qMGYPm+fygMQwNg2XPU7mf1dbJvZE8ushosF5ysEDdmhSTntwqgE6DisbSF+SR4KVvVFjMFJ5L2q1gNdrBDx4kBZQNxAoNsJpOOtV9t+1iMMNXyo1PLlELqQtbhEtuQtg9lj3qFv4v2ja6jmnnsP7LTtTkSZZvrDNvSRmbGAucLz0mnmPYzg4HaPZftBLjzfvle6yPb8560+ZJSt+35wPvR3FRgR+CwitjznLym7HieT+AbgPMIYAF+Jo96YRhhFNelEYRlA1mLIJPIS0vvMncKs0mUJmOTkLUUu7JGJtqurrFS2uJMm2KRvLUo4/zQXtNigzaWSAIjHZfYse540U/uNI6vGh/cgek67q7oWTo5b5ZssQ4lyzjYPNIcza+qC4hOHDAO/MSWiQ2RQlir1UwKIceAOplEjz/4gz/A3FwFUeQYAItMq3h+swwE0wdj9hmZVmYc2iy6eNwitIxesgGsuH/YnuwdszOpYU+6uPzyyzA4OGDsGNqLdrZSCmCtZF119712IWSaYMzAagNYxR4DDhHAqkU5OJkc+jLAq7dvwY1jZfRnPWScCLumfXz2B7tRCVudrSVj8CqEiwjZXBHOwKWYDvLIezm4kWMALMej8MQygaBdNY1zVxXUnDaAZT7gnLYTlR3DZHSiAC5acAI/Tg30XJRdB5t7ezADD5MzM3CcXCyfzXn4VQFYLUS+v3EBLE4sRo+5U88//uM/grt5iX4sA0K58zS8tD29nc4g8aCyoTJUMUsht0KhNdHEUlCtACl1TUotuopE0ZDX9tNUvkkmxXJGnowAOQfamZALABXqWu9MmAJY3S0UywWJOspRk7l9uo5yjmLlYBuhfN9sNlCpVE2h9oceetAojt6eHlx9zTWdYu2GLt9soeW3jJH2zDPPgEV+WReH8sPUjZ/7uZ8zDiGNKcqwjGZ+rwi6ak607yEFsLob8k6rMwWwNIdlhPN/OhmPPvoo/vmf/9kUcK/U6/AdwI9imWjWqmhUK4gaTbhhAO4t4jkRIuZ9t3fvMNEz3p0bg1cEpFxGKWhuGePRg5fJmGeWoJUbF3fMZ+NIYhxlCTC/sICFahUL9SYq9QYCFlbM51Aol1Hq60Op3INivmAUDO9jfNO4qXtDZ5WMCwFY6qjTgFdskjKwViF3ZwNgJXXLhQJgMe2HANZP/dRPpQyshCzQPqBj/ju/8zvGnpFTTB0g9omt+zXXtMbIDqHjTyecDrzNgBNwYYMMNmhpAO62LSQGplK7eKvapVkghGwp2jbcfZK1zfjKMf5RA7BardahKIo6DCyBN/YQazyNyd9mZ9lOnD0WybHlMWJcq66VCqUrDVhMK3t87aCp3i/FaFjqGKNe2mkfNoimFPPlrrMUiJW0fShnlE8Fl3lOFZJX6jFZiLTv7d+tfuP9MMDHJ9+zDwja0nbXBgWcT7T7lVLIQJ+AWNpDtKdpn2vTCd4PU/sZXCIQRcCJKbJsJ1uKr2K3i7XIa5MRz3OzniXvl0AusyY4N/ien6lW4fkEsBC5aOXKqPVtRgQWfV58GDtW+I0AI8Q2Bb9wnGCxsYxbpvnxfTtbhaxKA1yZtLsYQoqDa21H15QtWASrFu2FNtTUAapiR3jRbI6/8NrAmPnHgE08fwwam/uwDumArnTF24CLua/OroTxfRsjysxJuzPa17cZY3NT8A8+a2CtLQSwNkgKIRlYArAYNGVZgmqVhdtdZNwM+gsFlPM509VkX7XgYKEZoNVOFQzCFrKmjITHTErjx7b8IJYLa5MEzsNKJa6Dx8LwHJ/x8U3o7e3Bn/7pn5pMIs4fe00y49bueOoqsUftwJwAdq1H9rpk251spyCACClJe3QF+/SU+bDRGFieAbBgxgm5UfQRQI8aCBYmUfF6ceVNr0Rvfy8GClls9udwBaqmGPudDz2Dp4/PITA7RrZZjlFofA8ypMJMBpn+61AvHQeyZGZ5cEOvXbD9VP6mydZ9kY276DkzybAzsc2cjJlbiyxNJwZM298YCMzkBgOYm2PxLANcxVl0GzSFkAJPYWd9ILKvqOgYUbapvorIUClpq3AKLwWbxpldq4XvtcsOlQwngtJ4+F51AAwrIgjM8TqHDBVFxRXN5v907qggmdpF5czj7euuZOSp/gWPpRKkImWNI4JYq5mIL5KnxAcpgLVSD8XfawvQ5ATtjKPR3TFLJpYLqVOj5TsXkTNZr9cwOTmFh37wEHY+80yHwbB58wQKxUKnVgRz0glg0UAlY4c7bLKeBGWJBbU/+MEPml3h+OAWqmTW2BFFzoWEzKQAVndD3ml1pgCWfRnJCZ1Lsmq++MUv4vEnnsBCrYqmwzhEFO8OM7+AZmUeTrOBXBgi5wI5GmuRj4CRMdK++W9sI8LzHMOqMgAWoyORA1a3cDMZ5HJ55PlKAMtzkTUGXIRWo4lmo4Fqo4Z600ctiMyzyTQQ14NXKqHY14fe/gGUS2V4vo+sA4yOjBhD5Cd+4icM20bbp9uGxGm6NgWwViF3qwWwJF+a+7FRvmhgKLDCz881A0v3IgDrp3/6p1MAKyELXKfJxGXhfjJx1We0KbjzH+0JAVg2Q8EGsBTYExPH3tmU57NTqGwbwn4vm0cgFl/p8PPaSlHkNVW/iOfkjnBMJeTucGTAdGOfXEwphNVq9VAmk5mwHTINL/uH/WaYCdYudXLm7M/sfhNoQrlgXzPDgKAVwRV+xoCtHDbNc9vZE5CUBLGSAFYSiLLBqiSAxbZJGVoKGF3KcbTPpWLw/O38DbS7beYefyvT6wkmkVFGYJd9QH2jMh9isKufeDzXFwFhbM95oHo4BLK0Aznvhf8znZnvyUYlCKVi9DyW/czatUx9ou2lurm0w/k5WWT8Hdw8iqlZdL7pb/B8ZIJxzpJBz5qRqtPVlonzxsCiheoX+lAfuoJhsUWbNF5sOumEMlcXWUyxo7nIhGr/48YWr6kQ5caMqpjM0wawzC5k7cPaO5QZh5Sfd8pnMWrGe4kZUEYejXFj1a5qA2MeAbX2Ncwdsb05T+zoRk4El7/DHB7/Pt13zAdpp8TRRjbHxgCW4bjzoDaxyPCuOlHCuJuCmWNovPC4uf62CaYQXvg1sLgLoYq4U/bpOxDAYnokAcyCm8GVw73YWi6YXmjQFsyW8OzkHOZ9ejxkYrXMbna+3zQgYW9vPxr1JjIeg6EZ46ewgDc7b3LyqLFha7Uqj8T4+JjRW3/2Z39m7EY+bOambaNwTSPgLNa2rf+SbE97DbPXL5FOtJ50QMw2K7AbvaRJsaEBrPwohnr7kEUTwfwU6rkR/MZ/+a8YHh+BiwBPffdetF54Eg0/xN0PPIZqmEXkknPVzvZAaNhRHEP6A+jfjujKffAmFsy8geNb6YGLhkx7ise2i5Di9jyPuYyWH8xr6NBOwbr4A0FY8TsG8h1gTx7Bsx4ydeqMFgis7rh7A9bAoiEgBce6V1Q+2rabAirlTkeRCozf0QhTEUgCUjLExIqiguFEE+2XAJYMNE0kTSztxGPnwivNkApNipXnI3jF6Kl2ZlIBTHviLg6/JQiua34HH7yOdv5hkVzVRFrquDP5LAWwTt9rcgHj5XwRYVb+bxjEVFumf2UyXjvly9R9NPOPyDjnvIkCOS4qCwtxobwjR/Dcs89idm4WoyOjxji78oorTdoWFQVpvK02pZ2y/PwLz+PhHzxsZJTySZl47/veh5fdeGMHSDAMHQOExDtwUi4ZzWeKh1UHKwWwVjlR1gvAooE+X60a4IgAVqtRQ2t+AX61gkyjgQJCFD0HOc8QvM0OMT4Lasp+zABZpgR6WcYijezx+xYVdiYbA/MEsTwXmSiET4ZXtYpGoxkbJOSFex58N4NKK8Rcs4lKEMErllDsH0Tv4CBKLJIb+IbFlQJYywtOGIZfj6K1K+K+GgArCVTZYJbuOAWwVjnpV2jebDZv9jzv4bU6K+0U7jj7sY99zDA0ZSPQZqANsRSAxTXeZnnyPZ0AOvxi5tjR7KXABxn1NvApoII6Q+mhqomnOlxknKjGFlnidNZ/4Rd+wQDb3bDEL0YAS+xnjR37VGAN7Tkb7NG4JAEgHitHTOAVwRSm3NHuFXCVtCF1Hjl79qsNZp1rAMtmTQlgo1wp4CwAS6l8/F2UX9otrBVJ24fALtdDMcx5Hts+5+8zNYxGR43O47kpn2Rl8RjKLOVTdXZ4TwSZyAblsQcPHjR+BOeOQC4ey2OYgqj0Wd4bgVptWsBjCTYTwOIYqfYfWVq8F9r/LP/Be7OAwfMGYNFuCHuGEU7ciLDDwFp0F8nQik0LtnSRzZn6BOaTlk+WOB3XxTRAL8PyAh6iTB6u02qnnMXfxzLXLuLu5gyLx8h22zHmV64bIXRCZF0PhWwTXuQihIca3eMo00kZNNgSwZOoaQpPE4pqOB78KE9oybRjbS94FfRGjmnrm3QmB03kDajV5pEZGz6DJhw3C4+1ofhr26CZMuPsZArVcm8e24f5x76DKPJwyZaxDQFgBUHQqYFFuSbr//d///dRr/lwIheFyMG1o324aqAE8nfqjQbquV48OTmPoNCLfLmMcn8v3LCBg0cOYb5awSWXXIqZk3PGrxkZGjY+BplWYejjiccfxfT0CSwszJtxnpjYjJ6esgGwyNhPBk2kvygXPA911nIAlo7VGmIDV0Zm27qQ6wnXAHvjM3uNVdsu9Pb7Hcf5+y7andcmdgohbySbzQD5EYz0DyCLFpq1I2jk+vHvP/CfkOE8jIATR/fhW3d/FZVqDdMmndSNN3bJ5dFoNjBHphPXACdGdLP9V8K/8QD8iQWEbb824nd2Gm+7iEmbwxXj0cYrcVDMFoyfUWtW49RU4hpk46nnDFvzVDaX0W+Er7xYVp2dvYgeA3IM3IRN+KGPHTu+9WLC13kdjfjip62BRcVE5catph977DEDRlEx2YYVlR6VPSMiMgBJ6SUtmBOEE4VPGQM8lkqH3yuFkOfVhOIE4P+cPASwBHTJCOE5VQSV7fik0qLhSUUpI0YGZNL4SPa5XTOH1+B1+RkXAbJtuBvdWhV1TwGs00t8EsBSaypFU9Sw1WoXymVtBKrDeE6x2CEjFPlcweSZc4FeqFTw/K5dJpI6OTVlUr8oIwODg2YBzlMO+/sRRo4xwGhYkUYvijoNJwKYlAeO/y233NLZHMBMHGM5xNtW80G5Y1SR8mIZUCmAtcpFjgBWJpPZn1SiqznNUgwsAliVajV2QknNrtXQnJtHUK2iEPjozXsYLBfRVyoin3NRrVYwvzCPWr1lgKpiOYe+3n5TsJERx2qlirmFCupBCMekZZQx1N9n6MSkBM+ePIGTkydQrdWNTPYO9KGnrx/I57DQaOHwiZOYrFTg5Aoo9Q+iTCVYKCCgWZlxTW2RlIG19KhfCACWDUIkdYycYn5+roqQxGUAACAASURBVBlYui+bgUVZWufHhiriTjCIKeI09snq0IPrPHWE2CfqSwERNoBFu0MF3LU9utYdmz0jI96OUOu8Nhgqe0W2DW0j1cii7UQdxQc/o030q7/6q6agO52HlR4XE4DVaDRMEfckCCinSnaidLDAGxtM4thpB0GOHW1Y2gl8r3pXYm0tBVDLSbPrVi3HvrL1WBJAsxlYOlfyM/u8yeNtmZKc2e079pO1K5VqTAnsYv9QvpS2SjCJAB7rZbE/+D/7RjsravMAAk18CEik3DKNj+enfHKOcfMKnp+fsWYoX7U7Iu9dIBbHgywqMq0U8OZ1KdvMhOB37B/uBE3wi+dkW94T750+Ce2un//5n8d1113X2aHzfKYQmqSdnhGEl9xsGDinZM0ZczZ2I7MZB8N9PXjJ1RMol7KkPOC5fVPYeXAyBrDawNTwyBC2TYybFLRm0MLJSgP79x8wJQ/inQwdjE5sRb7ci1KeLJ0I0yeOYW5mCqGplRQzyUdKPgbLJ5D18gh9FzOtEhYaefghUxh5vdiR/jfbx1AscG1xsPvYCeycYvGddl1Qx8G2/AxemiNTyIXvZdGIXDw032NY6UYWyRaLAoxkW+jvG0S9VsXxqo+Kl4tZX50OietD8dEBsI7swewj9xg3fZsBsC78Iu42gEW5JAMrBrCYCkYAC7hupBfbB2MAq0q5zffiyWPzhqlX6OlBebAfTtjE/kMHMFdZwKWXXoaZ6TkDTYyPbTJB1c2bNxnA4/HHHsHJk1MGwApCHxMTceCFKYRMx7XXEQFQWhuXArDY/6djfNo6ZjkAywa6kmvTCjpqQwJY3IUwIoA1MIic00Ixs4BZFPAbv/lfMT6xxVTuv+/ee/CFz3za+K5mZrjAyNAohksDqFQWcGzqGFqmsBXBJg9O/3bUX/IcMpdWDcbtBa4Bm+3HqSm/8TcsV5LL5LCpZwSNoIFqUDMAWaVZQ5AhOB63i8dF7K/Fs8ZpzS7c0EVmZx7+4wG8Ouu0teBHTezYaEXcqeAITP3TP/2T2dVE2z1TwUgJEnRSRIWKhEqFTj+NQCkoKixGS1QoUgqNBpoYVlR+on2rvoQALLYTA0uRbUUr4/zM0ABivLYip3YkikNkG4qnCEI7r5iKUuAc75vn572RvkwgQ6mJNqq9ktG41PcpgHX6XusKwAoCVKoVTE+fRJ2AhKmOCAwODmGgb8DIA8FUOiiMJioCSCdOxT3ZRikB1XpcTPSRRx4xIKqKk3JXQhpkNNgoD2ObNhkgomMgkhptik62qdjtqIQ2NGj/0hTAWuVEsRlY7FsbiO72VMsBWLVK1UQImabXZKrC7Cz8SgUlACO9JUyMDGN8ZBA9PSVMz0yZ9e/kzBxqdR8Dg73YOrEFwyOjcFn0cHISR44cx3y9gcj10N/fh4mxMYwND8EJAxw9dAiHDxzE/PyCSRnYvHULRsc3I1sqYrbWwK79+7FvcgrIZFHqGzRphMhn4XtkdGUwPJoCWMuN9/kAsMQg1j0lQYgkM0vG4vkAsHhtAVg/8zM/Y8DQdX5sKACLwBPZHH/zN39jUsS1htPW4CYwdlFoARky2vU/Axc8D3UHHXGBWzIS7XWLx0o+bCDFlhmBE7JXqHOor2gbqVA/7082zgc+8AFTC0tpXKcb34sNwGq1WqYGlkAfjoPqIhH4oL3GQuKqncR+FttHu2SrgDj/V60rlZJQloDYbQqKatt5e8MEG6xcDsQyfksbRJKTJ3aDxi3JdrAdSsnUUgCWZNdur2tJVgUyiaWma/J8qoMlm57f8ffxt3LNo55jXyn7ggE+AlwEp1Tmg2UTeLwKrqu/2be8NmVUtpf8CPUlv6fNxXnHh9hetN34HZlZlHkez3ulP6EsDJ5D7ESudz/7sz+LO+64wwZ1zwMD6/p29zqIBsbhbL8NcHLGRm3HYWO7MYwLcvf35vGGG7fg//yZy7B1JIsoauF/3HUUH/vcc50UPo7Ta17xMvz0296E147n8MJ0A3fvmsTf/88vAKZ+DiEOF7f//LswNDaOrUMDKLgRnnjwB/j2Q0+gPn0SjhPX2Lpx8yQ29+5EodSLVjPEyfkteGF2GDONvPHZilELWQT4u198I5Avm1qgDz75DP7iwSOIPM9Qvog/vbewG+/09pigYM/oGKrZXvy3Y9txMiiY358NGsj7Ffzvb3kFBgeGjTP+x5/9Co4UNnVqfcVr3SKAZTIJWZ/00PM4+f0vGzc7TiHcOACWAGHDwPrI76NebZixKUUhXjJWwkvHe5F1QsxNz8DpGcEje6cwE+bhFcpwe3pZCQmTM1OoN+qYmNiCeq2JwA+xZXzCzLeR0SEQOHnqqceND8RAqx80OwwsFnEnc9HWJ1o/bACLa6bWO61h2jFXa5TtOy9l7/B8KgtkmHntTYzs4IKt706jozYWgGXScIFsLoOoMITBHqYQ+uh1FpDtHcbb/t0vI9c7ZDKDnt/5GL78uf9pdvMz1UmcyJQKKWaLMUu1Nm92KjU7uRZKmHHHULtmJ9wts6atx3XCIUNysfdi+MmqQxdFyGXzKBaKGM4Pohk0UYvqphzOTGUGjreYzxSXtkvWvTMjbdJ6ndCF+2wW0WMOwqZvNhsIAx877t6xsRhYFE4WPuYW9Lt27erQBqUwKfykHzMqwlcaV8x1Z7SEgBCNOj5ViFK0X0VNeB4ZaQSg1I4Cr6gZz6kaWJp8fNVOP2JqMWWRYIOo9wK8BDidDsDi71DKl0ANHidFSzYZ6c+M7HQT7Ty9IWmL4Tq7FOt4+mi5Dl2ja6oGVud07X1oKTs0rg4dPICDB/bj8KFDZt4NDJIZ04ve3ngbaUYPyYYi+EjjSLtdUnYoh7x9tjt0+DCef2GPMdA45nQICL5SfihTNIp6envbu7vENSQM86pNH2UxeHWFFvNESkcKYK1SJqIo2hYEwX7byLajSd2cbjkAq7FQQYapJi0CWAuoz86itbCAsgOM9fVh2/gYtoyPYmCgB1NTk9h/8AAmp6axUPMxPNyLyy+7FJvGxuE5Hg4dOoL9Bw5irlpH6DoY6OvHts2bsWlsDG4Y4ghldP9+VBYqJoq6ecs2jG2ZQL6nxxzzzJ492HPsOCIvg3JvPwp9fQhzGbQyntnidmh0NGVgLTPY5xPASgJVSzE0+Nm5BrDkPIr9ZTOw+H6dHxsKwGK5A+4S9Q//8A/GtpGjT+CCjnQyaGYzsNSP1EMES6g76FTbRrsNaiSdBxu4sANitsMhu0bFqGnoUifRiaetxLa/8iu/Ymr+JGvjLTXOFxOAxRpYrusaAIuBKtY45E6StEGZFspAKW1B1gpjX5HFSl2u+qzU/wSz7HnMMaGNoKLhAmA0h/m/6pPJubNT5Hgv0lEaRxuQ0vc2Q2EpAMsGqHTMSgyspKOavK7OI4BV2ROSS77atove2wwKyh7tJbEO2dcM7mg3RhZkJ+DEvudxlFsFgZXhQHuMfcaHgEfVzGJ71b7iOqZgAeci7Tf+r00P6HjbKY1sr10Sf/EXf9Hs3GtlTJxXAAsDm+Fc+1ruV2Z+d7uWsnmv8RjozePNN03gv/y7AUwwzuAG+Ltv1vB//cNe0y4m+jt4w6034b1vvx0/vi2PZ0408OWnj+F/fPZzpvwFGU3s97f8yrsxODqGy0f60OMCj9//KL76/adQn5o0dTvdyMWNm49gtPQs8qUeNFsBFipbsGt2DDONoqmXVYaPbOTjb993G2pO0dzn07t3488eOGSKTJv6V66D9+efw5tbzxgQf2jLFjSKA/hvJ2/ACZ/sLyDr15H3F/DH//6dKORKKPf14D99/P/FkdLWjiMf90OnEE/MwGoDWCfu+5IB+jYqgHXnnXe2AawanNBB2Qlw47Z+3Hz5EHJuhOnjx4D8AL7/zGFMNjKIckXUsyUEjmPSvyjXrLfK+lfDQ8MYGxkzDKxCMW9SO3ft2om5OQL3VThuZJhZXMM+8YlPnAJgKXiiAAz7PGZgzbf9mJxZu5gOZ2qmnfKIA/R62DqO73meWNfxWILhXjvgHO+Et7jurWh9bBgA67vf/W5gNkuIYHYRDwp9GO3tQd4JcPOWXlxx9XaEm6/DyNU3mZTgu77w/+EH/3KvYTfB7EbqG5AycLixQ4hizsFlmzah6HiYbTawv9mHxrV74U7MxwwsdqSbOaVie3x8vNEDNyg0O5d7HrJeDuM9m1BtVDDfmjPkjoZf7+x8uTiSBLwXdVa8OJEBGW8uEe3KwHukgAZm4DQdOM0Id33zro0DYFFhUNFzJwUyU2ikSXgpqEoNpNJiRIaCTGVDAItGFpWdttZVcVMZ9VQ+AiKolLTDiWpWUbnJGKcSTFKebWNBObiMMDMKJOVs1SCKx+aUbS9OnUxi48TosWcWbCpTGjzaJpn0ZNabYBoZI0KiUdsG6IpTNKbvXZBC0M29223OF4BFR4EFsfft3YP9+/fh6JGjBoceHRvFQP8g8vnYEGK0kDLGmgo0SlUYl3JFueYYc3z37tuHQ4dZDLFh5IdjTCYf5YeGE5/FUinO6W87pQKwWJPAdl5TAGu1UrR0+/UEsOoLC/CCAF6rZVIHG3MEsKooRCEGyyVsHh7EptEh9PWWcWJ6CkeOHcP0zDyqjQiD/UVs2TKO4SEWZ3Rx7NgkDh05ikq9aeo69JR7MD46gpGhIcPymjp2DJNHj6Feb4CY1ADliXVDyj2oNJt4/uAhHJqeNvWzyj19KPYNIMhl4Gc9RJS/FMBaVqAuBAArCVwlDb1zDWCJFZIEsMjASgGsU0WJrLivfvWrZnMHBuAEYNEB4CYudIjFWmF/LsWaojOuHQipc2w7Q+wrG3iX/SQ7g+3lXOi9gC/drQJxcuDJZBED69d+7ddMvcUfNQZWvV4/VK/XJ2h7srwFC5D/8Ic/NPrcBpyowzmOzAigbhf4R3vT3lyI9oHsOc2deHevuFyBxs3ebUs7Rmp8ZM/qeDGbBN7IZl0KjLLH/kwArCTDwU5rlBzZciaWhb5TwNi2q9k/SfDOZhjyGPkAtPMJAnO3ZrLe2Y59TDnVgzYXASxt4ER7jDaX7GvaZZxD7GvNHco1g+F85fHsY74XEKlAIceKc5bj/L73vQ/cAdHq9/MKYDmDBLBe/yIAywYCSjkXN0zkcfv4C7hskGBcBv9ybCs+9UhcqN3ESx0HN77karzltltw66Ys9s428b090/j6N+9BYOq9xiXgf+mtmzA8XMC2souC6+KhZ6v4+hPTmFqI4LlxafVrR47hsv49cJwMotDBkfnN2FcZwXyLzKmYgZVBiD//tzciUywZx/n+J/bg756aQsD0P4eVdly8FTvx+spjZufu4tAwqtke/Ll/M6YRn8fzG8j6NfzUNcO4/rrrcWJ2Fn/7jQdwsoepVe3C023GVeyeLW7A1Dj0LE7e90XDQGHa5CMPP7iicek4zp2u675rxYbr1EAphGJgEcDiJiHVSs3kbpYyAV5x9SjeePPlKGRdHD90EH0DW/C1bz+BmjeATKkfTt8QalGEE5PHsTA/h9pCBVkvi21bL8U12682LJ5yT8nUwHr8MdbAOmlArAhxaiHXsY9//OMmhVBguQgnnLMiaPA1Zl9xQ6J2LbZ26R7Jpv0q3Zb0o3VuubU8F0E3+kbxOmRBJu3i7jyXdKrWPgAbCsDiJgr87dlMGV5uGFdvG8HYQAFvv+kyzFbqeKzhYPxlrzbA5Tc+8ykc2bffgNeukzV15DherIXFWZBDgCsGyuiHj8lmgN2FK9C6bh/crZWYgWU2SjCFeTsPXjvv5ZGjjvMyZg4yayMMIvTkesyaUffrprROEAXIOC68Qg7z9QpaYYBm5MNzwsW6WO3dCWMAyzEAVuaRPOobFcCicqGRRwCLyokRK7GiKKRUJqQW792717QjwENlQ2OAnUuggdFJ0bZFRxbd0M7BJehFoED1sKRQeayt0Pm5qMM2s4rKkAY6laaAKypgTS6OuiKaPE5phzIW2Y7KWIYlr0GlTOOUkSZtQcz7ZGF3bl/NfH4ydVa7S2EKYHWnPVQgvTNnTapniOPHjhkD5rEf/hBHDh/C1OQk/CBAf38vbr7pFSiVeowhRNnh2FCuJE8cV8qtNhug48IxHhwaMSk2V23fbiK3NJJ4LGVZoCqXYSP/RK29GLgiui0nx5a1BHiaMrC6G3J7cV43BlatsoCo1YTj+4jqdbQW5tGcr5iUwpKXQV85j75yAQXWqaouYG6higa3OQ6BYtFFb08ZZRp1Iet3EOSuoBGEBsDK5TKm/lW5VIQbRqjML6BSqcIP4020c4UsSkxHLRZQDwMcn57DdL0BL5dHubcX5b4BOMU8WtQ+JoUwZWAtJzrrCWDZO3TJiZPRZYMU3QJYZCoQUKdOtNcLy3g77QzR2iIHUoW+CbbLEeR3NoDFY7imcecvptWkANapXcz0p89//vPgxjQMwCn4QJBDAJac/uUALO28RvuADrYNFsiWsONVkhebIZN0CPSdnAp9z/PQpqGNRP3Ecf/1X/91M77dsMIvJgZWq9U6NDU1NaGdsZkCShtUu1mrxpKAEI6pvXEQ7UTODdoG7DsGrATY2ACWWEByBBVM5ThzDpqUjywdEtUViZkNNtAjm1m25kpsKoFIuqbaJ4+zv7dBUh6fBLDUVveZTMmXjAr00VzQNSmDNqtcayKPo52lcg3PPfecYWGpFAePoz3FYym3tL04FrwOj2FbFYxXXysAraCyAtM8lmAXQTGBiyrVwPtknSwy7t797neb9FGrT84bgGX6fXACzrVvhEPH1RiRcdpgB8DixkNM28tlsLnUwku3FTFX8/H0FHCsztIUBLDiwu4Fbn5VLmFbiUXV8zg+38JCZQ5Bu2YV85Uu729iay9wSb+HIHTw6HEPBxeAZuS1zwP05XxsK9cxUPDgZYp4cjJAPczAZ/FmQlPtPMcb+kKMFvgZ8ORCiKlGJt4lrZ0A2I853FyomVSmad9FLXKwO+qHH3nmp7p02MMQpdYsxnpLmK21cDIqIvAK7WylNrgRkz7iR7vWT/PwMzj5vS8ap33b5nE8vEFSCP/1Z3+YY8t5QQDrQx/6EGq1hgEFivkQr7phK37iDTegVMjg+IEDGBm9DJ/94ncw5xfgFXvhDYyiweDn8WOYn50xAFbGyWB0dBOuuvxKs76MjA6bummPnQJgxcXdCWD90R/9kanfrPluA1g2SzvucKb9xV5WEMT0N8094+OE4SlAtg28Jtcqe31RiZ/OTpntNVJrzUYHsLiTJ+W+kM2jf3Ac/+b1t2G4v4wbrhjFbL2K545NI8wPkEyJ5vEj+M5DD+HIkWMmjdfUtGOl27bQMyPkinIWm3MRjrciPJ2/Ev51+08LYDHVb1NxHEP9AxgokzBUZxEs4wv3lnoM0MnFw+y03mggcgJs2jKGp3fvRKVeRS2omQLxNpsmTitsb7n+fBbewwKwWN09wl13byAGFo0ApmExukVatr1bAZWDCjSyDQEFThgayWynWlcq3s7PtMMLj6XBQCVGAIxKiYqHgAGVnSJafFVETUYAJwUVmb2DimjKvDaVnYAr7byinQptgEqRNRmLKgQvY1FbjDJiRMOIylY7ABG0Ym0FpqYxpZD3LvBMdP/TeSMpgNUdmhGERKjj2lJmXMLIFCo8fPAgZmfnsPuFF3D0yCEDMDabDQNkXX7FVbj55lcYWaJDQeNUhhfPwc8oc88++6xRMPx/+9VXY/PEVuMUkFlH2eRxosCbLYjbpDmCavGuMHHEwtShtFKFxN5LUwi7G+PlWq0nA4tFEwO/Ge/Ow3WpUkFzfg5htQkviJBzubOIQ12Als9dBg1WZQog0nbj52YHngjwmyFaAdBqr/m0A/g9DdJ491vGWeKHFIWx/7LcXBeo+aEBxjKFPEpkAfT1I1cswGc6AHedSQGsZQVpPQAsFj8lo0OgtYwsGX1J8GklAEtOmQ1gSb/ZwMRKs2U5AIuBFDrmybo8Zm1q7/x122234b3vfa8BZdb5saFSCFm38zOf+QzuueeeTqFpjg11h3ZXUz8q+GUDBexf2iJiYKnAuox4AVhJIEpG/1Kf2w6BwAOlaNCuoV7iqwIsZGAxXepHbRdC3/cP7dmzZ4JzlQAkbUjZhNoNT8XBbYdL84j9SPCK+p7zx9b7AqR0nGxEgT72vNU6QRtFdTJtoEk2h47ROQQo2cFZG2Syz5EEsCQ33QJY9rVs2VwK9FIf2ver423Qir+DNjIDgbSRVUZE7A62pe3ONYe1eNjHtO1pR7M95wxBY74yyM1z0XZnBgfXMgbFVVuX90LAUcFHBST5Oc/L78iyf9WrXmUCynyvumft9e6cA1jXXndDZ6klgOVe9yYq/TaAFVcrl3wZmTTWQQa9ORevvHYEx6Zr2HW8gqYbmU0JvTaAxcApTdFrh7JouUXsP8l0TB+Bqx27HcOq2FTycMlw2dguL5xsYoE7d8tujbiTsofhQhZjZcekMb1wYsHsxM1nzIKK2VFlDxgrAm4E7PYj5H3uoBy3MW2dANf25sweiizO3gwj1BloDmnkMK3RNamNeaeFkV5uXBPhZCMuFE37iDyUzqPzNratCWBNf+9LbQbWZjz8g/tXVF/nm4HVarXMLoScM1yHvvzlL+NDH/pdLFSZehuiWHDxmldegTe/4UYDYB3Y/QJ6SmP46o6HcWiqDidbRHZgFKHn4OTUcbRIGmn6Ji1s69ZLkPNisHxiyzgKhTye3fkUZmbom84bRg8BLOqGP/zDPzyFgWV3nOaoPiOgQmaQ2YXdb5kav/RzwiD2vwykxZ3s2qAr3/C3mM9iQY53pWzX94tB/kxc4idDeWVaodup3yR/jue217KNxsBiSh9nbjGXw+j4FvzEj70Fg70lXLVtGAvNGo7PVHBinluJhhgtZvDlu+7Grud3G0eC6Z8mjbDNOmR5qstLGUzkIkwSwCpcicY1e5Hd1i7ivgQDi5NuvLTZAFiD5T60mk34LsCSNj2lkkk15VRmkK3JXdCjBiYuncATzz6JSoMbTxHAilmbHVlIAFiZhwuoYdqkEKIZbiwAi8qGtGymD9LpV1SJE0DgEoEtFnOkMBLAopIiKEDlQ8XEc4jua1OryWwhQMDvaXwwYsJjqZxkQFC4+R2Vm6k71C6sTuCB30mhsr12IFTtCn7HCaR75f0JtFqcuPHA8TtF7mxHgQAeo0N0PqRkeV5FO1XslZGfV77ylaZGFinMK+1WmAJYK+oh00AsOS6QLHbJMW8066buFWsKzc/N4IUXXsDc7Gw8jmGIw0ePolqtd4rucyw47mL2kXHFWg2UJY4ji7RPbNmCTDZnHJfLL7+iU1/EjkraUfRT7j6uhrfSI2VgrdRDie/XE8BaqFbMjh+hEyE0AFYV9bk5+AtVRH5gmFLZuE6pUdoBlbnZVjr+zNOQE1NtGf1kQCgGDmnbGd3ElHU4yLpOvHW1MQ4YGY9TAoL2+SIWQyXdOl9AgVsoc2vdAmtOkO7vYWRk1Kyrb3vb20xqa7LWzbJyGffnFsdxDq+y6zdM8/UAsLgjHdNgbABLzhp1QxJ8SkYjbUCL72Us2kXcdY7VdLSMPZuBRUPVBrCkx2zQn85dCmAt3dO0Wz75yU/ivvvuM3perBPaIQqEyT5QnyYBLNo6dOLFNLdti5UArKXm7lLAhgJv2qqc9g7HnuDABz/4Qdx6662nbJe+nFxdbAysffv2TXBjIaaBsv9ldwlwok2nnSEZfORTmwQZ98H3O6lqtDsVAOXYExhhIIv9LMfMZuGJTWVv1qLxFkilGq12PScbmBJ4lQSk9Dnv0Qa4bCBL3yXPobG3GVgrAVg6h9YWXkclO/SZzcziXGC/ksFIEIrglXGSmk1jz8tWJ3BF2aRdxe/JlmMmB/0BjhXryjKLQaAZ+5r3wjackzwvmXU8lnNS48rxob9Am47X4DjxPMyO0O9mP1gs+PMGYDHA6Q5NIHPt7XG6Hm+MXmt746gYIKAb3H4y/YrJe7Q9zJOOv9OpuWpkwHXADcUcY5d4CF0WM4iZE7ye47JQO9vF0mBKNceVo9uAARsxQGa4VvAiVtOJbR3hVzHDitflCeJi1Q4LVRlbN4wLy/MG+fva26q1S+csAhvtoJ0hh9FRJkudB4QR/DaL65RtGTsLV2xQtw7vxMz9/8sAZayBtXEBrA+hUmlwP0Zkcg6uuGoYV1+9CdmMa0pM9ORH8OTjBzE3F6B/cBhj2y5BK2pi9+7n0eDu1WTowUNPTx9Gh2KCRrGYRy6fxYH9MXmk3qjBcUKMjY0aG5E7H9JuTOorBdQW7RTHFIdv0Ti1SqTEhI7QEAOUuqu1QLYI5xqfYlpp3VNqdvxdBp7nIl8gkaAd9G+X8rHvra0LN1QK4cjoOArFEt7w+tfgJTe8FIVcOQ5aRwxNM+oNBKxb5ToIWjU8eP/D2L//IHbv4aYHFUShDzalfHMrsEt78hjPeDjhO9hd2ozopUcRjc8hdJXml6xNxjh4nP7psSYdU90NCA1kPOIjgfGbOUkzmSxaIdeLEH7I+luEjsP4fm0Hlr4JKWOhA3dXAd4j3JSjZpyc0A+w40JlYH3m/qMWFB6vJI3Z4zj+9HfRWDiJZqPeWV5UTPTkiRMGDKAio4K54YYbjFKhoaCtpWm4c4LRCJMipUKikJMKrFpYVEg0yGhw21EgKkQCSWzHicPv+N6OhHMC8VwqHs/3drRIk1UAmqKpZikOOUmbnW2TZcTyGBpFjNISwBL7isfw3rUQ8Pfyyd//nve8B+94xzvMroWni4imAFZ3rptZMA3dOlb4rDtVXZjHoUMHTXTj2NGjeHbn02aBzXgehhili4D773/AgFOMyBGgonzKCaVBRJnavn27WehpRGVzOZR7etu7Z15u/uf1KGMCQFMAq7sxW6tWZwpgCVCwx4tRXhb5Za2bJ554AvO1KuoI4RtgKUDIHV5qNfi1GqJGCwiYGx4bffwL8cIU3AAAIABJREFUCHS1s9ZjIlab707lEDoII8eAWFQeHaORABYBd4/svZg9yICIa9CvdvSShmY2Azebg8dUlHwBOTIs+H9Io8XB8NCQKUD89re/3YDkKYC1KGEXEoAlHaO7kxymANZarQignr7Z87yH1+qMZHn89V//tQEsGaDTWk8HWXaI1hHZLgKyeA9sT9tEQTraJfZDBv5yusM+twAJ+1UOAW0n2jjURypizQAgnfb3v//9nVSRlfrlYgOwDh06ZBhYZDkQgBR4IWaODRZxrDg+Ki2gshZiVgrEEZufABbLYdCmJACjnR/5uc3QssdQwI9tmwoI17jarCm9FzhkA01LvV8vAIv3Zved5EggnexkZVywH2lTUe5ph2ntYx/TVqbtz2PJaqNdrLnC4wkUsgQHmVKcY9RnnEMcDwLKtM/I0CJAxvb8jH3IcdBu5QwY0zkn4KV5yjY2mGjfO4DzBmAx6OUNbUHuutsBU7A5DrSaYsna/KfN6idYlc9EyHGXPzKQQhdNL2Znsfg6f1PGjVB0a8g7WRNYqzt5tJx8e8gIkQBRxkHk5gDWqkKITEAQRAysuNC2GdNMDpHjIkOPNyCTK05XjB/tN5mccY5N+6Bl8CbjoBubKDIb2ZSdGHwL4RmAqkGbPf6lBmRjKYWCF8Ajs8cJUQmyCKMCQtK6lEHYzrSwr00Aa/YB1sDauADWl770Jfzu7/4uqpUmDCrpRhjaXMTweI8JZoZ+iII3gIPPn0CrBvT3D2BoZBD11gIOTx5Fw5A3GFAlqymPS7Zsa296VkapWMC+fS9gmgysKjdOCDoA1kc+8hHDwLLXIjsVMJ7TDLCRacVC7IGRR/pSrKm1sBAD/pyH/Cz2v2MWlqldTvvWjQu309/u6SmbzbPiDdl6UCyWDHgVb6jmolCM2cN8r/XCBurbQrdhAKz9+/cH73znO82u98PDQ536mZo9HXalmQaxn8E+Jlj41LN7cOdX7sHhI1NoMAuE88QNMFIsYCRfQOgVsNCfxf/P3ptA2XVX5577jjVJpSrNKkmWbRkP8ojNYGOMsc0UwkyTCTAvL9DJyspbq/t1phcwvDjdr9PJCgk4HQLvhXQ6SUNCwAzG2NgGMzieBzzPtixrnlXjrTs1v/0/36l/Hd9S1ZUly1euC3JV3XvuGf7j3t/+9rcLJ+y3/HKqmwNMAWYDIGdhmhcSKAKpKxw3jVuB4Lvej2W4M7paODH5RsHyj5et/nDDrNKweqNqteak3XjDy7QK4fce2P0CAGtk91Z7+p4fWHV8xGrVyRTNZbMpFIu2c8cO33AAqdauPc5ZL2yElPRk4LMRsdGpYogiUmxYbHaKqgAgsUGx4WEsCMBiQhGFwQEVgMSEVERSg4RrklcPGAFggXEnAIvriNqvqkKKwvEZ5+LzuJyvrkFkFd0SRZg0OJWaKEBNgBgOJqkab3nLW1IWTyujch7AatUq098Te8ENucBh9ZVzdOSAPUeVobExe/yxR23H9m2+aBbyeRtEu2rBAnvwwYcd5UaTDWMJiu3kZNXHKYAk4+zUU0/1sYpRhCbR0Oq1PoYGFy8OKYtJaVg5LPMA1ux9djiPOFQAKwaudT9ZAOsA+d/WtKoz5ZuWB/WsVq1ZmbTm5KQ10cYieuF1QhpWy/Ff9M5SaysAqugF+M6Ss0Yu75FQ3zSSErVe4cN/D4alvxJDFDA2XyyaFQCwSlYolqyAk1oouNhiMdHMYkwDYAGMUzwCYyEGS2Ycl+Fq8wysNgYlRtpcGFip45GcO2ZhxX0zz8Bqo/HncOjhBrBg4/7N3/yNV1lmjxeARSBNdkgWSJCUAe9jR2Dn4MjzMwaw5EDHjJAsyDkbgCVGDzYKxr87sImWELYT8gVomyFYPZfXsQRgkUIYA1jYabGzxjqpPlA70l8CS1QNW3af5rD6lyAlbH7sSZhZAC38xEYQ0yu713A9sQ9i2zQeA4fKwPKtI2HjZBlbYibFY6AdBpbOrfPHQSCdh3bCHkYuBPsfoAq7OYhAB5YQ7cH72FmcAztcelZ8ThsyZrGPaVtJe+AnYN8j63Dvvff6PAKc4if9it1OZgPf5x9+BmMe2y3st4nERPK77uloViFUCiGBr8LiIes67RJr5kqJFEaUQki7NUktK9pp61ba//qrb7fjly522+Pvv3Oz/fMPH3KnE9YV/7t42U775eO22/fu3GpnnrLWukp1+z+fPDtoZrrhUbDeNa+xwWUDtmDxoGtgbX/6cRvb/ow1J0ctjxNsZn0r1tv6U0630xfVbNNE2X728FM2vuc5q1eG3el1geqc2aXv/TUrlQG9mvbsE4/bw/fcFfSxclRAM7vk+CW2YfRZGzx+ue1YMWx7Rit2w0/7bXQylBUcLDZsTalmf/wfLnG2F3bU/3vN7fb1Z2v+PAjIZ18CSGpbH7PhO7/t97F2aKijGFiMf+bJNddcY5++4tM2OoyIO6yYpnUvKlp3P7Ye7KemNatlmzhQs1w1Z6ViwcqlvNUaFas0qgmjDuCT4EXJBgYG3WYtlUuuhbZn9y4Hrxr1muuvLl+21Pp6e+2//vF/dUIJYuquJZxUC6St+Z37COB9zsW/8dFZE/GPCOZMVCruG6OdxLwWYYPvAVzlC8z5YNVq/ekqB7kWsgbYQwcGB2xBX5/7Wb19PbZgQQC1hFp2MoD1+te/vg5mobUvHsNZezAQMOpWd2A3Z5V63m74wS32j//8VRsbHwspmswOB5PzViLzYkW/dS9tmpXRsQIEzlmJSqMZAIu54TBVMo0EHMf34/OJedYk/TSlZabgVszA4g4nSxOetlscKVtpvByYXa7XVX/5AlitKspBD0ZfQALmGnBsXAxKol4PPvigG38wWtCF4qVIFxsTGxAbH4YD38EQE2BENIYBz98YBwALqg7DwGDi8F02RAxEUbgFGAlR9gnS2+vGBvnvKrnLcdw7myr3zqbJ+XmfycumLAYYG2icNw9rjOfiH9dmMusV62/xHufjPVhk73nPe5yJRXRUkbUXLtDzVQjnYnA3oBwjmp5oTNFXz2181h568AHvEyICUGb7+xb4ok4fkmt+4MCIbaQ64bZtDmoyNiW2Sz/xHuOF/oF+Tr/1DwTgKqa16h5bLVLp/bdIIUxzxdODmr9ZKBS+NJdnnj8mtMChAlhZJ5FzCcC6+uqrnYF1YGLcKpazOkL8lP8FjKrVLTdZtWYVWi8U2noocwvQ5emGIfqUiEP4mPQKtsK0CkWn+wfC7tQ/Z+BHkc0QScXYzDtYRTJ8roAxw99F17rw+j6kaVMVcR7AmnFKHC0GVgxgxcaKjEPd8DyAdXhXs8MNYMEev+qqq1wmQalP7AnYCQKw5CALyBLAwfsxgCWWuZ64XQArBqL1uxwD7Auccf6WiDs2DiyU973vfS5ePZfXsQRg1ev1zc8///wQzFqEkgmUSjyddpKUhNowVB4GcKmmAQBV0OMnzhsOZ5xiw/xV1UHAEgJi/IM9hK0IiMj7svO4RizqHjt3cZ/GoGgMPmXf19iTTXIkASyBQGL98VP6btjJtC92OHspbcR72FIASrST5DmUecE8Ueqk5gzMRnwEQEDaVcWPYEJiu3FexjWp8tjyXAMbDltNaZ2AWTEIKJ9A4CV/xym3ybw4agwsF8geXGXlUy6yZh4AK90dUn0h3hzo7bbzTz/O/uDDb7ehpYNu2/737/zYPveNW4N/ir2QMzure6O9uvyEbXpk3BavWWpLVpp9ec/FViWnEG54Lm9LTn+LrV2+yAb7emyynrPHnnzWDmx+3BrjewPGlTNbuvZU+9X1PXbmI9fajvN+0f78oYKN7nzKauP7QvVA7JK82Uf/tw/acd1NW1as2S33bLKvfuNu94FzVnddrI+csdR+qbDJqksGrdrVZfvG6vZ7d9Vs31hgo64sVu3k7op98uPvtQPjFReY/tGP7rK/eRRWmCc3JgZfYlsF68//29j2pI3e/V2/4dWeQnj7rMvcy0UDSwDWddddZ5/8o0/agf0jtKqn5XUtKFipN4C+NYKgtaJVR10QzIrOsgXUhPESRLhzpKFRQa4Iu2mhA1LFUtF6e3pseDikD1qjYeVyyVatCGD7Zz7zaduw4fQAEifaVS7qnWQdAabUsHXRcRwbt127dvsayDzfvWd3yEqq1txvSlOgGWJgl36PwV6VHjDjs0QQtlh0H3vZsuXuWy3yIlgFr5oIgBUA7YQdlFQkjPa+jmFgXXbZZXXWKq3xse3XKqBJQNzxCstZtZmz2+681774pb+zA3v3pQCWQ9RNNOzytnjJQlu4rMvy5ZC2C4BVfAHFKMTPw0u/6KDkZxJMDzUZYHZOpSEGFGI6gMxh1eKEg2aFStFK1ZCNBMgOqP6yZWBlASw6ATT2pptucuOOzV2dxODmBYCFQ8jnMFoAbbSZcTxIbrzx8RmTS+ARAyAwtsZ8M5MOlmjabGhK45OYe2zoCcDiPb7DpscGCRgm1JiqKER22OD4jGM4nokpo4UND4BNlX14Pu6dDZv3VT1RGzH3nFIEE3CF5wKAg/Hztre9zdPXpJ+QXXXnGVhTLdIKcEj3tHpA/j1yOjxsjz36qD37DBHAcY8srFt3nC0eHAiig42G7di5wx5/4imPVLDIoo/10MMPecSPRZU+JzKLcYtB1NXd7X3mpZ5Dsn+yFoSf/JfzxtT0F+ygLQCs3SNVe2jzqFO8k9dvXnra4nkAa1bzY9q4OKQqhK3GE+sTjs43vvENu//+++3A+LhV6bdCyQ3DAptGHUAKwcW65SRYGeIOSC0GBpaiH9CnAbASSQjf1xMtivgRg67F9C0iGN/StXDBCjdS/H3/LBzfrNf8PgYH5xlYMw2bowFgKbCSrlFJdDNrwOhvgV3zGlhtTP4ZDj3cABZ2wWc/+1l76KGHXOZAgTFSx7BH4gBUFsCSnRMzsGJ9pUMBsLJsSoEbjCFnGRcKif5JqLiMePs73vEOlyyYy+tYArBgYG3btm0I8PG73/2uPf74Ex7NdkAjl7NVQ0O2YMHClAXU1RUq4A2PDNvE+ISzFjiOf4AFExMVq6D3gh7iBILL9WmAlthvEg2nPwCzsB+wJ+gbbEAAFtkLjJEYfKKPsumCAozE9M6yqTSOZgK3FHSL2XxzeS97nRgsxR7G7sZ2xweg3bCVBe5prPGsONQqhsP7tAd2PM+F7cz84FyqOC6BfY7F7qI98QP4HfucYKMC29rL9ex8h/tUWnYccIyBZbHBIhmPlxzAOuXUM5JUvQTAOvUis3xI9WO8Jb94ih8O4qKeHrtgwxr7X37prbZkCcyyvP3T9XfYX33z1gASAGCZ2RuXbbN3rtpu9z3Wbc9setAuet1qu2rb+VbJ9QZnNpe3/lPf5aLfyxc0rVwu2IF92+35p5+wxuiuBMDK2bLjz7T/+JaTbcPOe+xHB1bYN56q2uiuJ602sS+pst2w3M8lFj7926+xhcWcDeYn7b4nR+z//sYzVvMUR9KR8vYbpy21Dzxxve0pT1j1nNfYaGmRffq2uu0ZC2DJilLVTu6p2Kd/55eAvKyeq9t3r77R/vrBsQTACm0xnUUX3mtse8bG7r7WHfzVQ0N2TwdUIUTEnSqE8j+xNz/1qU/Zww8/4uCVa02Rfunpo0mAHuCRYQDShFmapNkVfX1KxNER7y8WLYf6N+8Xi1YqkDZbCNkAzKeeXjv31Wc7cPTxT3zcU6DzxVKajUSbAlyJdTpZrbl+8JbNz7uWnbKRQpr1uN/r2Oioz32+AyvPAWSyBvLB51YWC+mNBGe1jpTLXbZi+QobGlrtYvNLly62gYFF1u1FtdDOItgb2Fzq/04RcW82m/kHH3ywrmfV2NV6JZtvui8CCITgVej7sZER++u//mv791tCYQL3NV2oBCZrKHLA/rJo8WDCrAT6inzUBOZ9IaY1pac3zSbwyHqy7sQfhEVj2qGClV1PzxesUIWUU9xw48s0hXAmAOvGG29MNawEJkg3AHYVDCwcRKjBGFJ0qiYCIBAsLIAufud7DHoZf4pyMjkkxCgjgAiNACyo/or8TGv7SAhRopDcBx3vk7Ve9/QAROiZaAg+Eq3kHtl02UxFg+ae2UQ5DxOYe8bp4DgtRnG0J47CM4ABRKhGCNUZ6uZll13mkbpWgu7zANZUL8YgpBYCN8bI6oLaunevPf/8Jtu6Zas99fSTtnzZElu1KrTrQoCnZtOBKTYHxtptt9/pm+HKlat8vN38wx/akmVLvV8AsXp6e+yss862UzdsCBFt0raKITISjE1ovWwy5hEFoh0YuVnnIn2CFgBWtd60sUkqeCR2ijV/c3FfeR7AmouXlRxzOBlYMYD1MwAsor1uKaArU7QS9Gyo0YBY6FPwL9lV6lT1SPQekDDwtx3ACvuBthTIWI2UWKnlXhvAFLGXVNcwlpIxlWKmqgYS9CMaRN+s7mMWpgUphAjizqcQTls7rms2m29vY1gd9NC5pBDOBGDJWImNlkDVx1Bt+l7Cfikm8sGA+1Y3KWdY58M5mxdxf3E9j/zBn/3Zn3mACyNdqUeSMlCgSgZ27GTRH9gtAF+qUDxXACsGG/QEsZOeZetwLe6FPhcDCxvnrW99q1188cUOGszlFdgXMnnRIgmOYxuvi3O53I/bOP6IHQqAtWfPniEClN/+9nfsnnvutf2J1mpfX6+tWLkqCQgEB1CFfvr7FzlQtem5jTY6PJKIlTetVCp728LQggVLX2JP0LeyUWQHCnTCRmUOiu2F/UvqjCpY6jiBUDRGzPDm96z2lGQ2YvtS4KXGYcxAmmncZM8rAC6+vsA0MUVdV3T79jRoLL2wOHArcC5+NmnI8h7sqTe+8Y2p3SuZDq6hoDFroBhbYjzSjuxt0hfLjsuskxjPGwWT9WzZv4+mBpbrV8HA2nCxWaErELgdrQhaWASpmIGkjQ0t7rUPXnCWLRtY4MHPq+99yu58dLuDXOhoctzZA7vtHUu32NbdoRBNsbff/r+d51kVdhfHYZCsPN2KXQPW19vv36vsfsbG92yzXH3c3WRO1LVojS1fc5otbO63vZN527lrizVGt1uzNpEAZgi1N+1TF4/ZYLFq+WbDbtw0aN95zO8mcWfzdv6aPrtwYNTqJbPGgqU2Wi3YP929y8YncdbNFuQqtqQ4Zv/p7DWWL9eMDMarH9ppP9zfm2iMRu6z/OugGWLNbc/Y+L3Xe/GcIOJ+x6zrydFmYFUqFa9CqPnLHEKj7+qrv+lswr1796U+JQ+jucVPzW9l+FDJGgDL5SYAh2A9JamiXuXP5SaCCHdvV7edtH69vfNd77IVK1faaadv8AB9GDWJ3YrfW6n69Zkj+/bv9yD/jm1B5iewVMfSNGtPIZycdB+ZfY7vOMmDfz09DmYJwGIvAbQiUMAxSLZ0lbsdjO7t7bH1J55gQ0OrEh+bfazoYBoAVtiX/D47goEFgPXwww87gBUHtngA2oh21PqmNT4AdWHvRQeLQQ056M//8i9SAJJ+Zmq5bUhb9/TZmrVrPO3SU4gToHLWSTDTAS3AqlYMrLAiJeooPoLC3yQAdwwDixvG4P7e977nA1gbkdhXdBIgDwgz4BTAkcrX0nlMXNLvMAA4D8eIdkyn8jsbFhOAyQvYA4uLSRGqLPT4QOD7VCXR92XIx2inWDJEfsiNx6DTecmpv+uuu3ygIWrHPYpmrMiRJrTAJjZYrgdoJrBOgzO7kco44trk5mPA8A89LIAsZ/dkXvMA1lSDxNG0bBtXxiZcqH3js8+6Mblj53Zbu2bIS8Vi6IDmAzZVKpM+Prfv2GG3336nRw4YA2wEt97y75YvFWztmrW2es1q17vCyDrltNOCRgYbRDHkpofULhYYKl5aqsXm0MJMhn4SQZhlUZmvQtjmqnuoAFZ8Ga0RMYB1330/swMjI6EaTqFkxVzBSlCixcJygdWkdLCLWOWtSRURQKwQjkgBLEAsEXJDNmGy8IflP/1v8rWQXpgYHPqZGhfp0UFrq+ZCqQ0bGBxMNbAEYMXPOIsDOq+B1ca4awfAygJV8wCWN/R/zuVyf9lGk7d16OFmYBF8o1oTATJsAPZ65hMp5jBLZgOwGC8Y/tgJspHS+czeklRp0hyNGSUcF8/dLBARs0t0rATcsZHY35AqYE0AQJkLIHqsAVj79u0bwjb81re+bXfffY8DWLIrVyRBTN/X3QHMu+O1eGDQqrWabX7+ORsBwEKHEE2ZUsnT2kizQYcGewL5CvpX9iJ2baz5RH/wPYKv9AnjBtsPcBEnTrZsDFTF4KWArThwFzOy1O8aR/q7FYAVjyUxA2KwKr6Wjo0zCRi/PCusK5xVgKwQGCQQh20UxrMArHi80uYcw2fYvQKwuL7AJDl2coiV7sl5CNLQVipU0GpRyNrd2X1P9ygbMjO/XnIG1mkbzgqPgY0wuMq6Tn9zALBcxH2qCiGAks9dB20adtyyhTaAz1Cv2zM79ttwUkUsb0HY3dMJLWenrV5oWw9M2O5K00pNJA64VGB3N61kS7rzduJg0cZrDXt4F4IJwT4RgA04sqKvy5Z252282rSn9415+iGSCn6FBOde2tO0dUsWeKDvzuf3mDVKzkn358iZLe8u2PEDfTZRq9pe0s0aZntHmlZxNknijOeaVsrVbWV/l+0ar9jYhFnBq6/hEuuxpq6ZphDufMbG77vBr7NmaJXddefLP4UQACufz1/JvBHhA1/4qaeetu3bgyY0+wVAkUCueH5rvrhP6wHWIN4PgKEK1tinyEuUvWIlgfai9XX32Inr19uJGzZYF4UmmE8Uo/J5WwwgPLpclWqq1/jMs8/axo0bbeTAfhsdDaCyRNv5XanC3CvrAXMWgkn/okUpEYV7A7Bn3AFg9fUt8PUPwfLKRFgXurrKtn79iXbaqack4D6C7mTJBPAqmqsdA2A9+uij9Xgt5xnU5/QxxSewKVjT2BPI/BK+oOM45nd+53fSNTJe92g3jkdni71EQay2DKZDONjX0Wb1BZkj/ny5gt1ww01tRbwO4RYO6Su5VhpY0IcBsFQBUJpRdAq/M6hhNwFQAWDxL6CvoXwxABaboQAsaWeFSFfNNy0mFsfTybCjtPErtx76MeV3YwCLgRNHqIRiAyIBGvFTkRyiq7Cw6JjTTz/dB4S0DvjJfXKP2qy5L+6TRUfi77EBoiicBpRKWpM+CcMLxJnjMSqpHIZxk33NA1jJ3p6UmRezTX1KX0Dzf+6Z5+zxRx+zvfv2WE93t61du8oWLxlMFz+AJsTcR0dGHbR6ftNme+yRx73fVq1c5RoVO3ftsvt+dp8VSyVPt1i1esiNrKXLl2vlnC7EF01PYeYHnbFzi2DPA1htLkuHE8BiDSGF8Otf/7qLxB4YHnYGFlToYr5g5XzBASyig1TMcQCLas90fIGKPvnEQAxGpqpSe4WdwPp2EXftxjGtdypHPRnzbpAGcXeIuenY8qhLoJW77paXxG2mABbaeqQlZwHxeQDr6DCwsoDVPIDlw7qjACyCb5/5zGfS9AkBWBibzDM54AKTZHfwoOxV7FOsLQKwYhBJDr+YMKkzFwFXWTAjMuTTVIzYMZeAO3YTNs5HPvIRD8qxz70SAazR0dEhRMVhN9x62+2pJARBqpVDq93xg1ntOjK5nNsFOHv06/h4Ulkr0SaBDQOjwR2HUnAaOU6ADbYiAA8/BdgoFScW2BcjCwBUuq78RNCcc6oqYSsQSulx8XXjMaixFI/HGEjSFqvPp6L/QU9Wx2rccf+MXZxVUojEEBUApuqXYoXFYxgnTMw0BZV5dvYoUlvj72S3frFNNN6z9zWTqZCdXwczKTLz4egCWItXWdeGN1uu2BVY+c7KVSqhAl2BdTTQV7buMkytputIBbGWxFLw6sXB3li2qNtGKjUbo7KxJ2N5a4YKx1aw3lLOFncXrNpo2s4knS+0dzgO+2NBuWC9xbzbGnvHEQyP04lChcDektlAD7pFedt8YNxyzYIzvfxuOUcxZwPdJas1GjZeqzl5fbxqLrsQijWHOytaw683VqsbGQo5FOD9XoMFNN3GTjSwdgBg3dhRABYphI1G40rGn3xFfMlt27bbgQPDKSiuzB7NVWnnTQG1pBKGipH+P2n002xe2bFuOUTYqVCLtnSx6KzTFSec4BWti11dAcDyrNKC1RMmOAAWfjlrIYWuIKGMDu93P1gMLO6NuS/GJOsEx6mYiGs/5XL+N/4ve1G53O3gFpUI8X1ZdycrAfCHQbRq5Qo77bRTPa0RRhZphYXiFDEgWZM6CsBSgEDrKe1B22FXoOsHEYYxAED/5je/2X/G44J++K3f+q1pDN94LWRMKDgSg5yxndCOWxXbqLrnbFCNmUeqb7qeRBcoNOt2U6ekEHLfIInXXnutD1QxsBSRoWOIUOEYEgUDwKFaFpsYL77D5qiqJHQWnSsxUgmfCzCic0nBw3Bks8cA4MXEAoTiPDIYtAHG0R2O5RzcA3n0qn6iNEY6jPMy4bgPpRDqJ+cHyOIael5t+jI2skYihgv3Syok7CsJVPI93gfAYsLGWhrJ4HtZopjtTIbEmGkhKzf3s9Ce0lUIxmbQPKM09p5de2zr5q0ORC1ePGDdPd22fNliX/TGJ0L0gn7av5+qhJusMlGx7Tt2WlexywYXDaR6IWOVCbv/Z/fbRGXCtcnOOudsO/mUU6w7qWCjmrDklrcyBuf+NAc9ch7AarMhjwSAhQYWgPu+A/udou8AFroyAFhe+U9RwCSNz0vXBqMReyt5N1TE9KBp0wpE+JFpT4TZscTSTHO3B6eXuSUKxttO7krSEf1kSeoijhTGxmTCAhtYvNjOPfdcLw6Bvp7WRTXnPIB1eAGsz3/+83brrbe686p1W46auxKJBouMCO0JAt/jVACO0XdV0IQ9RiyLeO2LDQqBFlPGbGBAxC/uAyADBg57HcammM3aFzleZes//OEPe5DoCL86CsCMa5ynAAAgAElEQVT62c9+Zp/85CfdzlG0nHYm3TzWr5wJwMJ2YL/CDpJGaDwvWzGwZgIc4vd1vWSPTdPOsF2UusE9fuITn3CbQ8G+2fr2WGJgVavVzWNjY0OkwHzta/9mP/npLe4cMA/Y24dWr3FBYdcTIViQD0x/t19dYDw4aJOVIBFB4Q7pPPV0B8F8+o+5Fcq/B3BL2ljYrTimcvQ0z/UdMfOxSXHosI85F1IT2IsqIpPV18ym/uk8sbM0G4CVZXzFxzNGlB6Jk0UQOtb70nomEC2+n3gdjG1vBXPZmy688EKvlqu1U2tY7HTFWlqxwzbLXtZO9d0soPuSA1gbTgsMLHQzC4tXW88ZbzbLB0DBVbXFTop+qo28HWQ7JOx/Z1ZhWxBl84/h3gAiAQKxP6ToVFpCJk0XFnPcwRBxxqPUMgrUOHwW2OfhFZn2SZAuFcKZ+iU5MmGsx19JziNOuo8Dr8IWKjJPhe6i+8gsYM3tz9rovTe5pbR69Qq7s0MYWD9PMXMAi3/yb5ln4+MTni0i9qH6m7lCEAKwYgqkJnUQsNCP8kJAVLJzyI+2rU7a8089Zds3bTK0sjiyb9GAHXf6GdZF5b9y2b/LGugAFoWJzGzvvv32xBNPuq/7PGzL/fttdPiAjY2FtUyp9PLv8YvZc/Dl8Y2xJ84+5xxnbgF6szaefPIpNji42KsP4mOHImoNa9TDetxo1K1cKtrxx69zkgqfL1y4wLq6QzBBr0ajcXmxWPzH2faxo/05KYSPPfaYM7D0j75W+iUZX6yt2AW0GW30C7/wC06g8emfFLgAm4CBpWBAvEYqAMB3aSP2ePohC5rNtS1iOzULXum6U8GyVPtm2un53g033viyxC5aMrAAnTDmJWauSclA52EAl+gshDQZlG94wxt8IvIZnQQCyQRg8KuSIRNUFf04DiSY49jUGdz85B8TQYOCakGwwULluWBExBujBgWdjV4MYBIdTmdjWCqnmN+V1881GXCKHmEI6Tm59zhyqufhugKz5EBgkIj5hYMg5hfPAGAC4ysSkwzL0Ww79VxH5VE+rhVrr51bih0tGZ84Ff/6r//queIj+0ftF97+djvjzDOs5FFRNoWqTVaTlMHt2+2ZZ561Hdt3+mVXrFhlJ6w7wVk1e/btdQ0tys0y/kbHxzxF9ZxXv9rWHX/8NHHVWqMebRyHZ37GYGezOV+FsJ1x4eZTs3lIIu7xddQHYmABYMHG3Eu+v9UsVyw4gNWFDlauYAUqBjUDiOWU/ISFFdIHG1Oi/OhWoGNBDn9q3IUQmcNTGkIRqCUzJBiGwYjzrdv1MJrWcMeqbk0KFzSaRnEazjW4eIkDWO9973s9sj0PYE318JEQcXdhzX//d7+IUmbYK2JWhKpcxYENGSEK8OgzASMYMwAlsDjklIrZLECLa8bfF/tChgWGrxgcHMd+R7qO9lH+FjtEqU4YxTBOL7/8cnekj/CrowAs7JY//MM/9H2fNpZdAtiAsRgbqOpPAZT8xHbBrqFv6ct4W+f32QCs7PH6W4CD9kfZL5JW4N6QQvjt3/5tB9t4Pxtca9XPxxKAhQbW8PCwpxBiL/zghz/y+cD4h3mw2lkBMF48cdvTCKf6uGld5bLPtXFSeVywfdydOa8mORlSP7DhAInpD6ULSqSd9pXWCd/xQjORthOfcw7Zflo/CGhi55ICSj9iL8ephprrAoC0NmRBK43H7BiVLcyzCUzjHrg/7GfsXxxP7GllHWiseMWyhKkhjT3pW3FfMXNKTg/3oUAvNjdMA/ar2LHT2NQztGJgxc7bTGtUPMZnM6Ez8+HoAlhLVlsPKYQCsNwEmAKx1OcO7iQFXrAhUvDCU8iCo98oJJVjBGA5pPFCACuW4wx4mAveBatDWgap7RIArJDOOF3oOTVlEkjLsxIyYWuxrNI2594TkE59KQBLQgsCsFJrO2GGpRwwivLteNZG7+ksAAsGFgCWpGdoE+bQ6ChB96BlGKflSt9Oc0N+p6crUwzbG5uKf2alQj5UqQYcm6zYnm1bbWzvXge0ugoF61640BasXOXgVT1Jm/a9A/Az8ZufevpZL1rimUcjI77mjY0MW6USmKX46/KLxS5mPwR8YZ1CfuW0DRvcRqL6K2sIvvrAwGJPHSSFMADoRVs8uMT31MlJMmrGHLRi34LhvHLVCuvtpeBFkhobbP6OBbAY5ypacdttt3nWGCAfewPtCVsaQku8PqPfeMUVV6RsX8aA7DelU2udY1xAimGN1Vhpx5aTLUHfYBN6ltPEhJ+P+xYDkD633kHLFcpW6O13vTtXyWnUrbZ3i934vW8fHge5nZufw7EtASwank4ApAItjKPMNCINwGSAMUODYExjUMWbOR1CozBhPOI1OenfEyjEZ/yjUUnBAwRiQii9UPeATgWGYtwR8e8y7jEO0MGCtk1nCe2WIB33wCbO/XAv6jjyUfknsXgtLDHbK3Gs0w2bKBoGCTR+wBHOxeLET94HwALgym628wBWGJEyirSBMy5gyPz4xz/xqkCbN2225UuX23nnvdqGhlZ6GdYDw/tsfHzU+w7jFWruov4BK3d12/HHn2CD/QM2MTZmm7cEyuvKVStty7atPklJcQXAWr1mTWoQuAHWDALuMrrmMF8OekgMzCUH/mahUJgXcW+jYQ83gMUaRgqhA1j79tlkvQqv3R2MrkLJyvmi66GFehuJgGHCpgr6Es2EFp9EKWFMQYVP6e+hdgcRUddSU6rQtGhqqCYk4zKkKzYcuMKJchCEnwqEUk538RI3GmIAK+v4HqRZ5zWw2hhz7A1XXXWVG2cCIBgf7Bf6Oz5dvH4pECLQQlE26R0AdACUsO9oreG8vGIgLGZwKUijcwskkWMMuwNnkWuyT/KSAaRgC/sPjIiPfvSj8wysqPNoUwCs3//93/eUCoEbtLkYWK3AATlp9BNtHgfnWgFY6tvYkYuBqpneF3jJ5wIzJFeA0Ym9QfRWDO9XGoBVr9cdwCLwCIB1/fdvdECIOVIslW3N2rVBxFjeduLEheCrOYBFP1RUcTCptEWfHjgQKrFxPqUHitEvIIt+UZQcG9PBsKRaH7aG7E6B1epzvqNKhjgkZAuQeQCQRT/Tx/zT8Zr7We2pLICl4zResuxR7HfaCgBdqS0KBMsh4hq6jhzeWIw4O8ayYxubneJFArBk42mMx6D+bPOh1bLdmQCWWWnJaus7+82WK3QFoEiVa4mQeSphqAgTWFQq8hJr5EEhTOySQkCdqHocijBELZXoY01/k69GUgWCxaIvOmiVsLRS5lUCUqUAViCdh+OUGpjee5awpYP9YadsoRgc0/lVhS4CxWSDTW5/1vbf9QMHcNYMrbQ77woV2w72Otoi7vV63VMIFQxhn2BNQuIEFqhAYj2DAG6RJviJP4zMRbUadKtc7DyXc+mU7i7WLVKcSB+ctAKpz7mc9ZRL1tXba6WFCy0HSSSpgAoDizElQsn9DzxkpF07e/jAsO3ft9fq1eCXc8+sEypexhrGuvehD33I3vnOdzpr1BlBhYIDXT/+8Y+dafT008/YokUDSfG0oLm17rh1tmTJ0sBQnZiwvXv3WLNZd61rADHSCRf2o4E9ZQ93EoCFBlZMZqE/aS/a9YEHHrDbb7/df9KWBCt+7/d+z3/KZmTt/eY3v2lf+cpX0oAm52Os8BLzSusv3+M9bD4FVmebC1lblXPwXYhGBMIJqEKw4UX6OHbPgw89bM/tmbBCT7+tueh/suaKU6yQb1q+MmzPX/sF+8aX/rxzACw6gw4AUZSIW0z/pcMAuEgjBPxRlT8mpbQCOAYUUn8rZY/zSEOCTRUAC+YUgxsAS5EdjAImFWAFUSOBHWy6cbRamzGDBB0sVUSkc7hOWERCVQWuJ4NfVQ/pQK/IsGNHmtuLISHQTtQ9OSQ8I99FuBPaNKiyRD6ZpES9ofdjrGRf8wBWaJEY6NFCj0bR7bff4RTUXTt22fCBEUfrV69eZSeesM5Gx4Zt+/at3n+79+yxYqFoQ6vXukG6ZPFSK+QKtmvnLtu5c4dPVgCszVu2eN+86uST3bhauSpUKPL9OBFIbOVUtLNAHOzYRqMxD2C12ZiHA8DS3GX9Abi6+uqr7S4ArL17vBIV9iMRIK+eUixbkTGRGGUy1ohHAnCGoCkwFoCTQKwpQw2jwjUkfHlPxtY0NlZoACpbCpjw8efpiHUXFoYxGJg8VGehJHHB10WlEIqBFTs3s4Cu8wBWG+NOABb7ndqVNUTAUdxvcvDY37zHk0pnGBkYfbEDyZ5D8IW9hbFIH4f05/3pGiTnLO7P+D0FYzgvjiLGJGMDAINxDjAm1oX2To4lIETqKQAWQZ0j/OoYBhZtC6iNYUmfCHCkzSScqj2fPoltAdqQ4+k/+pW2l8OisRAbt1lgK7vXtPo7fk8MLGlgwQwC1P6N3/gNZ9XFYNfB+vdYYmABYI2MjAxhfxKY+M4117qB7wBWseQMLFIJYwBLNkegkIS03Fq16uv5eJJCw9yq1Sb9/ZD+EkS2BVbFfenBD7RmSqU0XUhOjPRQ5JBoPaCv+McaoZRC+hAWf2AyDPg/AWdibsXjQYBTDLDybLLNBZJhawOwMr6xzzVO48JEOoekPfS8HBMzPvV+PL6y1+ccb3nLW3xs6iV7PbW1aHO0e5RilmiNzbKPpfaizhv3Q6sxnwHbjhoDC4OgtHy1LTzvEmc1+BhkTPkvCRgkMIcJmp9KFwe0yOpqosfpcJSbKiGAlpa7V2peJt1cQbbwTQFKvoqF87tdE5iKUy+lEWXoVpnGntbOiTmUJBRG+p7Jl5J5l55CgFvyhq4uAGti63O2884feDtRhbBTACwYWAIetB4gas66xByJg1Rau4NWVMn3EeyEESplOwPLHMCiERzA6u4K7Uo2EOtSI9SERAOru7fHehctsjyMS4LyFBGBgUUdSwfG9tu9991nzz23yf3gffsP2N59e61RJa2x6tcGPMMXln9MAOzjH/+4velNb/L787lr5p+TLQOL6M4777Le3j63L/Db8HlPOflU18NiTYKBtQ+buzLhrFYA+1e/+hxbNNDvAFZYGzqLgSUAi3uP06yZDwQm0QyjH+lfmGms8bIfaROCZn/1V3/l7SfbkZ+s2fxkL+C8Iv5wHdqfTDcxa9ux5QSccQ98n/NQxVhZAWSuUZUZe/JnDzxsew+M2HDfWlt/2a9ac9mJ1pgct83f/iv7zheu7BwAS4gsaKKqkjDwY/CIwY4hiE4VjQIABYgEwifDGhCKfwKR6GCiQBJLp9M4HsMR9hSGuVIyuAfpYIEci65M58XOg45n84fuCIilSJauL6NCLCuMFUAoOhREGZYXP5V2qIEpo0NGAvcgNJTnBazi2WkXPuP5L7roIkeblVKY2fhfloOgnQmRGIMH393SfSvkg+ultBr+VsRPizog4k9+8lNH7ffs2u8Lwabnn/Nyq+ef/zrrX7TAnn/+OV+AqUZ43HHrrL8/RC97exb44v7YI486NbZ/Ub8tWLjQj6WvKS97xlln2aJF/VOGAag0eeLTolTttsSsx89rYM3aRNMPOBwAlgx6DHiYfQBY/GT+u3NiOCYFn8vlUpcVHMAKKcqBZZ8LEZOY7p9UDfLxnGhhhQ04MTYTKvxMj1suldxQDIZ9iI6K/aF0DeYC4BVjGgMCAOvd7363AxEYALqvGMyf4XrzAFYb444x8bnPfc4ZxaL6a68TICFHTuC79iOBHGL0ymBQ36paHXsf31GhE6UEagzFKQVaM7UPcQxjVSlH0psMKQqjaeCF4/muUs0uvfRSj6CyNx7hV8cAWPQBoPbv/u7vun0hAIv+YP+ONbAEIsROPGsEfYohKsaN2lb9FQMN6Roxg4h79vMYsBB45pV3u7vdPkIs+2Mf+5j/HgOrB+vfYwnAmpiY2FypVIYIblKF8F+/9m9u+AvAGlq7Nq2UNWV5SDQ4pGw70OsBg7qNIE/RaDiQVCzm3X6QNhrH0afZYKbaXfahysqr75iDOHpi/Gu9jsEsfmdOY4eydmBHEglX1Sr6VxpcsT2qsUV/a21SlSvaALsJ0AqHlPVBNpfuIQbSdL/af/hbTBGBTVxbgG7Glk3f5zs4RQKwsuNSIFU8j2Lgqh1Qqp1jzeyoAlhlAKzXXGq5Ant/FLhNAKxUbuogAJZ/L3R2khIbzhMCZzH0FFXMToGxUOQwMLFialUQ9hegK0H10L8RgKUJJK8lwrpeHIAVM8OmnkEA1vjWTbbjjpsSAGvI7rzr1lm3r6PNwCKF8Oe9lKYQMtbxOwNbLoDXsQ8rAEvBJ5FGyECp1WBgJd3DGlTKW6GYFJgAOMHbqYc+7C6VrLe72/oBhYoFQxbF5zH2Zi7v85814a6777EdO3a674we1j6kVirjvkbwHmuHsq0AUbAdmNMu3J7sXWi0cj5VK73xxhtt9+59qa9L0Gzt2uOskC+mft/E+KgfXy6XnPTxhjdcYMuWL03WrmMHwKKN1DbYBcIY4iATn0PG+exnP+s/BWCxxoJV8Dd2vgAsxgTzTBVvXyyAxT2yV3zgAx/wABwSTWSLIT4PZvHsc8/Z7j37bONw3l711g9b/rhzrFGt2PPf+bxd84U/flliFy1TCAVAAWAR6WIj1oYmHSwMOMpRQ8enodlwYT9hCGBA854mhphQGIxCFnU+0aqhxgcRuJBSExDcSQfIYGEJQKNDYwCLe+VYOoY0Qpw+JiDvS7SdnwwqDE+Og8KtqB0AHQYLHaocYG3kcXRK18TAxdDlfsnrZXCFKgwL3fhgE1cp7uyq+0pjYInBQP+QSkM7g07TrhK+l2YZixwO5M6du+2Jx56y3bv22KZNz9qOHdsdsX/t684Lou7dXY74L1w4YN1dPW5wrVo1ZEuWLLbtW7f6dTg/52XBBaRibA4mVSKz1eHmAaxZbYOX9IDDCWAx3wGuoOwKwGId4SUHQjnnWkfiyLEeXMaawIsW83rWNoqdADlGAjlYUxW5k2MSA1gwsKQxGEewD3LReQBr1h6ZOoB16i/+4i+cUcy+EOtYyIGL+z7r0Kk/+Sl9HH6P04vi1ALejwGsOBLX6jpKX1LaAfeEgyqglrEbs0JY7yhqcvHFF/s6izF1hF8dBWDRzwKwZE+wDhBIk9aEjHaBgpp39C9tj/0j4Vu17aEAWLFDnnXqxfCRBhYOAnINv/Irv5KCkhnGSctuPpYArLGxsc31en0IO/L7N9xgf/d3f5/aijCvFi9ZalQjFIMFVmvarp7CFWQD6vWaNeoNG94f5hFCw/0LF9rw8AEPaLJPKMimeSYASsFVpRhjT8phoa/EnJtyYoPOGsfLJtK6IhCKdQdbmHPxGTYmtjQRfOxiPhNQFa8X3CeOJ+eV7qzA8ng8MTBiNlkMxCuIqDEfgy3xWpcdqxps3DsphNi+AvBj8F3njcfqbEBUPJDb+V5mPrzkANbpG84ODj9Bh+WrbeC1b7ZcOcnGcAa3gKys5tSU3hVpgwHimcoVDH2pMwcAK6hghfck5j4ts1AaWClDS2BRwkScFoaO/zhYfFooFnNp+nLjd5OkC6YSC8ljZBcmZ5lJXyv5XSLvI89vtI3//gNvgTVDQ3bHnZ0BYMHACnMptE0AbPXkgeQQByhiW469BN+IdW337r0hfdDBq5LlSS2GsZQLdms+h2przrNQ+hcstAW93Ta4sNeKhbwz+nN5gOiSZwawLrCe3Xvfz5yJxTrkOsOjw3Zg714bHgksYt0LPizSOARKlLamJ+Dc8unxm6+//nrbtm2Hr31cDxBkxXKYwcUg0VMsWr1O9cMgQ8T+deGFb7Dj1hEsgDzQeQDWHXfcUQdfkJ2u9Tte4wTU81N+hfCIr371q3bdddd5ewuQ4idrNudSSjn+MKBWDGDFaezt2HPqW40/rnPJJZe4Hw2+Q79wvUHS2YsFx1we3DpsKy94v5W7+2zn3dfZt774p50DYNE4DFQildDLYC7wUrSS32lcWDOAXAATdAKGszZeNmIajuOYlMrBFwCm6CaAEAMCup0GhsAiDAeuQYMqfz+OcGtzVRqhJh90OAFgTGC+qwHBfQEwcR4MURYNQA8xwzAIeE4moIQ8pXXAczPA0C8gbRInk89ATYmeAaBxD2zorV7HGoB1MOOZz8SOo50BO1lImagYZrQVzoLETFnYGUe7du22H//oFtuxAwdh1DY9t9EefPgB++hHfs3OefXZXpqVdCxoqsuXr7BSqeyC1wgdElVlx/BFpVCYpneV9w2g9Rw8gjNznoHVzkr7IkTc47EogzwGsEhRZZ4LwGKMiDXD2IvXtnaM67k+Xnx/rJVyjpTeHOe8ay0VAysGsOZ4vXkAa44NxWHsEX/5l3/p+x2OYnaPiRkX09k1YpgGByJ8FhgLcnYlmqmADteLtW44NmZiZJ1HMSbkFLOm8n3GtoInAmMl9skezPrKnhRfq40maffQjgKwCJQIwJKtQzuxLymgEht7MaiodAuVJJftkTVoY8NWxm3svOi9Vj/V+ALXBWBh1xAZRxdPxW5eaQBWpVJxAAt77Yc33+wAltLeyl1d1rtgodttmn9eYEOaPYlz7ayqhIF1YN8+n//Lly+zhQv6POiJc6aAqeaj+ld7haQxaH+O5R/n1ZxkHMWsypjZxJjhmjitsoflnAj4ESBGnzMusTWxLSWzwfcZg9wrP5WyJJtYTpT2Gq0j2ucEymVBrhns1vTteAxr7GNP4xDh+MYv3cuL3U87C8AKVQjZD7qXr7alr73ErBWAldKvQos5YJUYok30gZKG1G+AEmk7Oq4VCsJ4QFZ2LXpacZ2/nLhVU5SsVNsqrYScCL2n9yNIzEe+30WSsBh1bWCP66X7CutkqHrnt+RMMT3U1Nd5R2NDEJzPr0SCYfj5Z+2Zn97sD4eESCcAWJXK6BU/f6orA4iHr4z/gy+SIHiePppz8CkU/QkvjgNUZy0APB8eHrEtW7Ym60nRCkUArGJYzxgi+DW5vHUhf9FVtsFFi62nq2wLeqiYmrNJr0oMix8Rd7OJ8XF75JFH7aGHH3YfeHISAGuvjY8DmG3zwg6yQZnH2JqkDeLf0p9aH3yNpejFeMWefOIJe+TRR1yzmHtZsWKl2zDHrVtnSxYvsWKh5OsVYAgZNVu3IuVScUDsDW+40F71qhO9yFY4t9tQHSHi/pnPfCbfaDTq73rXuxxD0B6fBSVjAIs1UgFqAumw1vCHtTeoOAj2HOcRaCi8gnOJgaU9Yi57fqt1PAZQuS4AFoFO+UST9bCXDS7sso3Pb7U7n9xiPX39lq+M2nX/9k9H0E1udbdze68lAytMrIYDDgBUpAvGlEc+FzWRaoVQ0YQWKpUP45kGB7xigyVKxKZPw/GPTsEwYyDwHRlpyrdVBBs6NPmiSv+RM8H9aVMW4AWAhmA3UWcBKNwXg0PCuYBNTDbeB7zivmRI0HlKd9T9KUIrx4WIGGmK/OM5GJwMOv4mhREDY6YN+1gFsGaaUEKfaWOE7ehL2otcaFVRou8BMRkru3fv8X6+8cabvcIgOdTPPbfR7rjjNvv1//gxe81rgnAx/wYGBp15RT8tXLjIqyUwwzwdjA0i0VjQNJgHsOa2IBztow6VgRWPQTmcWQCLjUNrhViWcvDF+ow37ZnaIp7fc91MtKnxXTk6/C7jgfuKnWaxaNgs5wGs6T1xuKsQsu7/wz/8g7P0YuAhBrLcwE50bELwJVD6MUCDwR76lXVMexnvs++wzwDOq2oZIJkcSEAnnFRS6AGexLaIGVqK1OneWC+V7q6qeXzG77p+zJx4CeZ0RwFY2DRoYGGbyJbJAlhxdFzrCT+Zr+xR2DTYClovOI9AExn9WcZKKwArG8F1hzFxDmXkKn2UFAzKcpPaAUASH3uwPj6WGFjVanVztVodYl7d/KMfpQwsB3YJOvb2pal3YWKGSlwuWJ20q7PqiI6TDrpvr8+lpUuXWF9fr/fp7l27pgFYaue4Pz3dPBHlVhUqMSGxaflHv2keC4zUmsI12Z+kt5UFsKSph73JuoCzASit4kCsJaShAGBxHtlaCozo3rTXaJyJIaogTxZobTWOsuNY650ALGxeqhDi9Ooz/ZwLQDbb+tRRANbpZ6aP07dita06/zLLlZKAtrNzpmvAxu0VGo8hO1WhLcWmnI3FZ6FaMv8JHmXgasV9lPcDpl7hs3BtAVzhvHpvuhg7n+Ql1PXCj1JY6wX9FksrhCedFjT2Ws1Ue070Z5Mj9NgpaLd300Z79OYf+fudBGAFDSz8EAJZaFAhVB5YabglDeLrSQ80m8F2II0Z3A5fB62o8cqYTYxPWKOOzEXJbQ6f04l2b1jCQpCef329vQ5YoeeK78N6wt+aM/i5+F740KxT2DrsX4Blz2/e5OQQ2aYwkNGyQxeJbKrpYHXDJisUZttv+PyPPPKI4wOIuJ9wwnpf71inyqWyS7sEmYOmTVSCljXPxzoBA+tVrzrJUwoB9zyT1RodAWAxLS6++OI6GAPr8fve975pWtdqL7UnfQC28LWvfc11w8BRZEOwH8QBSDLA+L60rqQfzrkU0JYdqD2EPYLfGR9gEOwFHI+dIJIOACX2KOfnxWeklMb6ru9///vdnsGfZg+kb8Ezfnb//bZ923Z79tlnAN46C8CiYUBqqTjAIM9GXtgIaRQeFnYNk4LJwcAlYsRgViqfl+5MRGwxsgVg0YGq+MJ3xY7CSKRT2CChRVPxAAdAAnPqQDqETpUxwbmUxsfkpjPF/uKcilDzPs9Gp/FTlGtf0hOdEi3OsWHAs5E2SOdyHbUJYAybN5O+lfaVznWsAFiNRqOZNfCzxjnPjJFGu9POct5oT/qJCSZQkL+D9kjBF8kHH3zEbrnlVkfumWiPPfaIveWtl9gFF5zvCx8gJKj/ggXhHGwGVHQTLTndzJPdH/ptGpnM7LqBtnzEXvMMrDab9nAAWL7FJwxLWBAtHX4AACAASURBVDXf+ta3fAOJASyxZBTxFsuyFYDVyvHUY80VwIoFbFnb4vQU5ojWMN0XGxmGBAAWdO4sMD4TSJ7c1zwDq41xx5oE0xcDQ4LHtK8El9NocRKRZP/q8YhnKD8f9iHWGBwPnOUg/s33OCcGH6wffmdNZK3DABIDFYMILQLeE6Aqx1IpbHG0j/uKgVg9qlIMZxkbbbTMnA89pgEs9TFz3QGO3bv9nyKXau+4j1rthzGoGINcMzFVBIgqvQzdTYxmAG3GUNj7ZpejPJYArFqt5hpY2GxoZv6Pv/vyNBHzooNGpYSxINbKVB6T6wEBPDsDq2EjwwectRBSXnD8gvREPL8UDHUAIBIfF2DJ2s3x2KeMCb7PuWMdFOa6KkzFfSb2mPSqtG5gH8WgF+s/AVKVQpfkhexT3ZsAM40vBZ71DPE+40BF4hjPNNOza0k8rjUvBGBhF2tMcj3trS92PepMACtnC1cO2fEXXGz5hIHlRWBaAFjqu7Rt8wF01fvhlyj9LGE4yd4VLCIS15RgewJxBTpUknY4Ze/mctxP0MfKYF4JKBZGRSg4E92Pf29q3dG9uu0UpcyFKyn1MapmGL03xTULel28dm18zu794Q+smcvb6g5JIYSBRRXCWo125qmwBaSlWnf7AFBKEGLwT2nWhvG/AGCNO4A1OUEWkHmKIIF3n0eJTqt3AxqqSfV0AViul5cvpIxORNXpDwAs/HMALNbMFMAaGXZNYfx3kUEAsGBfMY/xaeOADGL0sLf279vvtgzn27jxOSefnHjiSe5bA7b39PTagr7gl3nVzGY9IZ8EvWsArJNPfpWVy8VUB6vTACyek+cF7AMQkm2u9lJQGp8Xu/Kmm27yVD2wBl6swSoCIskCAVis7/Qtdqj2Ef7m/SyAJTIO4BX9QKAUcAqMQlqe4CdcD9uTF7amMBEF8LAnhNWQ0cRY5Pt8D1AM3+naa689gm7ynO3MFxw4IwOLI2lAbp5/NA6DkkaUM8ZP0FXKjwMycTzHsPGykeKEsYnHm6w2TBlnMgo5FgCICJM0QqSdRKQJ9g6RJkWWFMEWU4v3+Z08XMpFMkC4Lt/BceUzzs37INGAKqrUovRE3TcDUEwsXYfvqTIY+ldMRp6f9ylXjnHBQDrYZn2sAFigVzMBWPEIUxvS1iyeTt1PNnFFJ2lz2phx0t+/yPfJsdGKPfjgQ/bAA/d7/+0/sNde97rz7LzzzrWeniDA39VFqs9UDAo036MZaQphPq36QlWOFB3PTIF5AOvQF48j8c0jCWCxoUiLSGuZnH45EjGA1coJjef3XB1I2kkMK36P0zrk/GidkU4Jawn03l/8xV+0173udSngqzafB7Cabz+c40+FPmKjQSBjts8DyykUgIjXQTmNWpf4jL0L2jhGDBFLjAaMA4xFVR4j+PGe97zH9yc5OHPs58PZBC/mXB0PYNGnBN4wTLNzS3sWPxkfArBikEN9TyPOBEhl388CXjGoJXtGUgbsjzDLf/mXf9lTtSRv8EoFsHDMbrv9dvvSl/6H23PB2Q+aMTCxNHdhYGmtx+EPdkJgX+E8VpIiQ85+9UIdBDEDu0p9qTU6C96ov7Sey4FhXMQFizgXdo60suSIKIWd68hG5jOxLnA2eU72Lb6PjYnUhqL4AtNiW1iOEedTUEZSDnoegVr6ezaAKR7boZ0T/aKEgYbzgwYWzpHWRN1bfPyhLjCdCGDlLG/9K4fspDe8yXKJpEgzYeuGQZYBnkk1U8A1FGib9iqkVKyQOuigU1yAKM8VQ0LeVCA3y7gKqYexeNU0gfcomBugJ91j+I5XP/T5JG2nKI0wrdYcY1voekUphMmv8X3nYWRNKXk55LV14ya7/cabrZlr2uqh1XbHnbfNOnSOtoj7OABWrXllPl9yGbBGg3TBnE1UajZZqyXBLopIhH7r7QkMJHCpEMBEX2rCJqsId/vMTNP3BARrnYhB6aCLl7MeT5tGPD2sJaQIAjrhgyEDhI40awlrAfvXyMiwbXxuoz366CNuj7I2QSQgSAIAogwZNbz73Q3kFiY94wpmz+bNWzwT5oQTTnSfDJuVqoSViVBcprun2xYvXuSaW8jBALhceOGFtn79CZ7+yPN7gM7s8mIx94+zdvLRPyD/pje9qU470mcAWazH2HH0Ce3HC7wBvxXACvuPtsgGxlkz2aMkNwSOwrgQgCW9RLG5sgAW5+MctDnF5GhbwKqf/vSnrpPJvdC29LUyoLg3PmNfgRDEvXEe7gObgj6XViP2Bd8D52DsfPnLX+48AIsNkEYBcUWsXY0tJ5AGoTFAcZkkNAqdqw0vjgbJWHPjIRGz02bH3xj0UKT5yaTUpqtUP4x/0MVYc4LfZRQqBYiOZAKCjHJ+RdTpUDqc4yTCyk9VKpSRwT3zfLE+AcYDzw7rClYE5+YeOT/XY1CQFjeb3sgrDcASKMAkYkLHY0AgqNJp+JsFASpsX+8Cq1SqqfA+0acVK5Zbb293klMeFvipV3Ak/Z2kuko9EWtNja/EAIilM8MmPc/AOvr7wtQdHCqAJSczNq6Z31RKhYEFjToLYIntxNVbMbBaGfaHCmBlnQg5WHJcdP9KG2JjYlOZB7BeODoPdwphbKS16vNWDlQ+fzDmS0gBoU/ZE3/4wx86gIUhwDoozUf2Dowf0gdjAOvlNB/neC8dBWDNRQMrfu4YwMJeICDDnpZdc2KA6mBrRwxc6Xff0ZKouuwi/hb7CoNyw4YN9tGPftTtJDG9X4kAFhpY2J3YpF/42y95f9AOXjU2H3SoiCQ7iJIAQsEswAkLTBZp9FTGYYkH3VM8NEAtAZPBnMilhRkEFPF+zDCK0wS5NgA1zgM2pJxG9p6gQROqeXMMa7wKLGRtR+6B45X2g4NJIAPBXdk0HMPvnIOxEju2srOV5qrxpXGjZ0yBvoNM9CyApXZRewD8wtzAdtexuh8dO8d1pOVhnQRgbdhwhj8DsMziVavs7IveaPkuQIYAavjYidKE9cAhDTDYtPHeonUkbxq3AaZyECvRXeSEAFwOTjnIFKzcvDOBEvtWn7nMxjQMK6SkReBSuP+EeZXesXOLE62ucB3fAkNm48FfIU9Mku1J+4jRNcXBkg7Yc888bzdd9xNrAGCtXu0SIrO9jjaAValUnYEF8wqQiqXosceesYcefcrGJ+tWRRosKUAGkNnXU7YTj19j5517SqLRh9YRfkzN1yAfC0GZP7SX/JdICF4+a61ai/T2YHbVbWRk1MZ9bas64ISPrrUA4gbFsfbu2+Pgis4NSYV1Sxqa0t5TlhPnRAMLnxpwA3sGAOvEE9c784q15MCBYa9CyFoA2SCXb9qWLYF5ztp10UVv9J8U4wpAfoG00stzHQRgiaHLmqy9gL6I8YiZ1j3amrVZoGRg4jW8PflMGlhiy2kdB8CKNbBE+OH7qlzL3gLbn/6j3xVQ4V54j+/zE2CNf7DDYNJpLyCQynm9AFq97gE9xs4tt9zSmQwsOoXOQgCZVMJYaDg23hj4NAQPS0fEFZeyVFgxqOIFiU6AfQWzCT0QNncmGy8akgkHgPX00097Y8vQizdh5far3DTRKjbrkBOcTxFmBgbn4z5xJrLpOzJYNEgVLcPpIMKEs8Fg4jnoaDoZBhb3PdvrlQZgCT3WgkdfKCVGE1ORSsYQABaL24bTNvgCzoYZhBCpoDOlCzBbO7/g80i8PXY7tfHOugG3fcH0C/MphG223ZEGsAScKkIcR82z6RWzAVjtPJrGu5gV2sD0vkB9OUNsZGwoSiFUym1q8M5QkCD5fD6FsJ3OOYRj2wGwbr75ZgexHn30UQ+ewLSCKawIGsAE2kasfx366igAa6YqhLGIe9wPWQAL20EAVrxGvBgAS45/DBZwvpCuGlLsSe349V//9TS9o5Ut1Wr8HGsphABY2G1kBvzNF76Yln93ACuXdwZWV1cAdeJAQYN0nSToWUg89okxSskH1gNMkMBcmqrKJRs0ZtA6WBYFYcWala4Jjg3vKVLPsUrbUGl0PmdNF/gEUCngkp88n4R8cUywNQGwWDc0RuQwiY0nZ4h7VmCE78ZssjjtkfPE7I6Z1p6ZACyuwTVhbZD1wL3xkn0epyC9mHWtkwCsM84IOmAANsuGVtpr3vyGKbA5AbC8fxIiFEkE2LlYt7Fgu1AhAIAYTJpaJxIWVgJu+PspyDUlxC59LM6dZHUlQJffhRWcARWFg5M8vvC9WNA9BIndVk7A4JTplXQuqYYpZyubAhkNAD9H+jlAja4TLPEnn95i13zvx9bI5QIDqwMArPHxyhU/j5lfCXgDFj46OmZf+cq37Z77HrJmvsvq+ZLVJquGPpnvGc2anXTCWvvIR95vixYGvaieHgCdUG0w9EjIKoH1FOZqPh1LQfw9pOmOjY07oYKUQ2lk4VdxD8xRsqMgmACo8ze+1u49u61YDKmqSn8mzYw1i70Gkgb7DWQQzo3dsnHjJqvXAjuV87MPooEFiMW9stYAZK1aORSA9nzO9u4N+tcwzIaGVjkDa2BgkXV1l/3eu7pczP3yXK5zGFgxgCVAyqdFkp5+sH05XuPjdZwgDH9LA2s2AIvrueZYuezsV/YK9pBvfOMb9oEPfCBlkhNABTcBbOS+qBTLC1tU+EeYjmFcsoexlrOGs7+wlxH8//u///sj6CYf+u5w0BRCPRgNADUNxE7pfdrEGYQ0NrmSTBRoaQBESsXQOeJOzW5INBrgEJNFUSmV9uRYNn9ySAHIlKbI+wLK+L4o0wKrOB+Nz9+i4WM0xKLydLo6Ts8junjMFOP7DBZSelSWnMnKJAUoIyJKJH221ysVwAK4YtGUkH5s6DNWoKMydnDgcCJY5Iigxq8g+Pfi51ArAGu2fnsRn88DWG023pEEsMTGlPMhB0ebuNidWYM9y3KYDdiaiRUhQJcmiaMjcWRfDkXMwDr//PPTPPs5zoF5AKvNcdfu4XMBsBgHGBACsNCSxGhQtV4cWAVG5gGsmXtgcnLy3EKhcHe7fdTqeOYgDKw/+IM/eIH4tVIItT9pHusn35Xhzr4l2yE2Xls5+zouZlilzIpEgyjeE/U7P3EmVOyGQNnHPvYxBwqy93iwtjnWAKxGozFEXyAz8PmrrvJUFg9MWLAJS6UuW5xoifRQICaft2qiUzU+NuaOO2LDtAt/47ThjLtOTaKBGtuf8ZorO1GBT3c1E/aT2LMCHFnLxbDiGnJKWO9hVuFQSg9RBRhkL2Pnsl9xbTmVOBaMUV1TqYv6Tnwv/C4JB43PGHiLx9hse4o+l/PF+SRADIuUoC6VuRmnXCPW4ms1H9qdxx0JYFnTVg6ttAvefL6VS6WEdSUmEiMQ3damp8nh/BOuDQBTInKekG9S0EmAT0LMSbMHEpvY7eMEPpKIuwfpvLFDOpvSAqeE4acArDSYmyQ2hHMlabT6LTGeE0mtKYJQwq5yrSxlDOrYpLMT6aYkQ2IKfPMviP2V/PL401vs3669xavoDXUSgNXMXZlrAgqZHdg/Yl/+8lftoceetmL3ArNCd6gQiH4Vw6BRtRPXrbbLP/oBGxzos0YDORoCFqUUwKL/WCsmJiBhTC/+E2xJn/kOYHV3hZSx8OUgHg5jiuMAptDBktYzvtiePbsdRJLtK2YxxzC38WfJKgKcZl7jK1NYC+CMtUNZSkEntNuvy/eWLl1uy5Yus/7+hUbAYPv2LV6cC7CMtev8819vCxb0+bXRDAXA6pQqhCz1pBDGAFYcNDgUAIsepI8BsHgpVXA2AIt+g+UG4EVgA0YVeMfVV1/tWRv0p9Z98Jv777/f+5pjwSsI4gFiCQTV3qB7QKrghhtu8L4HgPzKV77y4p3vdhf+ORw/K4DFOUgjJBUHrSuAmzhapGuwWfKggBGAWEQoZQQwicTe4vjYkZNxxiZIh0jgXSk3DAoGDI4AAJbE4LMAlqJWigox+RDFxRFUyUsJsEq8nUnOAJQzKR0Usbz0PsYFUXLK2nOP3BvtwDVAqZmYoerCwV+vRABLExSDH+eNdpPBR18x0R566CGPEMDAk4aZxO00CeOWnc3gmq0fXsLP5wGsNhv7UAGsLGjE30ohpHwtUQScBua4mJux5p0i7GJAxbfdLoAVr28aq9moTOywCsCS8c9nGBBKIZwHsKYPoiOVQtjOUJ0rgEXaO+zlH/zgB07jZ//CSGHPYF/C6MCgePvb3+56Ch20tsXN1TEMLOYaxtsVV1zhQRXmHO+x14uBpX1f81i6ROxd7GHYNnHwS4ZrDFBpvuunWDqzjTFdi3PyHcYH90ewjEjrhz70oWlamzOB5dP3yyk2hdcX8+JgbdmjF+dyuR/Pdu8vxeeIuMPAom8efewx+/znPuf2Kes6tiS24t59+6xM5bec2cIFC20JFQZ7+zw1Z//wARsBGBIjJQdzoJqmY8mupK/jLIMYvJFcRbxux8/OOFDlSAAevis9q8CkCDpXsjcVOKG/FThl7xLAxTOxVrAPqFCQQCLuV6wujRnOj82q9MPYsdJ9xgCWu8ERYyYeu2KwxeOMvYm0FWxh7GucqKz9q/O3st/aHScdCWDlGrZ2aLm99c2vtVKSQihIKJbASvCrJPUvzEnXaktwHSUdKr0ufV+fB3Q6HN8MFfDEnBJo5edMxnsAUBI2FqlqUQqgM7HSVEIfFX4/AtVcB8uZGmH98N/DAeHlYyhBrlyfNhwLEiVulq87mWtOKb+HEz3w9Db7f75zuzVzDVu9eq3dfvvLP4VwdHT8inyucGWtGtqW9L3rr7vZnty43WqWt1qj4O1TTCrvdXeV7OST1tmFF5xjPd15B7eaVrWuLvR682nqM4CRUoUdkEzSP0O2QPClOQbtKUTcleGCrwsATh+xV5FFhQ/G8awLu3fvcoAJhpc0+wTKc27WHnwwrV+cA8AJhhlzXQUm0N2imBaEAwgIS5egM91jpTLZTxO2cePTNjo64msEYNiZZ55hhWIglRAwIM3QXAOr2DEaWLQtbSaCjPaBdgCsrP0PdkJfwc6nD+kjpXzyfjaFkEaD8IPtSLvTt+wRSFVIA5w+wrfGZgGs4rzoZaEnDs4CaUSveH/jd/SwYHJxzPXXX2/f/OY32zIY2l3jD/X4OQFYpAdigOMEyhBT5EjOIB3CJg0SiNGOccigZyLQEUrP4UalN0MDswFinLEhSs2fc8tIoDGZdBiNNDxML23YunacjiNHFPCKtD7l8fJ+yP0Ffd7jwEm8MDBIuH9FrQK9scs7msGD9hVRJgatAC7+xqgQ7W+2TnglAliaGPQZ44FFlbaP6eVECBgz9BdjgEmpxUEGUDtGzGz98BJ+Pg9gtdnYhwpgxZfRWBGARVQiC2BxjNOuE807ge3SIokX9JkArOyir3toF8DS8VxHhgFOAimERFNUJaQNp3OegdXmuGv38LkCWIxB2Mvf+973fAyKgcV+h8GBgQhQeckll6Qi7u3ey8vg+I4BsJhrBOP+6I/+KEltCNXopA+B0S57Qo68DFNsA/pTlYuDMyfGRAAmtF/Jbgl+XYhax6zLmfosOCnhWKWZ8X32Rqoevfe9702dCp17tv4/lhhYExMTm3O53BA2GJHlL37xiy4vQR+KAYWdSJvRhhzHOi9xfgE/sd3K2q+gmuxTpZpngUg+F8ikz3SuuM/VhwBJWQBJfRyv59pjGGOcXzYq5+H8rBM4JgBYGp+6ZzErsF/5TEFh3ufZsvuG/tZ9tLKt9J6uhR3M79jqBG5xniRaHKdpaizqe7ONzbl83o7tl9mrHy8UCqfM5RpzOaZarf7Jz92XT810LPZtmkKYa9q6oaX29kteY2Uvdz9Vt8/TB3WS6BcJnjsbMPl8WhpfzkJtO2dTSUNKABZsK4SWAtPKK9VNkZumvsf7ArMAsHSd5Ke0tQIx6iAAln8apxiGVMhQETGAVi8AsGLgPGVzvVBL8v6nt9vfOYCFBlbnAFiFQu7KZgMQumnNOml2EzYyUfN00UYaOAj9Vy6a62B1lWEg1b2Ker1B9dKaf1/FJxjPMUASA8raV0IF1aD559IrSXaSip6xLsD+BoyQL46o+ujYqE1MBEFy9jR8db3Y55SpIBmfwYHFttTZVf2+FgSmaSioxd+rVq6yZcuWe/p2ZbLiQvLbtm129hh++Jq1q23duuOsVCqmdm5fXw+fX14sljsCwLroooucgUWbiBjTCsA62P4uko1sBaV18lMAFn3HdXixzvN+rIHF+9gqsltYewgoUHWd/gH/oE/ATcAx6HvGB5gF+6PO3cpe0T4GMIbdwV7UkSLu6gRQPFA4UDxV95Oweawbw4Mrd5+HZhIoj19gUbyxMfHomCDq1h2EOBOBMwFK6kAmF+CVqhHGRkRsIAj44nywedjwOT/3JUX+WMxZCwTn03clgMZAALxiYJAqKAFNjmXycm7S3TAu5vJ6pQJYMgppVwAsxob0G2h/xoZAScYX6K8Wh1bRwzYc+bl0y5E8Zh7AarN1XwoAS+xOMbCkn8etthK1nQew2uzEI3x4pzCwaAacyJ/85Cd2zTXXuOh0FsBi/3v961/vgRCCOR366hgAi7l8zz33eAohTGwxw5n3MOAAOlo533yPwIuqGouiL9YV/abvtQImtI/N1r8xgCUgQhHRt73tbcY/7JLU/02YMwc777EEYI2MjGzu7u4eoj+wBb/85S97eoykH+gP7EQFFQlYYnOoUhR2oYoRqa0VUBPAKDvQ/fDEgYwDsAKu9LmCprJfZbMqRZ2/Ba6pn3TtOBUUu1IOpgoMKUWFtQEAC9tIgRPOyRghWs89eCpkopvGGMFmjjWwdO2YHRXfq+5f9811xA7DlsbmRZoDfRycp3jsx8/eCqCbbdwf7PNOBLBgNq1fs8Q+cNk51uWV4gJ7yceM5awuslJAe1LQibkKwFRIUsGmdLwBmwKwBcAVKgIKzBKIHgNOCdMqqSY4xdxKAC5snYRN5WMgKX6UBbAEL/n6JcYV6u3+/2ZKntKTpePbReD5KwBZmitT/TwFcMVAGEfe/eQu+9w19/g3h1av6RAG1vAVP49TXFkolP1x6/WkTXN5Ly7h3Z0AePSAZ44nb3p6Za5phSJpgQRUAhAVB0iz630MQjvQlFQt1HbAvAWUUmCWvQ4iCmuFF5Zo1LwyIGsjx+ITwwLCDxORg89YQ0Ia44T19i5wRivABvsk/jB+2vLlq3xtwA+GkcXzHRg+4ODY2PiwLR4csNVrVjuosnLlCtczFgt10aKF2NzHDIDFmpj1F3wWRIxnAYN6n79pe36qCiH9IRmmkJoZmFkqwpEdDwqm6ZzpWpME2bRnxeMmvackFTU9Z7LvCYvhuO9///udy8ACvYOahuEn6jMPJQFKHlx0a234NL6qsChnlONU5jfO/Zdou6JPGgSafPzNJGLyEXWjs3Ws0MK4A3UvbOJMNowZzsHE1aSUfhbfjw0QnQ/DQKkebNhKL9BAYAKTVggzi818Lq9XGoAlphptI0OI9zDOhPALiNRPxgeAoVIIDxYlnEubH+Vj5gGsNjvgpQSwtAbJ+WFuH8wJjZ2P7EaR3aC0gej92OmR0xBvYPp8noE1+4DpRADru9/9bgpgsR9Jb4n9iSAI+kZz0VGcvXWOyhEdA2DROoh//5f/8l8c6BATm30HIxGDXHNQLangFvYMhqVS4bU3aR7HKYQxSJBdC7I9FK8dArrEAMc2Yp0COHjHO95hF110kTsPcghbGcsvPP+xk0I4Ojq6uVwuO4CFDYFdevvtt7ttSH/yPrahhM1DyfgRd65Y5+lv+pp/tDH/VFxG7KwYrJLtoqCH/o7bWLaLgC/tI6HEfXjpWvH3sgAQnyl1ETtVFQs5H2sD+iXYogKLcBqxkxiTArBklzOOGa9xpD27f8X3xrPrvLHjwlwA2BXjSiCv2F+y1eNxmAXIXmzAsRMBLNCJk1cvsQ9fdob1lpOqtBHZCKHvFNhRRcFUaJ2qgKkYlXdTkPQOElKqLhhYViFlzQGqpPpgrhmup1TE8H1Asqbl8gVrkp5cKFizUbN8E9ZWeHkKYcSqmrqFoGDlGlcRIDWVYpgAZ4Ba0sCaerzA5EpYZ3zOIYUUGZtiegVBe7Pbn9xl/9d3HvQ7Xr16qDMArPHhK5r15pWFQsnbqF4LLeoAtANY4YFD3/E+mUWhQFVokYblC4CcAFihx1rNG/mn/q2E/eu+VQbAIjVwz54AYPFiz4KFxbrCekj64MTEWApg8R5ZMATcWDP4Ht/hnwK8aAsCYLEGsR6xFmDLrFmzztMKQ0X5hlUmJm3/gX02OVmxam3Cli1b4sfiTy9fvswBLDFUBwf7rVgsdSSApSwh4Q1az2cDsETeUB9yPIEW3pcGFv2kFEIxsARgcTzrNfsL+xh/a82N2eM6v8/dZG1gsWD+lwrFdI0JIzJULvUCDZaz3Xv32YH9B9LU5htvvLFzASwaE90I0ghhz8TpNgKxGOSiXWtiaWPneAFOMh5iKjcdJ22a2NHT97XAcn7E3Jlo3BN/02EyLmKDkve4hjb5+D4xDET7zqYrKkWS7xF1IuKFgDtgGANGETEGGhExwJbYUIkNlOzvr2QAS5OcnxhcGJ9KJRUFk/ain1jsYup9FtV+sQbRwfroMH82D2C12aDzAFbJ15j5FMKZB04nAlikEAKcYBDSt+wpGEAAWG984xtdm4D3O2htizuoowAs9Bb/+I//2Gn19Ad7EnYJ7a99XmwcBeSkYYTdIYHVrMEqpz62Q1LnMIrAZvs4C2DJuAc8EGOIAjKkE6PDibOg6PwrDcBCA6tWq3kKIX0EIIXuqoKbZAugl4qNQb/SV2Il8Tu2o4JjnIM2VntmASzZsXIaBWzJzs32rexQ2Toxky+OgOu87qYmAvB6T4xAnisOCnPPpBpjb/I+98B4BZiTLYXjyfkYy6wt0sDKrqQxwBSDrrK3sWc5Lz/RreEf7Al9Tw5T/Hc85ltFXNZPXAAAIABJREFU+9s0A6Yd3qkA1imrF9tHLzs9ArASRSuvQDilFxUYOK40lYBUAFipsnkAPqgWGLIF/VivWCgAy3Bgp5xUAViF5NgAhwjAyrsDy9gEwCo0G9NSAacBWImCfD4RZ0+KBUZ9M/UMCZHsBQBWeIpGooMVHGQHylIAK2GfJVmHvH3bk7vsT7/9oDVz+Q4CsPZf8XMM6kqYUzxho5G3ZsMsX0ArrB7oV97R4XOHDBrhT1/LHUAA5uInKIISOCUxljDZXABejDbWjyRtMMEffM3wQ5sunq5KqMxViB+sgV5tcGLcGvWaVWs1ryxIOuG+vXttxKsXjvr6ic++fds2q0xOuo5VX+9CO++819jatWt8jSG9bHBwiVceDMFg1uMJ275thzOwYJUtWNhj/f3oD5rvrSedtN59u3K55GNwyZLFpBReXi73dFwK4VwBrOx+fygAVlYDi32LdlQadwxgMeOmBc18uIR5TpqyA9j5ouVV4sHXE42/AGDt3BU0qwMIZtbRABYPgVFAGiH6EdpclW+v6E0cpRLooE1RLCdtdDIK2LCVu8/5tDlrc6cjZDDwOVRIROJBLJlgqkAoho82ZF2X6wjIkkimzi0GhiKs2pjZuIUw42iweWNAYEwqDxVD4uKLL061FeayQb/SAKyZjGv6U4LajCX6X1Vt+Kk0jlbG/1za+WV0zDyA1WZnHGkAKwZNpTMTrzlu2EXaNvFmkB2PciLDIj8VoOB88wysNju+jcM7DcC65ZZb7Nprr/VKMDibOIcCsADrAbAobyzB1Daa4uVyaEcBWFRTvuqqq5xRjh3BfJVOEvu+9H40j5VSIVa5NDCyIJKMyBgU0NpwMFCrFYDFOSTTwP0QLHvPe97j+pA4D62YLzMNhmMphRAAiyqEelYFU2lD+gUwi/5lrmFbCMxSgJRjSMeDnRQqdY24rafAJeeNGVgxSClAKWZa6T7i/ogDr+rbViw8MZ1iEEsAFvcWR9ZxVJCxgLnJ+4xJ2A/8E4AlJhnjA3tVUfzZAFOl8/AsfBeGBVopnENVwWPQKz6f2ic79ni2GAB8MQtVJwFYZ555tj9qvtGwU9cM2G9cerL1InjkOkjhlephJYwmZ0Z1FT1tjFehVrMGaFEzMK/8fEl1wkIhSQFMvzsFbDVIX8uXzIpdDoYUa+NWrE06WhRSEkWzSqoSNutWQAR8qjhiwvTifhb6xR0LqU5YoY4ej0C2nFUKJavmex2wKjQrlm82rFxDQ2nqOjUr2kS+N1HmatjC+rjrdCV8rtAWDm4FVXd/5GbTbn16n/0f333MPeeVQ6s7goE1PLz/ilwuf2XTaWToVlG4DJF0qqM2rJnahM6jS/XuU1JeTiwtZHRgYoXWCT9Dn/sRiW3qgvrhkGkAJGwvPmPuAVjBopmYrDjYxDmwf1kjt27d7muIoxOe8li3ifFxm6iEFELSDzl2/779Vq1V/Tz9/VQcPdPTANkv+/oWeEVBgCvGLmsp1wzF0fC7C7ZooNdq9art3rXbFvYvtLPPOtuWLFma7rGwnru7yx0JYMFyFY7hczTfOu1zNgCLtZJ2ow9oD86jFEKxrQRgKcgiBpaYxlpfWwa20FdzoHqqMkS+yYoQxmoYSXCwwmiEvcdYEHuP9zoewGJzRAPrX/7lX5yqrYeLo4Xa5LTBCxiiURXRbMXUyrKuuBYvleVlQnFO/lbEjUnI7zpGLJ44chozwqRtw3EcQ9RNqX8CyWQMYSwAWuFcMKAwcNjIReeHmYXAMlXz4o39YJt0Yqy8LGl47RoXzfAK+6GqkbRR1UhRbQEHMtQkoD2TUdTufb4Mjp8HsNrshKMFYMlpmQew2uywo3B4JwJYMLAEYBGJBMDCAMKwFAOLvzv01VEAFhHor3/96w4qwsJiH1KQSxXV2INkqwjAwi7hd4EMslu0F8oWyDrusn9mAhL0fhzc41wuzlsquZ1y6aWX2vvf/34fN9on3X95hWlgAWA1m80h2kep3zHTiT6jjwAmsQ/Rx4L5SNBT/Uc7i/VPRgEBM4GCtKnAriyrKJ6bsm31Hv0g4Er2DPclm5LjtLfExwo4E4ilsQULguMU1MVRAcACXOK+OE62qbIiAOcYMxyLDZvVetW4lN0mp4trqKAEAGmscRUHp3U89xqnzcxmA2fHfbtrXGcCWE07bc0i+8SlJ1lvqeSuYSOFsARgCMppWGFBl+UKRW+awtikTVrdU/aUOgiABSurVAyQVlh7PBktID85s3qxz5qlXquXkTRpWtfEHuuaHLVmvmklSbJjr+fzDi5YrWJFB7CC8xozo3ILV5gVg7tSH99npcpwAFKcKZa3kVKPjReWOoBVao5asVG1BZU9SbJjoG1UciXbV1hqkxSlsIqtquxOAKwA4qSMowTFCcShpt329H7736993Jkiq1avtttu64QqhKNXNJuIuAeQaXKSdYiK19VUW1lzZqr/pnTR/L0kz7LeqHvaYby+x3Mg+3sYC1OpoJrfkD0ARkgdTIGvBMQqlbptUf9AApBNrU0wdBp10gvHk2ka9NYa+M35UBV3wYLeVAqIux4ePuDPimg74u2ItLP+ALZ2deVsfGLCduzYaYsGFjmAtXTJMv+cdWNJ+P3ynp7OYGC98Y1vrEuncK4AVrze+nyq11PcQACYACylEMYAFuuzRNwlLcDeJt/7oP5ywrAs9i6yaj0AofXqhJW7eh2oqlcrVi53W61AUCznrMzayF4r5ABevWSEj8ybOjmFkEZn8qEnQEUl0gkBkGJhdoyqWKgSI0L5/HEDx5t83LFiaGVBDYEd2jzpfCYmVHAiT+pEsb9kCGjyKxKkTVN/K59Um2sMtqnyIOkdCNWpUiKTl0HLJo/2Fe/PtDnHoJzu/ZXGwJrJUJEBp/7PosatotXtGj0vk+PnAaw2O+JIA1gC16XPFjM45WTE0ePYiNCjxA7nTJH1eQZWmx3fxuGdAmAxBohKotEDgMW+iWFCQAQmhQAswAmcU1XhbaMpXi6HdhSARXT51ltvdQFwUs7E3gbEAMCSQDUgAf8ABlSdWKwsrSPxHhZ3RhYsiG2geP2I7YcY+IpZ44wL9K8++MEP+thRkK7V2tRqQBxLDKx6ve4Algz/rDMgO1DsI4KuFE9AO1WMK7FwnWGwf78HJul7gTXq65kALF1bMhRZG1TAE30eM8SyLC1F12WzCjRljLFuyG7kb2zSM844w9cNXQ+nhrGhYgSMU54D55CfArDivSg79uQQMe6xZwnKErgVSCoALQ4QxwDWXGy1VyKAlWvWbcPQQvufLzreekpJTUFPFQspYM7UATQq5hy8uqW+0yb7+hxIOqGRt5N2Fb0KX1LSz/oKeRsAGIDR0122Qm+vbdy5x8EnF3Y3sydOu9yGjj/eli1dbtVG03Y/8lMrPHu3Ld7/hAEhcb5msduai1ZYrVKxYjlvxZHdlqvVrFmHMde0RrnXGsWSDV3+u9bM1a1Rm7DG/XfZgVuvd+GqMJYKdu+5n7Anj3uLla1pi5sHrGd8t53zwyutXAvjdkthyB7o2mB3H/crVi+VbNd+s1/f9bf26rFbIj0tka8knBVAm1s2jtp/u+FZf/bOAbDGXcTd2VONwJAE1AmAdD2VudH6nA1+xKBUrQ5LLRL9d4CqNaAV3g/guTTJtCcBbCO588///M++z2ndYG4fd9zxdvHFl9hxa9elgQC+XyqXg8C6SCcJMYE5X3SB8npa7bBWr9nE+JiNjI4kFQuDNlNPTyiU4ftOPqRxs0axd5199jm2ZPHSBMAihXAJVQsvX7BgQUekEArAor0VcIzBfLVxdh+O18BWABbtw/sqPtIKwFLGyLvf/W575JFHXM6JfzGOkr2u668Vyrbi+A3WKHRZrTppe7dusZVrj3OQcu+ubbZ46XIr9q+wZnXMapPjtue5R6xUH7dmrkBysp/yphtveFmSb3IplWYOpjCTkob+0Y9+ZHfccUcqmsmgjWnQ2qhjI08TVgagQIxWE1PHxIi1jDVt7tyHSg3HqYva9Ft1aqtopaJHMVCmFEIBWLCx+B1DB0cDPQqiVLFRmgWs4utHRsPLchDMoeunHXI4GFhZY199rnabLarX7j0fpePnAaw2G/6lArBUaVQAlsafDPbYAc2uG/MAVpudepgP7yQAC0ea0sYAWIAmOKY4iqSgs5/wk8pyBEXmAazWA2VycvLcQqFw9+EaRkQvATT+9E//1PtG9gN2DAY1gSqxXAAzWlVzY71gDeG4GFDSPc4ETM1gF0wzQvluSNHo858Y/qQPwsCKC+e0sjlatdGxBGA1Gg0HsOLnbGXX6T2lwzzzzDPORnjyySftiSee8GAsAJSEcnG4VN2ROYsDoT1Ae4L6LrYV9V4rECt7X3F/iRGhawgU0vvcQ3wMawUAFmLqjAHSjVlHAK1gEfIsjF/GLuNZrMHYhhbY5M5osejjFrt23bp1DowBfOGUxSmFGsfxs8wFkJrLMXOdz+1cO9PmjxcKhVPmep3ZjqtWq3/ycwLLp2Y6jjFz5plnhrlsTTt1Ra/9h9cNWU850b5KJNKD/lFI38kVC1ZaWLY7uis22bfImTdrx8fs+O2uAp7mEPaXcra0q2jDW7ZaaWGfDa5cZU/s3GuNpnOwrJQze/jc/2SvP+tVdsb6NTZWrdt9N19no4/cagP7HrQcbK1m3mxBv+UGl1m9WYSKYV3j+60xut+atUpg2nR3mRVL9tqPvd/yvSNmubptu3uHPX/THWa5IAies5Lde+l/tmdOutCW5pt2XlfFyqN7LPcPv2elKgBW0zaVj7P7e86z7ad/0IZrRds92mPv2nyVvWHP951ZlVYedK2nhIKV/Lhj04T9xU82uwbWUMcwsF4IYFUqaC0DYIUK9wdjYMXjVgysmUCu+FgBWE2YNhmQC4IHABZZUwD5WqOY38uXr7RLL32LFwdhHxsbpdpgzYqlIEJPUYBiMeixBq01V13zlMhEzMtTAysT466R5WB8IW+lcqiMGgBwANgAYHEv7GNnnnmWA1jd3TC08rbYf39lA1iMDfajGMAisKK9ibVawBa/IzdBFhjp8Q888IB/r5XdwXusJ/V8yRatOMFypR6rVas2snunLVm1ysZJod+/x5YsXW6N7kWWb0w4O+vAlqes1JhIAKywdnU8A4uH0ATBALj33nudng0TKi7VyySNwSxN3hiwigGqeJJqgmU3+vgYvsv12OABsIimqnyw8kNjBkV2I5VRoA7nbxkPMYsrlAdd7hs8P3E0AK1I96D6IBN0JgMSKl5SIzW5TCLcdzh39dl22yP4+YsFsFrd2kwgwRF8jJfi1PMAVputfKgAVjx+NP/ZNNHs++Y3v+kLvUoGKwIvFqZYoW4vJukRciziOd4KuIo3Dq1fMRgbA+TxubLgt4wbRb4l4v6ud73LLrjgAncsdP4YXJuheVfncrktbTZ9xxzeKQAWDYrxxhgEwCIVgr/pW5WlZ0+hj9evX59G9DqmI6ZutKMYWMx/bIc/+ZM/cVAR+wGQSuWqATN4CQhQVaaYzS0Qg7kou+NgQLc7fknVqKwZEK8rWoO4B4AKlSsHwGKcCISIbaXZxsuxBmCZ2awAVmzf0Y/S2gRARiML4JL9QUx+9T97QlzRT/0WB9SUbh4zqhQdl8yFCgWpb+M9IbalNSYYQzgsymqQTc15GX+AmZdddpnbn4BZXBvbV5F7zilATtkMuk4MxPEe51JVQQTaWY8CYyKkiMkmjv/OjrFWdnV8zOE0dTsRwEIUef3Sbvuls5dZd5KK5zLqrlkUwAABWF2Luu3+/oZVevusVm/YceMTtnwT4JGPPm/WJV1FW7Wgx/Zv3mTl/oU2sHKVPbh5t1eT44hCLm/Pv+a37LXnnm4bTjrRxqs1u+vGa2zfAz+1/r0PuzsC1NWkctmKdVYZHbGurpJN7t1u+WrFco3gBOe6uyyHIPf6FbZs0KyrO29jOwu25e7HPP0v0Re38jt/zfadeK71NSq2oa9subERe/Rv/5unJfLa0n2iPd7/ertj1a/aop6arRws2gl3fcHO2v5dT1YMxJ5QtlCpcxo/922r2n+/c6c/+6o1azskhXAKwHIftRIykJQSnAWweNaZ1gT61HlVrqU1HfiK17V4HXGR7oipxWesdawPzjKm6EURnbVQGTGfL9qrXnWysy25Ty+stXefi7gDZGXJI2E+N6xZr4Z02ETTC0ZWdzfpZwVPHSyh9+bjPCi+1WqTBpDHvQG6n3jiels8uCSpEguAtYT1rGMYWBdeeKGnEPL8cxVx1x6ivssGFfhb6zgBNPpHDCylxwvA4m8CDgRbkJ9gD/v/27sTcEuvsl7w61RV5kAIZCKJIARMIBgQkEmmiBAECdAyiF7BAXD2irYzqBdpbYf20ooCCldve5EGRRGkRVCBBAOxlVG4zSBgkBjGMGSs6XT9vr3/p1Z9+fZ0hqpzTq311HnOqb2/8V3veof/OyzJRLnmkG/QrTe7YwIjlborB921azSH+/2txJlMGmXx7d+ze/z3GHhfXraB36ZMvlkoAysTYFEhHADr8ssv7/oLMBCSil9Ho2pUuF5gIXg+s9BrJDGLs87YyrGub9F5hmuuuaZzTNPULN9l4vtGZR+lDuBWP7N7i0ZhGkwiOgW0UuoBsWYA5DoxYmrlPQKw0rIxSqhr8LYpmWCWAdz/fnl5+ZN5/9qpXvQ6R8HxP720tPQnR8F7rtsrrhXAwpfZ3IGBr2xLrxsAFnkR5eOBU/IchyTKvZZjfXArCiKGxUGD4GADx5xTfxdjJNdOlLsG+MmS9PSj7JUpP+Yxjynf8A3f0Cms3LPugTOB8A3AWjeOHL7QjpVtlIa+H5eMlNI5n5qFv/71ry+auQOwzG0ysABXT3rSkzo9E+Bkgx99Iy6/pQCsZIa/8IUvLG9961u7SKYIaFoH5PsEqQJG1M5EAOh5VHoNUNV2Sa1Da3Ar7Rh8JniGR5QQ2jTGSIBwUgCtP8FHO4AFnArAZA7pADajeZWZAMxSkkE/oCkAiD1a07mmaWR3vzww2XL0TsColCXWLTJcKzon13Juyh5z35SaOJfNefHFF3fBDM+IX9O03XGeRYZZSk/Dq45NhYTfHFY2rN213TtgWOzYvuM6KRO+AVi3FKNdBtY9RhlYO8v+cs6tjymPuPOJ5dh0Yq9OGa395SIpasfOHeW4s04sx55wYjn++BPLjV/4crn+6i92R8dhOH5nKScds6ucvGtX2bdUChjhC9ffOMpdAkoslfKl211Yrtt1Srl5x63KjqXlctsbPllOvP7qcnxX1jcCi2TEuOYxJ57UAQtLy3tH9+g2r9vfZV14+nL2HcqxO5fLzh2l7P/Kl8vNX7hmlMHVpeOUctrZJ5Uzbn+b7rJ79pSyZ/e+ctWHrl6J29+48+TylWPPKB86/SFlx9IxZef+veX8z/51uc1No7iaXRXHLZ9Gj5UCuOVSPvzF5fK6D9/UPc9Z59yhvPPKzd8D6ytfuf55Bwrmnq9/1Cg7d9SLTxnhSJ/sPaRfYZ2UEV83+uBgM+3RtWqga3jdjYAuoFH0iHVLPrA/yLW0v0k2qeyqpSXN10dM6XnJSefUuxAGgBtNFpBs7/gedowflQmO7NFRDy/vqYF9GAGPeRYN39mwyltPOQVgfnx3HQ3dTzrppAZgfe5z3TzDHNAruiDZ3bJtfe7/9AAbUp9HYNZVV13VgVjpSz6PTbKIEYgv3/KWt2xK7GJVAFacMQyvobseA1Bef6cBewyFgFLTFqzvaqcvxM1nNYgVpe4cCLNJjOER43BaSl1/4moFX4MxMh5EySl7OwA94AEP6JyONJ+bxgDbHcBahPnbsY0Ci1BgtQBWZIQ1nPJAabjAgze84Q0dkCXrot4CPY5i32hneERZxLjIO0Q5TIsK90Fy59SAV8o38nkdMfeZ59Hf5H73u1957GMf28keBkjeMQ7JFLo2AGsRplvFsYcCWLVuT4PaUQTVnMlW/su//Mty2WWXdTorABZdIgPiKU95SgOwpszBepcQmhOG/Zve9Kby6le/upufNGb1GMlISQp/5EOdgVU/7rwG41BGS0DuOnKaRtzkE6MfgP1N3zQq98hmNENyaBIJj2YAC03MdehrDtPonUzW0B94RU8ot6E7BGNrPRGwMjZsdEP/GAAo3gFksI1dq79Dd4Cr2LbTAKzwnfuwRwGYygg9R3bC9HeazrtvgjLOcW3fp2TQs93pTnfqwCu2rc+TeVVnk9XA6FB57AgzOdSf6QeK510T84jeabp2yJ6vPjvsJYQXjQEsHv2ZJ+4oDzx7RzluxyiYncbcowyVEarV7TbY7eQnP2qUjQTQ6QCeDlAaneubUd5WqjlGe9ON+mSNdp0DPNkNMH1rdi7t647urjDe5W98sVGm3f6VPfBWdiITl3Gv/TtGz9GdOtoQ0WaG3Ri370rh36hUbPyM4z9HGUSeUFbQ0o6yc3lf2SfDL5s/HTx71Air6uD0b19ZKm/999FnZ51z7pYAsK699kvP27Fjx/P37R1lQu3dq4x3z0of6BGwc2ij9ZqvYyt0v8e0qT8LT/usXltZq/ps1T2wOt4aly4GjLfWI29kTNk5sK9H4tuzgW+66eZOFo4AOVlHe0oZN4vPs+3bn8STEYg2ek9gXZ54x8qmEuwd4NWtb3XKimy6/e3PLieffKstA2A96EEP2pfe3mk1EDk9KeDRp3FtR8QHEJBA0/S4BCK6T/wBNmOCMGR4NtoAdNENjgdkKZXPWC8Z7Hnf9ra3bR8Aq1YaifyIYjIEZTqIQCWSVTuH9YLM353gGqdK1ovz4MIc1Q/XAFgmhoEJvPLDYAhjhClWltB4e8shYzFMkXIiixxj3vve9+7q2b/ma76mS7cWCZ03Qt4ArHnMknZMo8AtKbBaAKtf1uHKhLssURlYb3nLW7o03RoMT9ZmZ3yNU6vJmW574fGuUbXzUoNkOT6GQuRc//MVRb9v1PySgxEnNDKy3pk18lDp8kMe8pCubEjPvXrH1LpEewIPNQBrgxfXoQDWwYyr+rbhFxkeMrCuuOKKjifplwRDAFhPfvKTu/8DLrbo2FIZWGjMbtEH6+Uvf3knHxjq1mMMQpkpdfAt67pfEhw5Me+81eCAc+q1HLsmNkiaypMBQCw2SLLChsCwSc+w3QGsabSPbRn5HEAn55hjc6+KAD8IcqTpewDM9DpLqWhkdOYr61x2EznNlgSMsUlzbG2/Ric4L/rFtQVc6uBJruu3697//vdf2fk6AWJAVobnjAxJKWL67Ingy/KkV7JJQXh3mqMz6bsGYN2S6wCIKwBWKeX4HfvLbXcpxxl1eRplS42Toca5VaO27ml1dSiAtdIbqvu+g4NWMq5Gdx9feZzBlJLDnd0lR7sKWvujnKvR/7PvYQdgAZdWgKRcb3Su9s2BlQKIjcCn0c3q8wJajR5pdFYH1nVAnCfPfQ8CZnnv0cUOBbBu3L+rfHbPcd3bbRUA67Of/fzzlpaWnt+VaS6PwCMAUGTIEIBVc1AfwKr931kA7qj/1cEeWH2ZE784dudIh43Khftj9ByjwNsI6AdcAafsqLi77N+np5em8uO+Xst7x2C/TDHnHQpgAcpkWx3cUffkcsLxJ67c+453vBMA5umnnHLKlmjiPg+ANUkfZR6HACx6x/cBqtJ3M1hGPqf/ZWDZ0Vr2lZ7cfJuHP/zhHe4iWD8p0DavjTLEE9sWwPKyiWhR2lKybdvp75Tr+J6irXtJ9IlUbzec72oFnsmP4HVMjA+Kg/KPMu9HKTu5Ol6saY4qskmR+63uVJlglDuljzn83/ccjkmRqCGmaADWapdKO+9op8BqAawaXKplg34nb37zmzvBrt9JgK40vaUQElGPg5IeWZ1h2fULYJQczBKtP++MtXGad+RMzkkELGWDrp/yv/q7lCz5LA7qOeec0yklJYTKl0Wv6khOsk0n8EsDsDZ4IU0DsDihImqCOjKu9Iysy5QAEwmIcHrNMwCLk5mf2lne4FdZj8tvGQArjoG1xG543eteV/7sz/6ss1uMtEJgJyQ7JYG1OgAWJyEAxCwiBviK/AkAVZdo5e/YJTJ67ApHBgimDYHYtXMz6RmOFgBrskN2sAwnGfx9ey7BBDYknfHe9763i2bTGR/+8Ic729J8JNAZgMicRfekwbooujXPoUj2Vw18RmfUNq1nZ8Nmd9zoHHKAPDH3MnFlT7GVkwUQ3RI+9Dne5fCwW+9617t22VbhqVr/RI/VfBO+7Gd59HmrAVi3XG19AIv/84VrNVqv24nMkhRr/x5QWZch1SCnz5Up4Su8o+y0HrErBFYE/JKMsPanmv8KJxx3fPeMhnd55z9eOfPkpaWl1+/YsePSmQdu0AH//u//8by9e/c8f7S7ZClKCUeZkXpY7evWdZ2BVeuU6JIVf7eXgZVHrmX9oX8f3IFw6Jg6iaT2n4dIEXAqMio7rY7s1T1l317JJKOEEmAVoFKj+pFeHQFpdZDY/UaydgSYHbNLk/fjO3lEFt3pTndWXvj0s88+e1sAWPNkPfUBLDS2zpwrm8oaTc/GzMMpt771KHtu547ytRfeo1z8iEd0Ooa8t0Y++tGPlQsuOL988YsjECtB+PVgd3N7+eWXb88MrD6BCHEGgJ8AViaDIQ9V9FkcPn9Lfasb3WXb6joroY5emdwYgZlc14Vg+u3YoL0xNhgeFgyhSLErz6HUGRocBs4EwIoz4dh5mHAaYzQAaz2WTbvG0UiB1QJY/cyG9K1R1qxP31/8xV90JSLpTVLvQlhHweM49Mv66ghZ5oWcqDOvaqc0hkJKBxmMdelfrh+DIzKN00yxc1T03FM65O840wG+ZpQRNgBrgxfPJACLDtKXUSayKJnsYLoJH/rxt7kTJMmuYZwFuslut5zgiy66qNNH82b8bvCrznP5LQVgJfOFDABOMPgAWeYq4ICXrhtbxyZwVlpGAAAgAElEQVSoQax5wSvXyrF1pmg/myvGvqAZ24Qx+8hHPrLrewTQZtfECZpUrjA0WdsdwKqBoKH3j+zuy+3aiawzs8hm65gta72KcCsx/OQnP7lSCo7+5iP6wtyZI/NmbQOvAQBsX6MPCEWO13yRKoLaxg2vCmAAMcmFOvPLsXEyHcPOZccKyMa2DR97DvxT646+Qzuv7dsArFtyWh/A6ppjXzfaTXKusXJcUqqqs7oyvkPLxw655jg5ymd4EF+MejCNfjJ8Tr6wMeI419cJP55z9tmdU/2V6/TPOrzjuGOOXdkRdCsBWDfccP3zr79u1Avauk8GluyrlPmGF/r2atbmCq+wLcdgUKg/dO7osxFoZPQBrCHZN3Tv3KMGn+pzO5+9q4QaZfXhxlGz91HvrRF3ArEwav4ePdfOnbtWgsQnnnBiOeWUUztbh/w8/fQuI/Tpd7/73RuANQawyFb80yX16AS3b3855eQTukb5S7sEUZbKHe/01eXcc84uJx1/XLn5ppvLKaee3umbE086rpPv+q3KJk9AZK0r+O1vf/vRAWBhWAIzfQSSfcVx9HkcujRhR3TgVpzBGA6Oz6L3u9vqc9xkLtEnkzJK1bypu4ZzCGAgFOOPIOcYUORAK46C30AsPwwNx8a5nJHVMDcPNABrblK1AxsFDrXDlpe/at++fVfVzkadpTCJXDXITZYko5MQz06EadQb2ZKMqCj+OJD1tWolXhsQdXZozkvm59Az5h3qbK7aMAmony3SgRiPetSjOueVDKsd6DghU5yNBmBt8LoaArDoPFkbgCs//sZrdBNHGEDCyeFQhg/8LQM4/dgYdve9733LJZdc0mXfzNGwf4PfdK7LbxkAK2+TrEe/ZdvohaVPHuChBp/rFgNZwwGx4uzN4/TXoINn6JcR+8z1gBBds9vTT+/6XDz+8Y/v2hj0e2/m3rOc49F9Ob5xokclLvM8czXzD1taWrpsLk7Y4IP279//qWm7EE4CVhL1ruchAFata2onMLv6Wct2q9Qolw3KZjXYj+EF/xcIZV+aK5ktsjDrMkLH5P7hvwQ9/D+BXJ/FxvUMyQaUiav/SRoxeyd8lOa9wCs8g19UD3gOP5EhuWf64OR5ZvHQ0JQ2AOuWVKkBrBUZ0gEL8wJYo2t2WFTPXRxhWwGwFBMeWsZ3EFjoZnXEl2MQ5ND5lREzzirfv1z27tvbe5HRtXcds6vLtrll9tgt7z1tyXd8Mgbfho9bad++8rU7JEMSgPWOLdDEXQ+sG2644fmfvuaz3Xpkd1533fXd+t+r/G7PqNQuQFPsx5omdWIGBuh2I+zAoDFXdNjQCCQ61BYdZXnVsit81P2229zoy5Vj6qys+hnqaoJD7qNfWo+Nu25d46yrQ78c9WUb3W+5LO3YubJL4Sm3lkByejnrrNt3dtDpp5/RAVh3vvOdtwSA9cAHPnBf5HTdAysBkGm+Suasr4vMO7DYoPutGZhGl8QDxNpfyskys3buLPt3nVTOvOC+5UufvqrsXN5b7nXXc8s9vubO5aMfv6rc5tRTy8m3vlVX/UYPOV9wLiXwa1HNV1xxxdEBYPWJ1EeEJ33fdxqj2LPFp6i2rC5GgaytpGSOkO6bVmqNKeyAVZxAUTFKPpGsGBwLGnALzX0DsBYiVzu4UWCFAqvNwEpEO+s7cocBIctCGaEoOlABmECuMOzrMiEPEWAhiiiAex4wciPyJ4orIHiOy/3rTIk6ddhxdRlh5BMFxknR88a26ZwRz5hGnCktmwHqNQBrg9dUH8Ayf/gMj0nt5uRyYuknf8eZpasYPgGx8KBgSrIuzDNHWObdE57whIV6L27wK0+7/JYDsJKBie7kAZBClubf/u3frmwKYw1HRqQ5dg0kR17MA7DXwEkA78x5XWKMFwTelJTqeaS8FD9EDgEzattlFvjQAKxDva5JwMskexB9s4Y/+MEPdo7p2972ti7DEt8koyWN9wVO8UoCqumB0896iH0bp7Pv2MaBMe+CGq4J0KYbogPimCSjRtYVfQHEym620T/TFu8QD83isQZg3ZKiAKyvu9fXpRXV6sTxGCc4BMCqsIMum3Jlb8IKxKoysFZ349lnrdy33jKwO22Kb9sBWHMCeAOPcPuzzy5v/4e3z3y4I11CaBdCANbVn7qmsy2VAwOwrr/h+i5TaRaAlUDpylrUo0wz/XFmVTfTUwGs4TLCyJdbgl7DZa01gBUbNdco+zPP6Z02AqgCnnWckEO6gMkYwFoCmO7sZBjddsbpZxbzygY684wz2UNPP/fcc7cUgIWeAgbkYD8rehKz9gGsEb1G59cAls8j//d02ZNL5eRb3brs3LFU9u46sdzxUd9bTjvjDuUzn/zX8rF3vK7c766nl3vf66Lyvve/r5x44sldxYaejnSRIIsNhOqNTGYupoED3vnOdx6dANZqiFWfY0ElEpbGZkGqMUSys9LbgHKn8E2cCUwZxkYCVv13bADWWme9nX+0UmC1AFYcvH4WJQfCTqWaucvE0qD3E5/4RJcJQ7akB1boXQNYZEZfodcZVImi1Q5pf94CqNWp2f2oOzmW3nycEDtN2fnURhKyc4z0XEk0fYY8awDWhi+gUXQU3+3du78rD+TUyvITbKGrGLF+gFeyr+LM0kn0kznPvOMruozji1cEXjTxl4l13nnnrZT9JPNmw19vsRtsKQArTkHKrxIxl2ED6AZU1L1fsl4DVMXZiOE6b3/MnOc6ycBKVgw+EHyTLS57RrbNQx/60G7uAZ6Rb7W86oMiQ1PWAKy1A1jJ5vXbPOiLZa3LyrLOlabjl7SsMEe1PqodlfBedgjMnIWXMqfZFTOBDdcUkOWcZOAXrTBUFrB5yYwAaLV+mAWwNgBrPmG3Z8+eXz6gip8739Hb76gRH416HR2aITZqCo6PDqefVVP4SANYN+/Z87z9+/Y//8tf/krZffPN5XOf+3z59Gc+U770xS+W3Xt2lz037ym79+7uemKNQB8leb3G670Up/SjOphtNXrjQzHB0bUiP2qa1FlaPp+WTNI/NhmEAc5y3SHgelRCOAJjVn66TTaXyq6ddjo9vvPDTzjh+C7jSonz7W53Wtm1C6B1Stl17DFPP/mEExqANc7AQrmVCrY9NoHYUU4CYC2Vsm/XCeWrLvn+cuq5dytf/swny1Xv+MvyVSfcUB50/3uX666/rlz7hS92AQz2qCH4JeDCJl3L2rzyyis3LYD1tK0qausygLwDw2Beg3Kj3rvrWXeLYdvSpVdu1D3bdRsFtgMF1gJgUcK1Y+D/gB+OBxCB06GZNgdVqRBQIf1D0C7R6jgZtULuK/98V2eO1tkZQxHsgFiRUbXzCqiSLs9x1evkbne7W+eQcFz6QFmedcp8NwBrgxZDjMXdu0dl6/jq05/+bLeFsR45DAdZGimjB5TiM59xSjN34QHzC7xIlnDK5H0uCweIda973avrfcNZxSebsDfWlgGwsl7RP3024+Cby49+9KMdyO23eZPtncBZbeQncJbyrXnYLfd2vwDtCcaJ5gIfAFiybO53v/t1WZjplRaHIjKuBtOm3bsBWGsHsGodEVrjCYERkW3BEZmXwGs8ZJ1bo3WJunlICZG5C8gVxy/3CI8lAh/Qk4ywGy2wyt+qDIBZfsiEgGe1zprkdPb5pQFY86zebufSBmA1AGuQWZaXly/cvW/fRR1wvWdP+dKXrusyr+l/doL1POpHpkeW7Pt9Zd++6c3995V9xT9j/GuYUfc5csoRU0/OJQ9eYWfZWfzrj9FHt/yi83f53ePvR/7vju7f8ceeUE44+YQOYD/h2BPKqaedWk47dVRm7TifH3vsse9YWlr6xHyr8IgeteMBD3hAV0JIZgosGbHPZ2W79jOw4iPgGbaG4Zquk97gZd/esqwt0km3LruUY+48ppz1mJ8oJ931oWXn/t1l73+8v1z1D68uZx1zXfnqc88qX3P+3btKNbYjHcSO4Ve86U1v6vix9lHmpaTn/qd/+qfNCWDN+xLtuEaBRoFGgY2mwGoBrBp0iqLgFCS7yfdABk6GHccIebXi2SkqZTyURw0Y1UqpNvTrTJhkadWZHcnUqgGufB/HxjGcEU6rqAnnBHgl60LfKwqozvLIs7lO24Vw+ZKN5sX+9ZPqzRCw24vfn/rU1R1fiXDFUM1GJfhPJI0x4nd25Y1TmuyK9FmqM3vCGyJojBGZeYANPMJp9Tm+YQBugrFlAKzQiiEX8ClgUDIupd9HPgAegRJxRgJmcUbMZ9oXuG4yEOrysFqWdI7Ivn2dEZn1m7Wcxu2i00Bs5YMybgJwJWMrpY85fwh8qPmhAVhrB7Dq7KjQNn2o0B8vALNSPqwclUzAK2mYzmHLzm81EBo9El2V6wfIjrMEyLQLoZ6I1r5SQYB2H8yu9VLuMyvy3gCs+SRoA7BaBtZ8nNKO2qYUWAGw6O30wFqPEkKZ+kbKEtmS9MqOpeWyf2mpHH/ircrOslx27thVvuqSHywn3uVhZd/SzrJ/abns+uJHykfe/Ifl+s98vJx31mnlmx/96K5fI/tEAFTQ/rGPfWx52cte1lUExD6dpRcyh/TDu9/97gZgbVOmbq/VKNAosE4UWC2ANWSE1w6lxyPQ9SVSAjICHz7V/a2XyUrEY5yJdUsn8NAU7KFU6mnnxEEJWCECzykBVHFagRR+y7qiGNPnpHa44yT73UoIDx+AxVjJpiP6XAE3RiDWF7vfwCt/Mwzqnml1BmAydtI7LRk1NfBaz2udpZPSJXwBxJKJodE7gAPwmcaf67QEV3OZLQVgzTLczAlZkR1LyQzZdUrFyIw048/ux9m9MGBUGvIn66bO4ImxW4NcQAgZNYCJCy+8sNzznvcs559/fgdQ9KO7eMo10oi7AVirk8u1cT5NnmYN93km/cvyPcdAtBufJEhCtyTrcpxpcIsmzNMArHojJGtfT8SLL764a/AvI5PuGNIT/Wedxe8NwJpP5B29ANYIBO4qCMe9wFsJ4Xw8047aVhTYcf/7339fMmnXqwcWHU9/JKuLvA6ABTXSeuxEGWtLy2XHcin7T79b2Xn8bcr+sqPs2XFM2bnvulK+/G9lz3VfLDv37yu3u+1tO1uU/hDk5NuwEX3mZ9Gm7p7rPe95TwOwthUrt5dpFGgUWHcKrBbAmudBCGLCm1NR9yiSZUHYAynq6Pg815z3mGRecG7T8J3jyjHR2NIPheizdSiBbiWE807MHMcpAwBaydyTnROwE98AsJQNpsdVSnkYJSlR6/9Ov0a3ToZNnOg4tPXvgGL4Jr0d9UmSrffIRz6yKzXjIM/qdTPHq672kC0FYM1Dp2TDIUgyrRh/Aa1k2AC0lI/hCzzhe+eZC+t6VCaxs/sswGUAy/zf9xq3y6qTXXef+9yny8BKBmadwZm/k8GVLM9pk9YysNaegZU5C50DCNW7YZvHAM10iY0crrjiiq7vIr6Qxef7ZNIlkJE5TI/DANujXcxG/fD8DeD84R/+4fKkJz2p463oiDoTN/wRWTJUTjjEKw3Amk/sNQCrAVjzcUo7aptS4BYAlvfsV15MevfIWcfXpXzTAKzuWjKwjju2y8aShbXnhNPLsTtKWV7aUfYu7SpLy3vK0s1fLvv33FyWy45y/HHHj3uz7u38CbolJeuxJWcFNfIO0Snve9/7GoC1TZm6vVajQKPAOlFgIwGsKJs4p+mPFWcykZVkbs3j6M772snCSPkgBZIsmwBacW7mVS5T7t0ArHknZsZxeEFmhYbNwCrOZDKtOKT+5mjWfS58nh5YfsexrZutmus4n2nqXZeWxvmsHd2UvSUFXHRNk/enPvWpXQYfI+UIjW0HYNV0TPZk1iVAC2ApM0sJsuipEjJ99dIDKcBknXln/v2/zsIDXMumkVVn8wb9KvTCSola+CCAqOfKjoj+bhlYG5+BFV6ogax+qV6dGRfQ0/FATjLjsssuK5dffnkHgDvW/Cofz6YctRPke/yVshI8Izv3J3/yJ8ull156i41H6izOfm+0OtNvlmNVf1/roFkA1xAfroMOW3mc+v6zrtt71g/v3Lnz/PWSiQ3AagDWevFSu86WpMAKgEXOCCZuBIBFhicDS19/ZYO7di2V5SXZWPYC1TttlA65XJbG3c+WyhK90n2yfiPy9F/+5V/W87Lr9oCb8qHW7e3ahRoFGgW2FAU2GsCqd2vpG/cBtvwOuLRexAuAFeAq160zLHw2o7fVvI/TAKx5KTXjOADUBz7wgc75DDgRQCpAVTJz6kydpGtnN7EasDTHsnP8cGJTXiRa5v91f6NkaCRylvK2ZIHZqfIpT3lKV054BPthbTsAq86QMnfpc4ddIjdSHuYzIAXAQbZe5t5nypN9Zr5cs94lWSaN7CvZNQBIWXXpaZQNHgJ0JovLbzxS99ibxsItA2vtGVi1rK7nP2BKAKQEPmpAJ+sfb1x55ZUrQPjHPvaxjl+SsWnt4o8AYwAs4Kh74AHlpD/1Uz9VHv3oR698lmytev7roEucjwVBn+5yDcC65apqAFYDsNbJrGiXaRRoFFgHCjQAax2I2C7RKNAosD4U2GgAKz1l+kb6PJHq9XjD/v37JYsNwJpN5f37979xefnw9MBSDqRM7O1vf3uXgVVn1gAqABNp0g7sCpiVJt8BLs0rcCIgVQAsUTw/QAk/2b2sdk5r8Ar/uAcHV5TuggsuKI9//OO7Bs+JCM6m4Lofse0ALPOH7jWAlHlIxlxNxRr8DtiUMuXsROX8lBfKnpNpFcAy14ocqstG64bvdf+rGiiZNKMNwFo/AKueo1p/1DI8wE8+A3Jbs+SInliyOWXuKS380Ic+1AGfhvLxAGCukQwsvGZdy8D6sR/7sfKN3/iNK8GVWkbUJSl5tlnZeX1gruahBmA1AOsgBVoPrHXXmO2CjQKNAmumQAOw1kzCdoFGgUaB9aLARgNYtVHfN/D7kepZketF3rmuf8/fdRnKJOdhkXtUx7YMrFUSrn8acMquYvrZcCoDVKSPWsoHs2sYR9XfgIZkauEjIATwwg+QSukQEIvj6nd6o+W7GlCtHWTAint6Fs9mN7LHPe5x5cEPfvDKts7r9OqLXGbbAVh18/Q+KNHPvPH/zHfKDevy4D7QlR5o2aEuQETAUecmw6oGJuossMiOWSBFA7AOH4DVXzDmJll6KQlNSam+ee9973s7YFz5KZmRXnnmWbYncBNwpaG/XUhlX9m0ISWI6a9WZ13V/DKLNxqAtYiIK+T5L5dSnrvYWdvh6AZgbYdZbO/QKLDdKNAArO02o+19GgW2MAU2GsCqSwhDpr6D6vN+qd9aSVpnXtWR9vreKV1cB+CsAVhrnbDx+cp83v3ud3cZEzJpsjud33FG0wcrmVjpkYXX0leNkwmkqjOwgFcBsNIHLZlYdX+s9M5yrRo4cx+NvzVyf/jDH95tBHCExpYCsI4QjY7IbUdAmKaxAXL8f+Yupv1nfdjS0tJlR+QFejfdv3//p0opZ/dBwb4snwTO9GXrrDK7af2fhvRG/7lyfr95bgBPJaYAaSC57c71zLLOyQXgtBJhAJZdpDT2d71k4dUyov/+Q+WFk+Zv2js6Z9b3Q8esgw5bedz6/rOu23vW1gNrXRZtA7DWhYztIo0CjQLrSoEGYK0rOdvFJlDgwlLK50spn+76zh067lRK2VVK+fdSyo3rSMHjSylfV0r5t1LKNaWU+5RSPlFK+ew63qNdap0pcDgArCEAacghmjeCPQ8JasO7/7f75GdSVtY896iOaQDWggSbdDjn0i5z73//+7usJxlWQKQ0aQdaOSa70MmkcEzdrNu1A2ABsfzof6Q0SEZWfgOvAmTFOU2WRV2ilt5bHF271z3oQQ8q97rXvbp+SkdoNADrCBF+1m0bgHVkM7BSQpyy0howy9oGUJMndjpVVmh9y7gCTuuLRiYkO4+MMPqlpOGDloF1yHw3AGuWgJjr+wZgzUWmdlCjQKPAYaVAA7AOK7mPypvdqpTyN6UUWzb8fCnlDRUVbKXwPjuVl1K+t5TynnWk0F1LKW87sGnT/1ZKeWcp5bWllH8upTy9lPLl6j7WAKtw54R77znw3H5877hJa+aGdXz2o/ZSGw1g1TtJTSoZrEu21msiZkX6JwFcq7x/A7BWSbj+aZxJWVhKevSrSe+pm28e7T7o/1/5ynVdXyrHOk5JkGPT/yYlP/Vuk/ofAa5kZCkhTGlhQKyUFPrc9ylJS7lhyhE5uBqAu5brH6HRAKwjRPhZt20A1pEFsABTBrAKsA3QyiYOPk+Zsc9kY5EddJTSQRmV1nl2oPTb/80pAGsoS7gBWA3AmiUTFv++AViL06yd0SjQKLDRFFgtgPXkUsq3lFJ+sJRyUynlhCmO/aR3IBWv631pH/BnllKOK6X88ThrxyFfdSBz5odKKacfyOD5xXG2ziK0kY1j78mRNXFwnFxKeXwp5Y6llBeXUq5d5KLt2Lko8OhSyp/YqGlM6xqk+toxgAVYemop5V/nuCIQabSH6PRx51LKBw4c8kullP+zlPLSA/f6X0op/8/4XnsP9DPwoxzhfxwAuy4eyA6zPv77gcyt7xr//O4YiKutpKyhi0op75/1UO376RSoASzG/stf/vJu56YXvehFUzNMklWVq0/7//Oe97zOmfjBH/zBcqc7SQAcjVnlCUrI/vzP/7xzIOz8xplIZH3WvCaCXjeFDqilPO3Xf/3Xy7Of/exyySWXlPe85z3lp3/6p7umvd/8zd+8cmkR+uc85znlGc94RnniE5/YOUJD48Ybbzz3xBNP/I8Jz4R3D9YTTX7w+rhZr3dYvz+cTdy9WN3fCFAlA2v//r1l79495YYbbiy7d+/tjvETkCs9bWrgsu6LlEbgAbUCWNX/T98soFZ6YiWDy2fpo5WsjMM6CYferAFYR5D402693QCsvXv33qKEcJOS/hald/0gxlCZ36xAR/TUPMcdLroczGiOWmESrda1WNenbhlY60LOBmCtCxnbRRoFGgXWlQKr1TK/Wkr5qVLKaQfAgVPHf996wSeTsQKsqsfXlFL+71LK3UspwI2PlFJcF7j0baWUtx7I1vnZHtAAGPnYADiV6wI7/sv4+/9WSmEAZdx+DK48vJTSAIgFJ3COwwGSLzgAXv3EGDj6/gPA5HkHsqJ8bjzqQNngT5dS3nEABP21McjVvyxQ8b1jANJ3P1pKkV01a8j8ekYp5R/HP8DPS0opbxnzwN8eKCt8fSnlrAPXe0Up5d4HAFIAVYaGMkA1xwCwvvsAv79ozIOeJ0OZIpDunmMwbtZzte+nUODaa6+9za1vfWtrXM+hXY95zGO++R3veMfd3vWud734nve852jLpjnGBz/4wbPPPPPML93udre73uGi12l2e/bZZz/zpptuOvYlL3nJa5/ylKdcXV/uhhtuOPbqq68+9au/+qs/u2vXLqD3yrjiiituc+mll37bzp0791922WWvOP/886+/5pprTn7xi1/83bt37wbizxznn3/+u7/ru77rza997Wsf+qEPfej+y8vLS8pG/vRP/7QDr77+67++KyX54z/+4/It3/It5b73vS/wYv8FF1xw5Wte85qzXvGKV9zxCU94wmtf9apXfXRSxs155533qU984hOT5PGXSim/NwZurY9J4+/G63LmOx3uAw43gDX0fjt21Bj2zhVnFeia3lcpC835ac7Nce3vRhmAKlkVwCvZGXgBUHreeeet3GMW0DprPgCmrn/hhRd2jaLXYWwogLW8vHzO/v37yf02FqTASObVYmye2M8tbvKSpaWljy946w05fM+ePc/dsWMH3d7GJqHAQd0aPlsVj23E23xu586dv7FeF96zZw/78RvX63pb7TqdKBkcR36+l5eX/+euXbv+aBPRVAD9bqWUDx/wQ8hOwfIjPcjNc8aJIdNaqUjs4KNJTlnPti5D76+9jAocyQv99jJHml7t/pucAusBYJ1xIGMKoHWHqs/QJGOHs28R/dO4F9HjevR54hhQkiXzpHHJFlCBo6U+4nOllM4hrca7D3z+wz1gqv7+duPSMUDFhw5kc9tJRDlZsm9kBz1sDJr9z00+X1vt8QjLV5ZSHnIgG0rWHtDy/yilpFkLQYkfCEmO9ZAAu3IMJCV7TlngNxwAsr4wFnzTtCqAUvnfZwYO4sQDzQJgScX56uo4///rcflhDWDJBIyitH6efeAaL2kA1sKsedtSyvccyIwzR5OGFCPg4PmllJf1Sj+HzpFlx2AARv7XsZz5mTEP1MeTAyeNM/IAnPWQ8vQL4zn+g573B3z9+/H1HjTmKxl8AE1g/jzjt8aArpLZp42zCZ3L2CE39YIjs+5RSvnoWK6RVWSmbFHHkVP6ydXji+P38ZmS2ftLHqqeH6+SoVcdkLECBb63lngdjstAcxYpEPF/n+eFDvcxmxHACg3Wq28akOqTn/xk+e7v/u6uz9XLXob912c86lGP6npwvfSlLy2nnw7XX/PYUABrzU+3/S9Av9Klb58QBFoNBWQkkxNvHPeRXM01tvI53p/MFPBajWMlOMdmEZzjoNVDOwU2xZ+P+3Oulk6eT7D36yubZJFr0V2PKaV88EAw8YpFTmzHNgo0CkylwK8csN2eNV7j/+s6yuW1kJ1MYtMJ2PPDhgaf7TfHNjf5JAFhaIh8qYYiHyUDrHY495NjP4qvdiQHu3cjKg8k+fBjgIbTaCXo/H1jH+BPZ4Ce6A9PQbN3TSGawDp/go0/qSpjvWj+4FIKv44ugdVs+FgEwOLYIIZJVpb1nw+UV3HyOU4UNGNHPyMLV9TjkOyF8Xn6H3HMOJhD5WIvH4NVDDLlWLJzZHppwm0xBbxSEqiXEcfvL8fMPw1Rll0li4vTZsKBYhayUkWLGYDl+WV8tbF+FMDQ+l+ZN8aSrDqZTMADi0o0y1y+eYohB2zg9CeCwelW8vkdY+Bg0n17BM4AACAASURBVNMy6P/fsTMPPDMYjngekBaj1HPhAeCE58twj9eUUv6hl4FFGQE9DdfyPp6vZWAtxjfAwlePAZlpZ+IPwIs568uU/nnfWkp50wHZ4ffvj3mL/ABs1RGwSQCWqNnlY1ATKAUorSNQ0wAspbHfOeVFGA+AT0ofiJ7hc1mn/zKWSYAqsggoD/zF796dXP3xsSLicOBfz4M+QCk/nC4DgEU2AryU0RpnjrMHrYEAWIyPF44BtTyPYMEfHnC+fm6rAli/8Au/0JWIZsg2AgJddNFFXcmo/lMAnEkDCKUpu0ylV77ylV0T92uuuabc7na3685/3OMeV572tKeWpbH2fOMb31z+9m9HdsnXfd3XlW//9m+fWY7q+q94xSvKhz/84a5/1VOf+tQuI6oeH//4x8tjHvOYcte73rW87nWvW/nq537u57qy2lkDCKYM9dJLLz3kUM+IBrL+9NAyPI9m8JMAuLvf/e7lN37jN7rm0gNjswNY9HyyfumiSYAE22aoHQLZwW6ogd5Z5M/3DM2kuU27d309z5tnxmXknmfA1ENGPpBJAFGJ/P83vhC5MFdW6Pi96r6QLsEWI0fp2fSt9CwCTqHlEA1kyfZbNcxLq81ynIxxNiwbFU0XbQ3AVhZIYUPQIYJwGeb1+WNZzrYgowXvVjMEdmSIy0j/pgOBQlmziwx2L0dJm4SfrE40v9MqKvBh6/m5CKWHj7VmBe1XO6xLQa4M65Niw2NrGWRBvYY54BzToSFLJ5szAT8myQb+WV/GrOUZN/O51g6fhp/L1rPeFxkMARnHk42U+a4mGCqQy382yDK2neB9V+XQG+QW2Qe0Mo9sUvKfX98fbF0+tTZAKmvIIYkhD53waDAC+oThIpORXWpTLfpKBdUTjrDegGXwGSQjMLbYAjb+Ws3OON4VzfA7W+OCA/7hX4x7PPNF2QP0eB9/8QxoDgCiF/oylh0Q24XhBvuAvwDHhga/6XfG8+NZJGsMZdSZ6x8Z+wj41ZziPb7CpGHdu6ZzPRP7ROIRH/rbx37UfFy6hqMWAbBE/gFXhBRCc/wpZg+OkSl5Th80lTM1NAIQDAFYGIVjiamVbnHWlBgijqwX5YOGSZG5ANyC8nH0TLrjGE+T+lh5XqCbhSfrg7L/gQOGn7JCQAtn0EJqY/0oIIPFHFq8hGc9HjHuPYUH8cMhpVxTHiEAFqefYJjUuRhYAGwilEUogWZAS3ygmXwM/QBYDE3ZfBmMANd3nzoDSzZXndElAxEY0wCsxfiGcKQgphnKhONzxkoRUDhrB0nyiExwnswrYBG+IpwJ+4whAMuzAIzIAbIGkMMAMCheCgMo9GNjh0+UirwBJnEConQmUUG/QMC5CAtFabge5xP/eM4aoMO35BQnh9Hxf40dUrt53nccTYGaUErKq+uy1qMawNL8WC+qoQG4euhDH1qe+cxnlosvvrjbnr4eAJx//Md/LC94wQvKX//1X3eATkr/sqOY43fvvrHrQWX8zM/8fPm1X5PMWTqg7C1veUv3e9r4h3/4h/K0pz2ty7LyvH/4h39YnvAENtzBMQnA0hft7//+78sFF1xQTjqJWLvl+PSnP10+9rGPld/93d/ter3VYwjA0oz+1FNP7cC0c845Z+XdlEMqcXXOq171qg5MGxibHcACxpLvBmLYmXZoWPvPPWDgk+kZ7Ary3jlsG3YOsHreaDGbA0htkB3TgmQmU/DusePoqvUPhGIoip5yEjgkfQBuCMAiZ+Ytu/ROjM5a/gwBWHQie8kzThrk9KJAypTLbchXHAiph5NsB3Qn088d6wL6f9IAPnEi6sFBMyeye819DVCxd2Q9oaM2BYJfHMZ+ZcE8L87JALTJ9GC7sLHw6LxjEoAlEMJ+muQfsPdVXbSxNgpY5381tifIk3kz/SgevAtcSDDVk5Af+OFQRbL4M0oOqDNFzDV7qg/gs1HYGpxy3wm+safr4/AQMABAKutn3ndc/KmPzBnAvVpfeAq+gHXtO77rtGgTe5VNVw9gNL+DfODPzgrcTnpzdi55nGSRWQAWG5ivho8uO5DZI/JFDpJ/AIt68Ne15uFDAzDpTb6ed8cH9fGMIbpVdQNfnT7FD2zozQJg4WHglcCPNQSM8X9ZTosOc+r9vDN5bP4DYLE/2AFaGdGndTk8kNj3/A7ruh8IopPjk8wDYMFRyHHvZNAz1nIfGHMtQQy6SqIQcBPfeM5Jgz/iWW2S5pn4KH+2mQEs0R6OP+Uugi96AEwgeNU3KGvhRGF8WQx9QUWQAY8syiEAC4rLwfvtA4sGAk2JEtLQTE5iBqHp3q7DMAjo5H6vOoAa/vr4QMcxFCympM4R/LJ+IOIMDJMr++aB42jZJOBtUQZux48cBtlXhCEh+JTKIMILQAWCgqJUSjpLSIefGIWMT4uZgTnJCJXdg6cYaY5ndJtrwAn+A5QaAbCAXARWBv4CXFDQUGzCnRKX1UUwUQqazxPYwLgGYK2O680fRT80CHjyQJTSnEV4948lI/rRPfPMYMID1jWQJ4ZEH8DilQOV9MIjLyhiEZTwnDkHGg0Nwl7UqgawGIBAfmWuIh7SVoDu7nO/MQ9BTmSGMTYpD+U/uR+jxY/1wTgg/5wPYOOMey8yVoagaNF/6hkMeNa9KJnIPvdT7up5koEFqAOQcYwzPB++37IlhAGwfuiHfqjc8Y537JquX3XVVV2203vf+95u50BgzeMf//jyK7/yKytZSAjgWADR5Zdf3oE4P/qjP9oBXvpQfepTnyp/93d/12UuffnL1w4CWI6TqfTDPyyuMnk897nPLb/6q7/a9cJaDYD1vve9r/z+7//+LbK2ckebDfzET/zECoDl/ZNd9ehHP7rLwHrxi19cTjvttA4EA9LJMLvPfe7TPf9ZZ8FFS7cD4wMf+MCtDGAxENkIKfG1fiY539a4NcW+GBpsHbKEneEa/U1o+ufQfTIkRsQcgU8Cc0PDsYJygKc4RAHJktVANj1gwJEcArA4FOwc5QV1YKa+N8MV2MJuc91ZABZDmKyg7+i+lDGzteg/tqHI8cF0wamr4Ih9KZDKTsy8DD0Ip4sNIEDL6Roa6EV201H1MB+cAfTnNPT73wDQ2BIcQPKXbF8EeKrvhWdl4gAJ6B1tD+YdkwCsACtsnAT6XFPWPD6hl2Q2t7E2CoTO9Dofat4MT/Yym6MPYFmf5EfA+tU+nUBvXZZE1nFW2UVsmgwABNtLuxfPTiawsWT4ZAA6yNTtCmBpBSHIWg/AMt/E0BaiX0JcH8vu7MuPAFj0i+sPRePMNZ1GBk0K/rP1BEwCJk0DsOhJvhjARuBX8gEQhU3M3hzK2KKz6FNzyy/j1/mMHKqfyTuQdZsZwBIoEgjwnHwHMtxGcnXwAf0Etq0PfG79+T/wqz4O8CSoAQzil/BB+J4CX+jKLrdW2Bl1CxW+EDudvjDnfQyFrmYDGLMALDrOfPKh4Bxsf9f0m36ur0138H+9L79FAArvATBl1dUZeHxfgKZrkjXezzPxY7zXps3Aqhdd3cQ9GU/ZUQ4iJxw9VEJIuTquD2BxYBl6iIqJLAqlhgw36Y8mO0MZIECCAxemoVj1pAGAAUYM/6cYLHIEl4ERRDMpfBxLqKHJA2RsdI3oahXKVjvPouHQm2cDgMWQoxSHt06b/obKwixeCxyIYXEBNRhYQx0kKVM/FCx+AFoyEglSwpUwySC4Gd3ZLCCfewegrci0TC5gA2MVX3seQu55Y77C0wTevCUiW20+N/J57WZaAyiruReBS+n3B0cQkCmtmSEBxKRYawCLbCGMgUDkScqX62sBg/AHeQHkpGD07xI5YyQA8msAS4SaHKsHvgHoAnKdg6fISgNfRzaReaI1FA3lwQCBhpBnSv48KzCOrHQsZzLZqbkfAAsQ1Y/qknscJX1TfK+fl3WSSLvjrU/Ps+UBLGV297uf1zw4PvCBD3SgFIBKdtEv/uIvFrtSpjG6zx/+8Id3//+rv/qrAuzpj8997nPljDOonNFIBlZ2FdN8X0YVcGhoaM6uFPHqq6/uQKUawJL9JTPMLoZDw7Vlgn3wgx8sr33taztgaWjYBODpT396B2B9z/d8TznhhMnVZEoif+u3fqvLrnrIQx7SlTamVPDaa68tt73tbbcygCULyS601gs+l6VJlwyVbQXAYhyKoJPp9ID1AqBh0AE1rBFRZMw1KZvLtDBurdfcm+xxnaH+ENmtly3EIOSgArWtRYAzB9JzWO/WLEch65ac4DDRVUrXyBpOhV5+go6TetkBI0Sa2V6CeDKOwyicGEFE1xCUdE9BH/IU8MGJJs8MzpT3FPHdCgAWG5JNoppgtU2KkwUDzAFGZdxlDAgy7IE85muoFIjdgobAxX7gFL9w+mVh2DhmUoAn98SX5r0Gm/piAe/hCYILOId3BOXwBj5PTxxgL16QGcSZU3WR4XN6rgFYg1J34Q8DYLFT0XmeRt/mje3B1+kDWAs/wJwn8PfYM+zc2kdid5FDNYAF3K8BHb5aMm62YwaWtY8+QKqUhbGzyIf4AwF2yFBgkvWdljzO5e/WIwAWPUFG9zM8HQsgBxiQ9XzXSYP8of/MEzlk/Xuu6CB+kQApu9bf9IHsG3OmMgmIxe4lOwTy+2Cca/Kr2Kyex334ZkBUuoCPRN/Sp5sZwAr9vDv7HU3Y2eRqhowkJXbWHRCIbiQj+RlD1SF0JR1qbVsTAiHkPd3Kz2Cn1wkY5LJgEnAMDWvdFJ+WPUJ3uCcdhjfQ2cB/fvi0fFXX4OvyJfg3gGWJRp5pyAZRZceXcU2+tWc0t+6Dp8knPBE/ZFsAWFA9BOXsQ+rSL2IoAwvxgQ81gBVnCSNwCGVpIR5haXEz4uIMImIQSJOWZvEUMcO0BrA4nRhFNoHJZwxgTAwUcA3aCCW917jW9Wip0Z5Tb63qMLwAMDQXhDhBbQGILvuMMAf+WBwWKON41jBnhLyeEv4GajL+GFkMxprXXB8owdjiQFi07uH/FmfAKnyILxwzbVcj6Lpz8Qle9H4AEff3t9TJINSMP8bgrGyyWe97NH1PFgxFdxahgRKYSX0GRJAo3/8xdr7MeQ1gkScMQsrbc/SbutfPMa0HVg1gAZsoiTREd08yTV+EKDryTXq5VGKgaowgss4xvqMoKMrQh/xkBFhP5Cb5JypE2dbpxiIpjBrRnkTCGBoUL2cICOy+jCNOqWflhHKWrB+8DbCtgd5F5mNDj53VxD0ZWEMAlgcDAP3Mz/xM+Z3f+Z1iJ8c/+ZM/6bKxjD/6oz8q3/u939v1yJKpNWnHv3oXwgBYX/u1X1sAZO4PXAIGDY0XvvCF5TnPeU5XAigrTBljSgg/8pGPlJ//+Z/vMsGARwC1M844ozzgAaaqdLtUKj9cBMB61rOe1YFYwLIvfOELXWmka3o+GWP3vve9y5Of/ORyhzvcYbsBWIxp+kJvO8YigIpxRuYHfKmnKAAW5JFxRmbUg/HPiGXUiZzSCaKrQ8YrIIgzQFcwSuku69d1++sqfUUZ+xwEQNVQOwNrOFlfMiEmARuMbvdk+8wLYDFMyVFg2dBwXw63Z9wuAJbg62qzVQQg0KIGsMhO/CG7iz6gd2SKL9pHhf3AVnJtTk+/RKmeH7YUPif/p/XSwk+ECF3nmSYN/Ew/NABrQ7VYd/EAWADMRXZhA1Zbp4cTwAKg883qcjeZQxzmGsBiIwNMMgD+eGm7ZmAlk5J/472tR3YUH8i65x/TJwAhgJ858zdQh/7Qg3QjASy2qGdM71NglKBLStmBiubP3AIn/ZYcYrAxzTvQxt+CFJJTyAcJJnRQXRUhkBoAC2hCFrItBQw2O4BFdsePFEwyb2xktkMGX9C86kcrc5bdzpagZ2uQUaYV2jierpckw4e0xtkFftgaziNvM8yRoBg5zqesMzIBiTJt2fSO4VtYW545WZGeiz8KWFPaKVgtQSB98mT7Aej4OHiOjuq3QtAvXLCeX2EO2Tr8bTrNM7Artg2ABd1l+YsAIiKiA4o4WEMAloVA+NYAFmNNphTCQQUtICCAz6G6HKukwANEOHCOA1IEDTaRDMUawMIUakoxI3CM82nRUt6cM0wC/JCZBXl07XlTeDdetW3dO5hfSDzBZf4IagsPQBBDjgEswkigi9rOGhYZgUIYy+Izj3hPRhenQLkEAUJ46jlicQM1AZNQcGAmYUT4uKf+E65hUQIBku476zlmfY+XZNhs9Sa2s95zPb+nONbadNS6jSAmfOusPIqXAZFGlp6d7KAsyBoAlvuTFY7pyy2pMJnPaQAWBwEfzhoMwKTnk23S8hkF+JDjghddi3JJejpHWHSG8iHPKED8zIgAxjnWMdaU9yLXkq0YGYkmaMNhA3C5p7IF7+66Mj4oWIpNlIZ8JNNX05tlFg3W9P1aASw315T9Gc94Rtd8/R73uEd517veVTR7/5u/+Zuucbq/gVkasg+NIQAL8KVf1Nvf/vbyfd/3feUlL6krkkdX+fznP9+V/QHHlDi+6EUv6vpOBcBSUqgBPbDJ/X/kR36kywJTtmgA3J74xCeWd77znd09JjRV75q8y6RKD6yUD/7BH/xBdx7w6tWvfvVK+aRSQWWV2ywDi4PINuEw0AscDNlVsk7YBH3jbRaAZQqsF9cCOAvAAJcFSfq2A0CI4WqNy8Sxzl2fEyAruF5X1iZHxufWHWBqVq8YssG12S1KE70jA5UMowvdS/bZvAAW3ZpsIUCd4B+7ipNKRgpMMnzp9u0CYAEe2QmrGeZdVnkNYMnoQh8Z3xwJzh8ZPanNQf++7BZ8ZO7Jd84h0CmbAAw9J7sKbwFozfWkgVeVwtMj3pneFaEn4GRAi9gbdBPbuwFYq+GKxc6pSzXp8XkDn+YQXx1OACubadVyDrDKWa8BLMHgug8xnhZM284AlgybPoDFpmJvBcAia/ge1lsALP7RRgNYZIfnIMuBVbI1ZVLxxelCdqCML8/kmWXl13xIx2jF4zkFbegCPjQg3HFAqiSVbFUAi05HD7aC7KfoXu9WZ9fyL/1IdJFJJ6Dk/+a2ppk5Rkc0F0zyN7tbsJifwe5GT76xLK8M82R+wit1RiYZnQ2qlB7yEwS7+Qq17HY9wJg1SL7XG4iQG2wgoBbQnB1ET0nkkcqPH+MvyAoFrrEz2EkMUM/sObYFgJWJNZFelOIDYCmLASSZKI4jY8hvPxA9St6xFgakUNp6UtyHACyRhqTgZ6KHjDufMbb69cjOMeFAC4YFhiJwRbZkjQFXCNhpHfcXU0tH99EUK0ea00/IyTqx8AA7GSIUMkwY2ITpvMPxDEaCBvDF4ba4GNT6cRAYFrPFzUgz7461OC1AgAW+AyJA0B85NuT6zUr9n3FgEQPdKCf3A7xyFhj3Q018ayBl3ndqx42AxEm9YWbRx7ona9IngPO2aMR72j0AO2mcHACLsuLEkiOiVSIfw/Vit7yyCGWdmsP5EMlxPYARpyc7QlFgnB+8ysnlZMqooiBlE3Je0A6/y9QiXzlQaRo9i3azvrd2KdR+A89Z523o9+sBYAF0fvM3f7P87M/+bAfc/PM//3OXgaR0TybVJz4xapH3y7/8y+XHf/zHu0ylegwBWIAh5XjK/I499tjyH//xH135XT30ndJU3T2ULn7nd35nV9431MT9YQ97WLnsssu6a9a7EOrR9cY3ivHMHnUTd++sn9WVV17ZAVX1LoTpC7aNACzrBaBDB1lzAm3ktnXG4AYE95vnzgNgITqnDGgsEsrRT1lwJoT+kJ3DvhHttm4Zm4xkZV4My7rcy/F0THpz0VP97K9Jk02H0a9A53oXwvTAEvyb1ANLDyjn93tg+cz9Gfb1LoTpgbXVASy2HmOejVLv4jZ7QR08Au1k1QVo8g1acQiAioKkia7jK3JelvCkfjUEhXmUBcdxmndnQroCkCaAsciOdniOzuDMsHPqXQgDrLQSwkU4YvFjQ2cggvU6Twmhu9Dz+OtwAlhsbzKtzjQhs/ARnudIc3Blg7NZ2OIcdX/LvmkA1pEBsMKV/Gjrnc/L3wbAsxXpGuA2GVBvBNTnZrJOgIXcBITx8wAw5B8+ZI9uVQCL/Y4eQDz2QnbdFRAgs4E2gC34gcQMSTp2UWRn+4xeF5CSXCORhkwljw06UwJFmrgr5ZvkJ6Itu4C9rwpi2k6vcA7rSiY5W0bQS2CaTKlxlP48At2U+QIl+U6uQd/rOw6IpUuMbQdgUfqypDg0MlmgscAgIIJMF1kBhFYG4wCa5yd/U/oQYUKOw0lwQ/azG5eFkAwsE2IyGIvSHhmejpM5AzFO3wACUjkOgAF4gQGGAC7oJsNApoOJNkwaJ42xO62h5+Kq6eg9QwSG4W6Rmwfocx/Aggoz/pPpMYlazmdEWaRQYimMSYOnNPEeQBQf4jG8IuXT54xHgppAYRhwVjgwwEoLldCyWPEFXgO0Arw8F+HhfpSy6DrFLAWUgyEd1vW9HyCWsMjW4RSB/7cMrMX4H0BkbYoQ12W81qVosEgR1L8fGbJ+yZxs6OCuFEe/JDTgj3kiHxJl0J+BQscbQ3ID/5l/kTMyyNzjmaASgB2lJPiJAiNLyC9KPQoslMjGFNLGRUjwl8/6PdxcG0+7N14SKPD+sjnIYMqn5i/8S4G5twxAcjK953JvRqZr6L9D/kJngHz43rNymoYAWY6vgMS8O64tNuurPHo9ACy3lqEETFIm+JrXvKY84hGP6Jqqv/KVr+zK+OwQKBNLHy2ZUA9+8IPL2Wef3R0/CcACeF166aVdhpQm6hqipwxR9tW3fdu3dVlfsq9kbAGUhgAspYgXXXRR9zwaq+vL9QM/8APlvPPO65rM65Xl+pN2O3zb297WNXmvASxZZrK5PvvZz5Zzzz23A+40k/e8N91003bLwLKuZXanKS1DVLBMxgA9wfimm+oxL4DlHMA2I4894rxabllrSgdkNJEfgjXAb0Ez4IZId2yQ3J9scY7jRE+dZ62zlSZlhnuP9O8jv4DfHAlykkPMsB7a5Sr3ZLMBv2Wkpom7azLcOav0mb9lMQsQbRcAiy4Z1eSufbAROCX4gAOXjK4awOLwCdCQzf2GzfX8A0VF3zmL0xo/10+9WgBL9gw7hkPjWdP3haxvANba+WKeK4TOAr7kwTwVIHQ52UWm1AAWR/SWDRvneYrhYwTTAFSyLvl35JKoSR3MYqfwxdgI/DG2j+/JLkE6jjj/jk1jnQBv5+Xr1T/54T2TfbbeGVgABf4FQEULDLqhv1s3X1w5uoEXhga7NT3LBHDwGfnO/iOr2N3kPNklCDOtEoU963g8S7fwoyQfAGv4cXiS/tqKJYSwDEk3ACiDzyn4pQyPz6gHrf9LvIAzCCCzt/s9sKwD/MB/lAnNNzBvbG02uTJ8Po4BEHOfevAFkkxBh/dxDMFqFRKO40OzOwTnrFP3kfKP/gJ07IZJgDjMxH3MuZJE2Z98ZXpHdh1bia7CX9smA4tjL4uJ02UgLiFFcDHIOFeMOE6i34wfwiw/nC5MAgnG9BYNNN/i9zcACcofACtNSQFmmqwThq7FKAQomHwC370RW9lMtomEDk8yUEx+HGECmONsoqf14WG8YdjWI2s+5QAYoAA5zEMAlvnjTEwaSjqBSeaXcUiYQ5wtMgae+cU7oqeccIITgGBRWpyULeADSCCSzHEgXPCgYyhRWS9AKdFx4JVnxoPuyXEnsEXX49w7z/VEn/Go86wBvCFa6toEOaGWHQ7no1Y7KgBWykJDEWALYwjgwymsgRtrl/A1hzWAZR77oJDPzKMyC0qpVuqMd3MN8BwCHjltHFWOMJkkKwGvcers8kFRkA2cDwYlsJYyAarXCsiziu4wABiCeIhxN608BB2i1IYUWs05ZKP1VitBz2qdMYgYGGilLl4kzfpigKAFw0aGIue+Vnqef96yhsPGxesFYL3+9a/vQCRZVy996UvLd3yH6RvtRKgM8Ld/+7e7flGavR933HHdboQawF9yySXlmGMOslh6YMnAUhIItNIc/swzz+wyqDRsN2RNybgCZAGgXFNPqz6A5X7PfOYzuxLCDKWDShtd/9nPfvZCPbCAdPp+2fXwBS94Qdm9e3fX48tv/bd+6Zd+qXzrt35ruf3tb7+dSggZmuwVIA2bhWw2rFlyRkRUxlI9FgGwlAjKviQz6Ju6F4hygQDpDFfrypANzJEgL/pZktaq5yELyTp6CCgl+st4Tr/P+nlFdt2H7cM2AUgI4jG02TNsJDYXOgwNThAZwIANgEUXChR5PrKAEwXgAo4BwzzPVs/A4oCh3bQhGi74JdJebyLUP4f+p6M4NezPOCA1gCVKj27sFXpkSKaybTgi5orTMO9YLYDlXql8wLtsGM4aHgWEtBLCeWdg9ccFwMIP84BXuVN6a9YAFj8K2DFrWPNsZtk2Q83Bc77v2MxkEvkyaaTawTpgXxnsMfKR7WT9RPb6LiDXrOfcKt9vBIAlO4bfkl6/ZPyk3oTT6ASQSao2H4odjXfYgJJB6AYyiw3Kvwd++JtsJKtqsBH4CHSpZRcQnCyleyQEeM4AWPQF4Ger9MBCD3PJD4BhsBFktAbAIpfxMv9S5QNgNwAWfU1P1gAWevFZBdPZB/wBayQ7oQOKFm1dwy91X9fyt7n0rNYq0EnGljnz3EC0SYNdj5/4BnQbGwYmgx88r3kLQLptACzOD6AAqotwmpeZdMItyD/C5AcxTdjIeh8Nf2NwBhPjTIQRwSwKESoAFtSPkrcAUgpE0UIuGWYmHbPIAnMOY8r5DDZRJI6cRYXxZg3GRnbFm5a+C9GkLIYaq866x9H8PeN9CMAShR7aPRCt8JNoFB4gfPGZ+RYpsEj9X+qrASgwhwAFylLKspKNgBJ4FWLte2nXhCyecn18xkCta3E485wLAt6iZlQoi2V8coIoFo4GIS+qREkDDTLcH0Aybyr40cwb9bsDNIHQIk11E3W0t9ktWwAAIABJREFUpjg4B+a3VqjkAEcLiF4DWEM0pZxFLKRQA7zT9FAEggySFaV2fCjTyLWBVH5zRAl2ci07GopEMQYBWIy9lA5xWrI7IHDfOeQH51YkhiK0DgzZXdkZahGewK9pxuk81/R8sgDQEn+T0e6Tna3Q2XqybihpDjPAGL9zUClYYJ8sEIqRQ5PG0Ys824Ydu7y8DJSYuJvpjh07rl5eXr7VXe5yl4d/5CMfmeh8nn766d/++c9//r8uLy/vP/PMM//TNddcQ150Q5bS7/3e7wF3zCMA864yqY455pjdZ5999rM//vGPA/26cfLJJ/+X66+//sePP/74/3bjjTf+5zve8Y73vOqqq16xtLR09mmnnfaLn/nMZ37nrW99665LL730N7/yla8wCN74mc985snf9E3fdOH73ve+ty0tLd10xhlnfP8111zDadTc/Rs/+tGP/vd9+/aRM2gv0/PmHTt2PP6kk0664sYbb9y9b9++u1x44YVPff/7319vcbxC89NPP/1pn/vc537/Nre5zY9fe+21f3DxxRff5Yorrnjl7t27ux4lS0tLX1peXgbCvvCYY4757B3ucIfv+9d//de/2LVr1+WPetSjnvmGN7yhK3V61rOedZuXvexln9yxY8d773vf+z7jyiuvBJL0x81LS0ubKUuPboH+cZasQXMYMJndIHuXzSBbt95FcBEAi/EXx0yGQl1+EXlG5rCbcm/ZCvSLe8sQ65eveW7rFSBiW2o87lgBESVoMocyrF9AtKhs3UNQ4DC7zbGB5u2BFQCLzADCuyY9Rg4AtTyrYCIbbKsDWIlAo2V2dervRsgJoBtUCZDpk4a5Ffgi28lQcyRYQG+lhFBk21oTiCWXE4Wvr4m+dICydDK3HuT0pBYXjmebkhEy7oaG56JX05uI7YKnkqkMHPWMnCFOLl3bAKwpk75OXwXAYoPSJ3jJPLA1UvaLV9mYdHH6ZAIFyLYawJpmU9ePK5ObswqgnrWBEpnOHjh0K9+1vbyMv03XV3MNr7QRABbZT3/xQ8hlMrlfVUDnJPOqv+N1XofuY+uxCfmwbAV6h1wTABbYxAvsSPfCY3xwfhIAJPYQmcB/YgcJANWB2fT3oyvqEkI+ONlE5wn2b/Ym7mjG3mIfs6mzeVIALDRS4YAm/AayVPIL+1kyBJ+yBrCs6dj4wGXZWGl9417oRR8Aw/otbPrsiN4wkPTx1ccKyOQa7DEyw/yhN5DNe2Re+K38pr6t0V+DqVJJOxO6JD2wPA9fy7vSC1uyB1ZKdSg+pVQp/RNRrBudMboQ1GIg/JKWF/DH90AKRhJFn8FIsHgYahYMRY9ZIMcMS/cAikmZw0AENqODAWIB11FGRiMja9pIc1XOEONiUp8I12DMY+hpEYs1yMBte+oQgMXYAxgQdgBRTkBQfUg1EJLDQbmmHAuBGHf+TwBz6vTCImSBSgQrcEH5BMFMWOAbCtj9RBfxjuMBqNl+1nUpCEYqMKp2ZggA51L4ABQLm2MBIK0z8SgWTgd+ZUQ28Gpxdib8ZdpRAHWmgTng8BP0gMHaSWaEU6pkySwAK9vZMwpcJ2nw8wBYlAslzxk11wBZz0EpMw5qAIssJNO8DznJQMV3nD7vJ9rlHfs8Qn4B7Odt9hsKk0l14170UKISh5bjojwSuCbDiozz7pQdJQcEBAJTfIwm71I3wVeaa33UTVkXn93Df4b1aa76gGj9JBQ2nWJO0IisQpehgb/MD4MRjcwpo56xYCR7IlkX5lEEVRaQTSfwH30FTHMtvGMuRNI4s/QYYJWB43sy0LmuJ6rOoKIXRe3MLRkmGOSZgKtDgwPuuTwzuUW/ysgR6AHWclbtksOIpQM9mx96mawDuBqi9QBfz+uZasD08M/sfHcEuOBdMkIUVAAiQ2auQIPosbkXRY1BvgiARSfQX2wCeiuguPWDRrn+wTS6ERBEnwCszS1ZNNTuwNoUFARQeSY8wQi1vt1TYMX8uxa9SG+ZQ46JcxyLN+nRRQAs1zD/sjNl1jN+BYDoWIA9Yx5fsa88X0ow2VLeE3+QgeTSVhnWEOeKk5GMJM/OBkVfzty05uiOJWsEZIFEaMIeAZIGwLJmlRG6F13Azq0HOcC5ZAuRxf01LUOKXbPagUfpInqAHMLzHEz/l20ha889vCeb2/xxWMx9+rK5t3l3DtuL/d/G6ikAkGQrWOtsC2sYH5HxeADP0N98KbaEvjzkMjkj44PcpssBCkN+Cb0toMbWVYGQwQkHRNMr7GUBXXYQvQYM7wO5dFmCzWwh+oDdwF6mU/hzfqeChtyxlqwHOqTOLCPrNlOgY/Wzd/DMjQCwUtrFZxbIHxoAyPgx5k6VQQIkApEZZLpsYyAov4sdyh7ANypZtJBgG7JB6UU2AR70k37S5AE/HmDj3FpnZZc+/Et2JANLZi+73Xl0x1YAsNCs3o2QPMTL6OJdzIXEB/83rAG05f/hdbSm/8natBBRnmjtOjdlg3xb64xv41rAsUmgLt3v+nSEdey3azvej4okspoPC2Cit8kN69xahV2wNcydtQj89n9zKiFkUlVZ3QOL3cKvoAvpty0JYNWLqAawGGoUswWBiREYQohwjCnp7wxJ0QIIIsGKgISlNOaMAFhACgId08sMIKgZ/CZdGQ7By5CziCwwTMZYTcr7PEKJQPZsjAoCWD8LhkXrXTQP9eY/ZgjAspAJXnPLUCM8Gb8WCeHIMWQ4QsLjREWwmGPHW7SUPAFAqXPSgAYWp2sRoolY4zVGG8Of0cZgoNjxjEHxcjY9V8BWnxM8BIK06BrAwicUQZ6JMcDQ89xDkdX5qXX0HkkgJv19yKEbokwdtZgGYHGugJlAKA4KOZN7TAOwKI2k2Maom7YLIcOe80bW4bmUA+FVoBXDDh8F9KjfSYSNk7gogEWh1Q4yniVnRWcYvp4bKFMrKTKYkQL442RlkInOJ8/JREpSJgmjZNOVEc5YKvMAWN6TnKFnRCeBXbPek/FHJuCN2onrA1gxbjgInAu8QDYBANCVgWMMAViyLTwXUA2/cC4BIngLaGFOBWscx7GZ1OiTPOVokI2MGeA64J8Mdf0AWGSsuRfwYZwI5pCd2RRhKwJYdXmUbMJar3MMrWPGJlAOEAOINhYBsNgi6CSg5hoxQBm42X5SpnmdvWhdAQzoJ+uQzpgEmnqegMtsHI5CNqDxToxJ78kxwEdAJ6ALPSZQAyQnC8i+lWzB3roRDKK76GF2GblhzTOI0Ynt5RqAFTaYNg6+o9f9P9mNWxnAyoYygLk68ykAlvUwqQTT2suW88rDzTe5S67WABaykx2AaU6ptVs7mUBl89lfe5kuQFi/B06+ozetaffOblR98QjosObZ5DI39IZTQsKpoQ+dx5lxLfYOvYgueJn9ntEArPWz0fAXe1d/V4AmPWGO5wGwAF0cTIEIuofzWusua9d16Ta+GXskow9gATYA33SL9Y/XAzq5DnAET6dnJ/kF2Aack0eACra3+/Op3I8NxBZmn9BdZBw5SEbKGIm8XT9qHrkrbQSABUwih9klkxIxagALuJ1gnPVqTUe+8GnMr/ngA7Ff8F1a5tAB/G2ynV0ie5/OoD/SYxYoEnvEcfWgD+hT8o1ODIBF57DL+Ufk3VYBsPiUbCyZRvhZJhL5yYdEW7o4gDHwl641F+wkPi1a1AAW2w89U22B98l6GEkALOsu5bd9TiaLBQvoeGvJ3Po/YA1tPYvgs7Xu2hI52Ozmg+/h/2w5fAQ8pu8FMgVW+QF1VQuQjjwAbrlHMrDoigQ98Mq2ArBE+QAAGDwNhBlWJp8hR8BR7r6j1BnJJpoAr1NYA2AhmkUkIk0QJn1Oxg6hTQEzBLP7GKeAAhDNrJXtJJEGwPBsJiRGAUOEgQ/IstDndaKPnNjcGnceArA4SyJIsqTMmYVNwTGCgUkcPIaTyEA9RKwIXoAVQawUhBCoASx8QRgwukWDXZsgZfwzvpRWWNiJOMjMCoAlMk9ZZ1DQkHOlITWApWy15rMIoQZgrY4nsysk8NucZnOGWVczV2q2OV7TACyCm8HuPpwUoELGNAALqCRzg3GGbyi1eQAs1wZ8paSIYefe+JETMQSSAOQplln9sPo0IT/rbXiBetYXWSltnBKOsWj9UFiUGV73PdBN5L9uZu07Cpl8nFSSMmtujvT38wBYDACANnoxOCj0WUPmDNnDWKDkgUrGEIDlupwIUVHRK1lYQBPyikFpDAFYgC7zZl45AOQhw4WxkuFZ8adytNoRrp+fYSpCCMAiA60vTqrAER1XA1jOy642nB3nxIkZArA4vHQ5/psF+s2i6Xp/z+mSTTLPrqCyGdgmnDpjXgALSAS4YKyTQXQCkMz6RVtra9ZwPF3F6J826DQ2EduHU8FBZEAqCQA+Ar4F4gBYCczgM89kvhmtkwJzro1eHCVGMLkhks+B4viw0bILIdlC/pFh5Budmh31tjKAhYcZ7hzzuo9ZAKxsQDQ0R94/vTwFH6wF63YIwHJ99GWToKm1a/g/OaG0nNPApumPSe0WHMeOIqfJhH5Pt/o6ns113ENAhV6zjskiv+tdCDk45D8AU2A6owFYs1b1/N/Ts/QuMAr4wLYlT+YBsOgCQWAONPumXwpIlpMXMj7YOPXOl30AC98m04RMYesmEOs6ns36Jtv88I0A//QEvUKPJKMcL5O75JUff/uODMJ/fly/v8HN/FTbfEduBIDFp+UPW6P84KHRz8DCT0AQ8tzcuwbaSwgxV0rVyHuyqQawzBHgnu7zt7lm2/CzZWiRb+wRsov9WO/cSyfEviRDkzxAf8hGZV+ab7plKwBY3p8spufY42wfdqLPrCV07W9CgAZohrZkJgwBqIXHfWatWNewDIEi650ugIewsWRgWZ+TMqHSn5mtaK2ZG8/FBiW7AVhp4US+Cza5nwQPc5DdSvnc1i75Qib0gxN4zBzxyekgNgTf1g8Z4zfcBGi9rQAsk2DSEITx4/8MAYxP+SM85gdSmECOHEQSMZJ2j3gBsBiUiJ9eDAjOcZD1JWou+4UzyZCzwDAGAC0lRb4f2unChAAlLC6TRBhDKjlwGE5GAiCL0BApI8z76bSbT3xu7iea1APLU1v4In6MJQ6B2njzZu6VMfSNbhFfC9bi5eRRsgx3fMSBFLGIE2GhEh4MOg4bQx9oKpLE8cArDDbzjKfwjwwMfJxBcABGLdYawCJA0tvIsZxESqIBWKvjRQY/gIlBxqFL5sesqzGWrGd8I8owBDpb08ADAp4hztmry/dqAIuCr3mOshYRT/qtKMy8ABYFIoINkDMoMUBGLe/q93PdulfgrHfP9yKaaQpZn8OglX3DcEiPJMrZ554tAJZomgADZZrBuSIDGUDbCcAib+gAuoRxTW4wqPEHJzBD1JERyBDoy39GHVnhmLpJ8xCA5XqCOwyZlHSSWfgsfaSGACzRVPNmPZizSQCWOXTcpNJ3Msk1UkLIEPN/GSDOqQEsspIzYn2Y97psqA9geXZ8RwaS1ZutnwmZH8eKPE+GTL0+gD14nL1Cb4hG0z3zAFj4B8+gvQw4gGTukew5Bi2QANjTHwxJoBceEkhh78hOIM/IpiE5RscA061dwBTQSxYWuek+dFIALKU7BnAWgKUXR8CS/rOQObLIAKV0Koea7UbfZfOMAFjOdQz+9xxxTn0+BGC5L9kj4p9NM+aVa4frODRj5wmaAGdErDMCYAGP0XpoOD5lgvke7YYALPIHfc2lNUZmkD9kCj5hk6DvtK3sh55hkSbunoFOcg57h32GB/sAFoeN7MKjyVR37z6ARUfS33hQALiNxSjAZyJLBGvJLbJ5FoBlDq0tmRL0c19Hs3P5NXQdP4fNXMuUPoDlieknpVDsJEFbQV7BXfYVX806kZ1NH3KK04vLuf4mK8guQFgCB/wrQRTAhmGNsdO85yIN6xej6OE/er0BLLKUTUYuA5tleg+NPoDlGD6SeeS7mHt6gr6S8UNPCeD2ASz3cw+2N9+cPCCP+MT4wPyxj8ir/kZn/DbrPn2hBPTwEmDV8fQOf5ueVQFBztB1QC8yCCBEX+F7+vRIV0Cx0dkF1o73h0HQoeShIM+sQf+Tkd7VGmVXW58Sebwf2c7nlAAhoMweQwc6xnobGvxT64+tqJWHAKpnBCpayzWA5XxzjScBTgBF9h8ZY25k6VrPZIQAVK2X2R/8AfdhN7FTgKfeHy/6XKDXHKXEHF8A3hIA8z6OowOH7K5Z9Fv4+1nNwyZdEHMiPGGFqBZBavydY0JMHiCCsEp013cI3t9tzOd1CSEkGbiByBZq+hNheMYppgAuyNQCirmXiZOWH4bJs4swWNgMEkzJaPPMDDHnWEyIzlBDeA4EI84iNiHTemMtTPCj7IRpAFZIQdjJTuBQcuQJM4KOE1WDDRwyitJPSk85UAQuBFtqY+1MZetSwpPRxtg3RBWBCxZ1DWAx2OoILL5xruvXAJZnClpu/TDmOXkNwFqcuRlFAGdGPHnCsVuP7EdzZz70uCFHGE/AqrpBvKcN/zDaGOJ1uQ85kq3oCXHzLpUWEEaIT+qBxejDyxybRM4pB3yEdymJftZKlA5lPqkkrKYuI4EcY/gyEvsDUOU5GMjpp8KoAch5lhrAIuPqDS8YOSIx2wHAUlpBnqAXXvMDpKDARYWlv9M7dYRaWQ2QgIFA9gu8ADcAgnhE3xI8ythPk9NJAJYMX9FNjqk5Zyjiqci1IQALzwCUPJ85Xi8Ai8EU3uoDWPgaQCIblYOx0sx+oAeWCKwf+pNxWm+rvrgEWN8zzDMHkC5nVJmvoabz6Gs94nUgC+DOWpoEYJEnbB0GrWxJ9oh74RO6xFxZV+QN4w/PxGDtv6H5pXsYlniTDGLYAjbxBXlY94nhCLJ1UsrAmGQDyZACsgLRGMtDAJbg0CI9sDwzMAtogY79DCz3JqM5JimD9X59AMvaQXc0MQfKLDfjIB84ielHEhvBsy7SA6t+t0kAlmPMOX4hEwCXbGG2j8+sSTbIoj2CFgGwPIOgjuxlOkJkvQ9gCQixgwT96M7ayekDWJxkz06m1aD3ZpzrzfhM1oeSPUABJxlPyH6Y1AOLUwos9JvzSmbUQRY2Lx3D8aTbhgKCQwAW2tCNwA+AhTXOOWXncGT5b/4vWFYnB7DvrXNrJRsFkK31roPekdyU0cJ/W5S/N+O81c+03gCWIDv5zrclD+qNO+r7DgFYvk8/VSBYSp/ZfnQ23d4HsPgw5DqdhDfIa3oDD1nbdCM5Ye33y9xiH5tXegYP8NnxHoAcr7CtXS+BVP4SuUvPAfQ3C4CFb8lSehZ+YR2wBel0/t48gTr2nvejG+llch4wRccAEwG4QEJ2B5vCegVuWV+y1YaG49kZbEV6mf1pHtgRQwAWG4YvzIcmT4BpQGzAV3YbR3e6vh5sQHo9lSp0E/tTYMV8JaGDnegefCq+xZYBsBA8/VFMBqYm9AwTQJmZPM5A6qM5jZwlTJBtQBlphDUnqS5dCYBFoUvBt6goWgacaLcFJlpGGBKwroe4CIjo0vcAG4hNWEKeLUZC3t9ABkwqmsbIZFTVwp9BKqOLs5pMDeUZEEsOSt2PabML1c3yfPMAWJ412TSypSwsi5mTUIMZUi8tHIZeapDNO0ebQudg1IAs4FR0gKOVCJF7OQZfmVsCNiWE2b0ttOOwEgIcoRrAwsuEQa5FwHjuBmAtxnUcaoqNc0YYEszrscun9FyKlYI3twxwMqW/e4qnZSBw1t2fAU42kHMADnKAzABGURj4T7mia5MFeJHsqZu4c/oYmEAlYAEQC4/5nLJiRDACGZl4PEAWAEt0i0wVJZk18CaZ6JkmAVgMDveLwUjhkd/kc11CCLSrm8CaF3J1O5QQoj0aW/Pke+SDqLGghywi71/Lmews4zzgjB/fO59zh56M+VqmTAKw0FymsOAOeYR/6l0DhwCseu7XE8Cqr1sDWLJI0MI7CObgjToLss7Aok/RQO8j74RnN5NDgp6MNeuXjcImmRTtF0QjE3zPsBdVDIAliAXs5pzRMWQKOihVZqTKpGSvcBAC4AGQGO5KwQBK6UM1tJYDBOAxoIaIrB8ZLYxnBijjEN+xd8jG7ILKNiHT8Fbkx3oBWK4ZcLUPYIlKA7s51/RhDfb0ASzrihxj9AcUmyXTDvf3KgTYgAxzgz3A8UiQYyMALPrI/AKNOEt0hAw1gYY0UV6UDosCWOY4O4UPAVgB2fCy56qDOjWAxXHnmNGbfX5Y9B2O5uPJW8FyMsfapn8mAVj8GkkB+EZGTR8Ydh6AwpzJjsmuZTV9JwFYjsH/ZBpZx6fjZxlsITpC0K6+poAYeVgDWJ6v7m3MRqFvPTsdsx4Bys3EL+sNYOEBQCI60zuTspImAVjsFPNHr/d13xCAhZbmld3KHwfgRM/JwKRHgTAy/uqEAr40OwAgDihN+SBfSJBHQEi/V7qLfc3OB2aZf/qC3eD5NguAxT7n78lUgiGY15TW0vXk4axBFrP36H42uuxuIBI6mFMAljUaGew7JYTsiaGqMfeDqVhjaeKenYnZ8kMAlvWWihRzwy+lY1Jm7L36peHuA1Sz9vENv50MSUkzu8QzS/zhuyRYwZ52ns8F5gF2mzYDC7IKzIFMYkLCE2GgtFB6Cw6Y4BgTblFQ2IjIQbI4OKiMYJ8DLbwwAhh1BpbIj6wZ9+BIQREJUURlcJhsgpqBmmHhWvzuA1TIblye1f2BX4wy6XfTshxMimckhBnC/u9v79rGYhSQwUQgEGAU26xhcWanq0UbovcbYJv3eVKV8SEQgONeZ+gkBZoRjm/xnTVAGdd9Z/A+MJUwnyd7ZhYNjpbvOZAEMAXd7021WhoQ1gCpbNUcsBpoNGQ4OY6MMa/mPxlTHEMKliLgWADa0l+EEufIAU2NAFgUB57BA2QQJR5jD9DPGCTXGBfem3wLcBQAi6KrHYZJdGAAkKvTMrAoIe+WskUOKMDOPWsAi0NVp0ejhejZVgawgIPmNsNcWsP4AYCERyaVqtJNACrOHaPGnJIj+NT8UOBkU51Fl91zgScMwXowAlPGzGCph4xT5wBB6L9+tHUagJUdcCYFVhgSjMeUENb3rQEsxiowQhakwE5fz+EbQCgjhYHmmjKc4uBslh5Y9DSnLpt2kCnTdsNzPJAIkMGwZmOIeosMA6MyyA32hnWdXpmcsf5mDOSZ+5EjAHMyYtJwb3PAKQD2OBePALwZjfVwf7yqh5lMjRoAzXHTAKw0jB16FoCduScDgKv1XPYBLDKBEUwfMs5rXcf24sCwm+hvWVyOJf8Yy5uthNAc4XNBUsEJNCXPyVNrmTFuTjjo8+xCWNO2zsBin/b7V1lPCZzSC6LeAqxoWssk8+7YNP+dxEueV1CFfYU/pg3XrEtV+gAW2Ue2cY6sdVkctd7EI3Qpm5+MBGKTL/goDf1nPEL7ukcBNq9sSnalzM15Sgj5VmRWvV7xEuBbIFfQPn396tuRO3QMUFxWcN0P1HF0HecdWEU2pg9jACw2Rb2W+W/smRrA0ostu9e5JufbOdsNwALaoCFbiv2PXjJk+CHAQ2taJiq7wTo2x/yG7DpsrVlP7BLyx4915RyyVsk/2Zw+m/2Fw2cxz4ZjhwZbT8ZMbIQ+gIVX6P9JgywHaNFN2XnPsdmhlp1LnjjOewBvBLUEdmWoy0JiL5GJPuNHwwfQiE1F16EbGQzYOZIlhGwxch9NzB9bEYAF0xDEntWrEl3QCkAEwEIXMpQdIjGmBrBC7/RPNuf0+9BgI7D1AmDlGH7nEIBlDQssoG+dFUvOyPROdUrdc8t31rhnZ7fIvqMjvbdrmFvvxg9KoM49rOtaP9BBMJNNWUKI0TEgQorUiiIxfBiMJltWSkAHgpJylK3CmKGkZV1xzmS6WJSEqEWRhraMCYYxppE5I9pDIDOUGJbS6BCf8s/9hiIMJtjkuq6JsTg4cmoyJ/Wg6TOO55fK6XkYuKIidfO6poUbBRoF1kYB4CZnn9KYtHvSondg7HNMGHOcOgJ+1o43jHXRLIKZvDBSJurZgFjkAAeXwZg68vQGIWvci5D3PVlDCXD460FZc/4pN0ZietU4JpteMFj65w3RAFjmmcnToV1qgCEAV1muaYoP0OHocDbdj4FFOVM6shQzGMeMM/Kd0j1aB0MgWTcAJrpj3v5s60WzaQAWYIBhOilyx3HAA9MALAYKA9O1gJgA1qFUeXzJmUmPQbzOeO6X5K7Xe6/mOoACAK3mpowqcmBSX4lc31rkfJtfhhq54b0Alxmuhc7KqgAc1v0QyMzpEEAzlAHNsjXQnGFq/oAk5trzc4YY0Sn5FBHl3HAMJ8mGSQAWo1TgbqiM0nPib04pGTcNwGLnse8cmwz3eo7QXrSZ3CBP2EocEjbfkXZMhnjJmuD0WR+cbzKbLAQwm49sTiB7jA5hS6YJtXfND31B5wB1UqpdA1jOM6fRK/1nMc/uybHt73RojZHRnJ9pgyPLaaDnJpWh5Hy2tFYMGTWAlZJ5ti4eR5d+NrB7sfE5LnSGZ+ecC6bME3hZzbrejufwZzjM/WHNA7HJEmCkwAv7BJAI8AZwDNEZ8EVmyeLkawE1yXHyTEYoGUZ2A0nZBIZ+P/0d5XwuIMdZx0v8M7Ivzi2boAaugTJ4oQawPF99XXpUYGG7AVjkncyU9RpkEF/V/Fh3dBMgJf7xau6ThJH45X0ACyCRQOzQ9dkQbE16tOY7wJ25Zzvw7/EHvmXf4kXgRp4bT5MpgmN4B1+TG/5WqQXoch3A1zwJB6uhwzznAG3IYNgC0MiagUWkj+Q8AD26WG98BUCx9WcOYCbTAKw6I4quCB2snTRWpwfq0tw+gEVXwFQEt4dGyothK94zYKEs9PT+Nn/0tWPocnqSXhGIycZBsiglCgAv+RN0vfPhQ4A4g60Iu9nwsUgPLMcmy4DBR0CaZISE5vUb3qZirrnfAAAH3klEQVTkkNE19J0yFd+lBMFi8UOZ9/tqmFQOoGcwua43jdkdl/JGE1CnPi5CVMaJ+9YlNouc345tFGgUGKaANUqokiPrWYZERpE91ux6pasDfSgG1/O8texxL+AXmURuUfTT3geQ1DdCOTLkoYjVPFEo92RocqSc0x/JJqNYEqVFb58b3sG5ZFt/ly0yj1PCkZsEjjSePjwUmAZgMbIYjXGc+08k8idyOgvAAjKYZ45tfzerXFO0mLEO5KDrZTEDvObh1cNDqe1zF7YOWWONs1vMzSz7ZRKABZQAuvV39A21yEqAGYN1EoCVkiblRQxoAN9Qo3FReIGIeidVPDiUCXIkZwsIw1FkcNc7SJKFHA9GuayKZE5FDqbsjhyN3ewYa4Dzk2y/GsBSri2Y0M8On+f9ZeY5TyB3vYa1C7SLXqwBLBmFqhbwBAdUdlU/u5Ke0keFo0QH4lVAseByG/NTAPghS7M/oqPpYKBBNiMyJ2RArc/rczmOnEyAQLI1fW9NAxrNufmi/+l2cz0EUOaagovuH/nOibcuANm1bUM/0T81gOVZa3mDh6257QZg0Yl1oGP+2R8+kk2G7jKmAJX6SrEVZcSvdpBdMvsCOvYBLPIZwL7oEHgGdLAvgJqCLPQE4A3wAYzr93HUTog8EfTCRxnOUarczwZc9JnWejxABgAl6YbMNgBY/r/ooCvrnTbnBbDwkwCQdW/O4CH0M5C434+wD2ABAgHYKYnvPzNdxa4gB2q7nr4SsEB/9wdsA6lU2ln/sinpdX+7BuBdFp2gBdoAQMktep8fxJZItuGidFv4+EUArIUv3k5oFGgUaBRoFGgUaBRYFQUYFNm6us6GE8VkwMiKmZSFzGgCKgAQ+uXYDCwOEaNFZI+RrA/LZikHXBWxjuKTgAqyK/BFnAMgBKdRlH1S+wNGqnkXJVYyV8+/LLJLx+VEsgE4qZwU4OWkwICeLRwbRrJSTNlfm22kjEqGHDCuD9JzuGXGAYhl4ctSAyj4HGCT32iAXkAqziZH0bDmOBKMfpkFQIV+GeE8NBHcBRiuZ3Cnf1/ZtqLxsiU4ncrXAGfAlUlzLNDCEcZv5Ipy7M20kcM8tD3Sx8jsAy6t15A1Yg77QDf+lT2rv1YGfcHx7JcgTnsWskSFjOzWumSd/uEwc2I5uLI0OODkTgYQhhyQZdovSV2v999O1wEQCHBuRM9lMs3atsanldfPS098FXBVoIyumZXsQRbKehYUJtvIkCOZeZV3lY2uXYjWH2lWr1IBcAvQAdTNGjIfBTPIR4HBDG0krE+Z1ACjDEFDQRR61pzQTcBlQGaGoIOMSDq81lUyM5W4ozd5AjwCRgKoFxmANnOiks4aJhvobvrHuwxl2QPC2ANkiOzt7LINyKTz2AiHZTQA67CQud2kUaBRoFGgUaBRoFGgUWDdKSCln+EqKy4loFofACcZzSl37t8YOMMplbXBgK5BCxFWhnRKnZVHirxuBmdjrQREG87TpNLKtVyfA8qRAD5t1t0X834i/MoPgRqi/HiBw3K4S6XXQu927mQK8O/IBQ6qv63v1ZR6JkMc0F2DZLLAgbrphaOMifzhyGa4twwsgMyssuo2l40CR5IC9KHMpwBFSjgFeWSm1y0/Jj2jY5XZA3bqHe1dV5mg6rJ64zrBDWCeQGLWjOzfug+mFiBDYCYQiZ4BOikDXOuQnWmd0wUyc9kMk/py1ffyDrKvyBbVIBsZcLnFOzYAa63T3s5vFGgUaBRoFGgUaBRoFGgUaBRoFGgUaBRoFGgUaBRoFNhQCjQAa0PJ2y7eKNAo0CjQKNAo0CjQKNAo0CjQKNAo0CjQKNAo0CjQKLBWCjQAa60UbOc3CjQKNAo0CjQKNAo0CjQKNAo0CjQKNAo0CjQKNAo0CmwoBRqAtaHkbRdvFGgUaBRoFGgUaBRoFGgUaBRoFGgUaBRoFGgUaBRoFFgrBRqAtVYKtvMbBRoFGgUaBRoFGgUaBRoFGgUaBRoFGgUaBRoFGgUaBTaUAg3A2lDytos3CjQKNAo0CjQKNAo0CjQKNAo0CjQKNAo0CjQKNAo0CqyVAg3AWisF2/mNAo0CjQKNAo0CjQKNAo0CjQKNAo0CjQKNAo0CjQKNAhtKgQZgbSh528UbBRoFGgUaBRoFGgUaBRoFGgUaBRoFGgUaBRoFGgUaBdZKgQZgrZWC7fxGgUaBRoFGgUaBRoFGgUaBRoFGgUaBRoFGgUaBRoFGgQ2lQAOwNpS87eKNAo0CjQKNAo0CjQKNAo0CjQKNAo0CjQKNAo0CjQKNAmulQAOw1krBdn6jQKNAo0CjQKNAo0CjQKNAo0CjQKNAo0CjQKNAo0CjwIZSoAFYG0redvFGgUaBRoFGgUaBRoFGgUaBRoFGgUaBRoFGgUaBRoFGgbVSoAFYa6VgO79RoFGgUaBRoFGgUaBRoFGgUaBRoFGgUaBRoFGgUaBRYEMp0ACsDSVvu3ijQKNAo0CjQKNAo0CjQKNAo0CjQKNAo0CjQKNAo0CjwFop0ACstVKwnd8o0CjQKNAo0CjQKNAo0CjQKNAo0CjQKNAo0CjQKNAosKEUaADWhpK3XbxRoFGgUaBRoFGgUaBRoFGgUaBRoFGgUaBRoFGgUaBRYK0UaADWWinYzm8UaBRoFGgUaBRoFGgUaBRoFGgUaBRoFGgUaBRoFGgU2FAK/P9fV2rNALEvSQAAAABJRU5ErkJggg==;" vertex="1" parent="1">
          <mxGeometry x="380" y="1240" width="1142.86" height="120" as="geometry" />
        </mxCell>
      </root>
    </mxGraphModel>
  </diagram>
</mxfile>
